CSLSans-SemiBoldItalic.ufo
<glyph name="exclam" format="2">
  <advance width="298"/>
  <unicode hex="0021"/>
  <outline>
    <contour>
      <point x="166" y="207" type="line"/>
      <point x="113" y="207" type="line"/>
      <point x="135" y="500" type="line"/>
      <point x="174" y="698" type="line"/>
      <point x="299" y="698" type="line"/>
      <point x="260" y="500" type="line"/>
    </contour>
    <contour>
      <point x="99" y="-12" type="qcurve" smooth="yes"/>
      <point x="32" y="-12"/>
      <point x="32" y="40" type="qcurve" smooth="yes"/>
      <point x="32" y="147"/>
      <point x="123" y="147" type="qcurve" smooth="yes"/>
      <point x="158" y="147"/>
      <point x="190" y="119"/>
      <point x="190" y="95" type="qcurve" smooth="yes"/>
      <point x="190" y="-12"/>
    </contour>
  </outline>
</glyph>
<glyph name="numbersign" format="2">
  <advance width="655"/>
  <unicode hex="0023"/>
  <outline>
    <contour>
      <point x="369" y="0" type="line"/>
      <point x="287" y="0" type="line"/>
      <point x="356" y="185" type="line"/>
      <point x="209" y="185" type="line"/>
      <point x="140" y="0" type="line"/>
      <point x="59" y="0" type="line"/>
      <point x="127" y="185" type="line"/>
      <point x="13" y="185" type="line"/>
      <point x="29" y="263" type="line"/>
      <point x="156" y="263" type="line"/>
      <point x="220" y="435" type="line"/>
      <point x="105" y="435" type="line"/>
      <point x="121" y="513" type="line"/>
      <point x="248" y="513" type="line"/>
      <point x="317" y="698" type="line"/>
      <point x="399" y="698" type="line"/>
      <point x="330" y="513" type="line"/>
      <point x="477" y="513" type="line"/>
      <point x="546" y="698" type="line"/>
      <point x="628" y="698" type="line"/>
      <point x="559" y="513" type="line"/>
      <point x="673" y="513" type="line"/>
      <point x="657" y="435" type="line"/>
      <point x="530" y="435" type="line"/>
      <point x="466" y="263" type="line"/>
      <point x="580" y="263" type="line"/>
      <point x="565" y="185" type="line"/>
      <point x="438" y="185" type="line"/>
    </contour>
    <contour>
      <point x="384" y="263" type="line"/>
      <point x="448" y="435" type="line"/>
      <point x="302" y="435" type="line"/>
      <point x="237" y="263" type="line"/>
    </contour>
  </outline>
</glyph>
<glyph name="dollar" format="2">
  <advance width="570"/>
  <unicode hex="0024"/>
  <outline>
    <contour>
      <point x="286" y="429" type="qcurve"/>
      <point x="319" y="591" type="line"/>
      <point x="222" y="585"/>
      <point x="222" y="508" type="qcurve"/>
      <point x="222" y="483"/>
      <point x="238" y="462" type="qcurve"/>
      <point x="250" y="445"/>
    </contour>
    <contour>
      <point x="296" y="108" type="line"/>
      <point x="344" y="111"/>
      <point x="369" y="134" type="qcurve"/>
      <point x="399" y="160"/>
      <point x="399" y="205" type="qcurve"/>
      <point x="399" y="228"/>
      <point x="384" y="251" type="qcurve"/>
      <point x="371" y="271"/>
      <point x="332" y="288" type="qcurve"/>
    </contour>
    <contour>
      <point x="195" y="7" type="line"/>
      <point x="87" y="28"/>
      <point x="19" y="112" type="qcurve"/>
      <point x="103" y="192" type="line"/>
      <point x="153" y="130"/>
      <point x="222" y="113" type="qcurve"/>
      <point x="263" y="313" type="line"/>
      <point x="261" y="314" type="line"/>
      <point x="98" y="375"/>
      <point x="98" y="501" type="qcurve"/>
      <point x="98" y="583"/>
      <point x="160" y="641" type="qcurve"/>
      <point x="221" y="697"/>
      <point x="335" y="698" type="qcurve"/>
      <point x="338" y="716" type="line"/>
      <point x="350" y="780" type="line"/>
      <point x="437" y="780" type="line"/>
      <point x="419" y="690" type="line"/>
      <point x="512" y="670"/>
      <point x="571" y="597" type="qcurve"/>
      <point x="487" y="519" type="line"/>
      <point x="450" y="568"/>
      <point x="392" y="584" type="qcurve"/>
      <point x="355" y="402" type="line"/>
      <point x="362" y="399" type="line"/>
      <point x="462" y="360"/>
      <point x="498" y="305" type="qcurve"/>
      <point x="522" y="266"/>
      <point x="522" y="216" type="qcurve"/>
      <point x="522" y="118"/>
      <point x="454" y="59" type="qcurve"/>
      <point x="389" y="3"/>
      <point x="280" y="0" type="qcurve"/>
      <point x="279" y="-6" type="line"/>
      <point x="264" y="-82" type="line"/>
      <point x="177" y="-82" type="line"/>
      <point x="193" y="0" type="line"/>
    </contour>
  </outline>
</glyph>
<glyph name="percent" format="2">
  <advance width="925"/>
  <unicode hex="0025"/>
  <outline>
    <contour>
      <point x="240" y="314" type="qcurve" smooth="yes"/>
      <point x="175" y="314"/>
      <point x="96" y="388"/>
      <point x="96" y="468" type="qcurve" smooth="yes"/>
      <point x="96" y="566"/>
      <point x="209" y="710"/>
      <point x="294" y="710" type="qcurve" smooth="yes"/>
      <point x="357" y="710"/>
      <point x="437" y="637"/>
      <point x="437" y="556" type="qcurve" smooth="yes"/>
      <point x="437" y="450"/>
      <point x="319" y="314"/>
    </contour>
    <contour>
      <point x="242" y="0" type="line"/>
      <point x="135" y="0" type="line"/>
      <point x="714" y="698" type="line"/>
      <point x="821" y="698" type="line"/>
    </contour>
    <contour>
      <point x="246" y="386" type="qcurve" smooth="yes"/>
      <point x="277" y="386"/>
      <point x="296" y="414" type="qcurve" smooth="yes"/>
      <point x="310" y="436"/>
      <point x="338" y="541"/>
      <point x="338" y="579" type="qcurve"/>
      <point x="336" y="638"/>
      <point x="288" y="638" type="qcurve" smooth="yes"/>
      <point x="266" y="638"/>
      <point x="234" y="613"/>
      <point x="209" y="543"/>
      <point x="195" y="471"/>
      <point x="195" y="445" type="qcurve"/>
      <point x="197" y="386"/>
    </contour>
    <contour>
      <point x="662" y="-12" type="qcurve" smooth="yes"/>
      <point x="596" y="-12"/>
      <point x="518" y="64"/>
      <point x="518" y="142" type="qcurve" smooth="yes"/>
      <point x="518" y="240"/>
      <point x="631" y="384"/>
      <point x="716" y="384" type="qcurve" smooth="yes"/>
      <point x="779" y="384"/>
      <point x="859" y="311"/>
      <point x="859" y="230" type="qcurve" smooth="yes"/>
      <point x="859" y="124"/>
      <point x="741" y="-12"/>
    </contour>
    <contour>
      <point x="668" y="60" type="qcurve" smooth="yes"/>
      <point x="699" y="60"/>
      <point x="718" y="88" type="qcurve" smooth="yes"/>
      <point x="732" y="110"/>
      <point x="760" y="215"/>
      <point x="760" y="253" type="qcurve"/>
      <point x="758" y="312"/>
      <point x="710" y="312" type="qcurve" smooth="yes"/>
      <point x="688" y="312"/>
      <point x="656" y="287"/>
      <point x="631" y="217"/>
      <point x="617" y="145"/>
      <point x="617" y="119" type="qcurve"/>
      <point x="619" y="60"/>
    </contour>
  </outline>
</glyph>
<glyph name="quotesingle" format="2">
  <advance width="252"/>
  <unicode hex="0027"/>
  <outline>
    <contour>
      <point x="214" y="431" type="line"/>
      <point x="105" y="431" type="line"/>
      <point x="167" y="740" type="line"/>
      <point x="276" y="740" type="line"/>
    </contour>
  </outline>
</glyph>
<glyph name="parenleft" format="2">
  <advance width="344"/>
  <unicode hex="0028"/>
  <outline>
    <contour>
      <point x="296" y="-138" type="qcurve"/>
      <point x="188" y="-138" type="line"/>
      <point x="134" y="-75"/>
      <point x="67" y="110"/>
      <point x="67" y="213" type="qcurve"/>
      <point x="67" y="325"/>
      <point x="146" y="534"/>
      <point x="275" y="704"/>
      <point x="353" y="760" type="qcurve"/>
      <point x="475" y="760" type="line"/>
      <point x="373" y="683"/>
      <point x="221" y="483"/>
      <point x="196" y="368" type="qcurve"/>
      <point x="177" y="274" type="line"/>
      <point x="171" y="238"/>
      <point x="171" y="210" type="qcurve"/>
      <point x="171" y="9"/>
    </contour>
  </outline>
</glyph>
<glyph name="parenright" format="2">
  <advance width="344"/>
  <unicode hex="0029"/>
  <outline>
    <contour>
      <point x="14" y="-138" type="qcurve"/>
      <point x="-108" y="-138" type="line"/>
      <point x="-2" y="-58"/>
      <point x="145" y="141"/>
      <point x="171" y="255" type="qcurve"/>
      <point x="190" y="349" type="line"/>
      <point x="194" y="378"/>
      <point x="195" y="401" type="qcurve"/>
      <point x="196" y="413" type="line"/>
      <point x="196" y="611"/>
      <point x="71" y="760" type="qcurve"/>
      <point x="178" y="760" type="line"/>
      <point x="233" y="696"/>
      <point x="300" y="510"/>
      <point x="300" y="410" type="qcurve" smooth="yes"/>
      <point x="300" y="300"/>
      <point x="223" y="92"/>
      <point x="95" y="-80"/>
    </contour>
  </outline>
</glyph>
<glyph name="comma" format="2">
  <advance width="294"/>
  <unicode hex="002C"/>
  <outline>
    <contour>
      <point x="52" y="-141" type="qcurve"/>
      <point x="-39" y="-141" type="line"/>
      <point x="40" y="-78"/>
      <point x="76" y="-7" type="qcurve"/>
      <point x="32" y="3"/>
      <point x="32" y="42" type="qcurve"/>
      <point x="32" y="88"/>
      <point x="73" y="149"/>
      <point x="121" y="149" type="qcurve"/>
      <point x="157" y="149"/>
      <point x="188" y="115"/>
      <point x="188" y="93" type="qcurve"/>
      <point x="188" y="42"/>
      <point x="115" y="-93"/>
    </contour>
  </outline>
</glyph>
<glyph name="period" format="2">
  <advance width="294"/>
  <unicode hex="002E"/>
  <outline>
    <contour>
      <point x="96" y="-12" type="qcurve"/>
      <point x="59" y="-12"/>
      <point x="29" y="20"/>
      <point x="29" y="41" type="qcurve"/>
      <point x="29" y="149"/>
      <point x="120" y="149" type="qcurve"/>
      <point x="156" y="149"/>
      <point x="187" y="116"/>
      <point x="187" y="96" type="qcurve"/>
      <point x="187" y="84"/>
      <point x="185" y="73"/>
      <point x="183" y="63"/>
      <point x="181" y="55" type="qcurve"/>
      <point x="169" y="-12"/>
    </contour>
  </outline>
</glyph>
<glyph name="slash" format="2">
  <advance width="440"/>
  <unicode hex="002F"/>
  <outline>
    <contour>
      <point x="34" y="-151" type="line"/>
      <point x="-72" y="-151" type="line"/>
      <point x="385" y="740" type="line"/>
      <point x="492" y="740" type="line"/>
    </contour>
  </outline>
</glyph>
<glyph name="one" format="2">
  <advance width="600"/>
  <unicode hex="0031"/>
  <outline>
    <contour>
      <point x="348" y="0" type="line"/>
      <point x="230" y="0" type="line"/>
      <point x="347" y="581" type="line"/>
      <point x="179" y="492" type="line"/>
      <point x="204" y="613" type="line"/>
      <point x="359" y="698" type="line"/>
      <point x="488" y="698" type="line"/>
    </contour>
  </outline>
</glyph>
<glyph name="four" format="2">
  <advance width="600"/>
  <unicode hex="0034"/>
  <outline>
    <contour>
      <point x="414" y="0" type="line"/>
      <point x="301" y="0" type="line"/>
      <point x="328" y="135" type="line"/>
      <point x="19" y="135" type="line"/>
      <point x="41" y="244" type="line"/>
      <point x="403" y="698" type="line"/>
      <point x="554" y="698" type="line"/>
      <point x="460" y="231" type="line"/>
      <point x="550" y="231" type="line"/>
      <point x="531" y="135" type="line"/>
      <point x="441" y="135" type="line"/>
    </contour>
    <contour>
      <point x="347" y="231" type="line"/>
      <point x="414" y="564" type="line"/>
      <point x="406" y="564" type="line"/>
      <point x="141" y="231" type="line"/>
    </contour>
  </outline>
</glyph>
<glyph name="five" format="2">
  <advance width="600"/>
  <unicode hex="0035"/>
  <outline>
    <contour>
      <point x="258" y="-12" type="qcurve"/>
      <point x="167" y="-12"/>
      <point x="54" y="64"/>
      <point x="35" y="118" type="qcurve"/>
      <point x="132" y="182" type="line"/>
      <point x="159" y="90"/>
      <point x="266" y="90" type="qcurve"/>
      <point x="329" y="90"/>
      <point x="409" y="173"/>
      <point x="409" y="254" type="qcurve"/>
      <point x="409" y="297"/>
      <point x="358" y="347"/>
      <point x="309" y="347" type="qcurve"/>
      <point x="239" y="347"/>
      <point x="188" y="290" type="qcurve"/>
      <point x="92" y="304" type="line"/>
      <point x="192" y="698" type="line"/>
      <point x="582" y="698" type="line"/>
      <point x="561" y="592" type="line"/>
      <point x="259" y="592" type="line"/>
      <point x="198" y="348" type="line"/>
      <point x="207" y="348" type="line"/>
      <point x="233" y="398"/>
      <point x="305" y="448"/>
      <point x="362" y="448" type="qcurve"/>
      <point x="436" y="448"/>
      <point x="536" y="355"/>
      <point x="536" y="260" type="qcurve"/>
      <point x="536" y="191"/>
      <point x="471" y="66"/>
      <point x="347" y="-12"/>
    </contour>
  </outline>
</glyph>
<glyph name="six" format="2">
  <advance width="600"/>
  <unicode hex="0036"/>
  <outline>
    <contour>
      <point x="265" y="-12" type="qcurve"/>
      <point x="157" y="-12"/>
      <point x="54" y="113"/>
      <point x="54" y="215" type="qcurve"/>
      <point x="54" y="309"/>
      <point x="145" y="494"/>
      <point x="293" y="648"/>
      <point x="381" y="698" type="qcurve"/>
      <point x="552" y="698" type="line"/>
      <point x="411" y="614"/>
      <point x="234" y="442"/>
      <point x="199" y="343" type="qcurve"/>
      <point x="206" y="341" type="line"/>
      <point x="234" y="391"/>
      <point x="310" y="444"/>
      <point x="365" y="444" type="qcurve"/>
      <point x="446" y="444"/>
      <point x="537" y="336"/>
      <point x="537" y="253" type="qcurve"/>
      <point x="537" y="182"/>
      <point x="471" y="61"/>
      <point x="349" y="-12"/>
    </contour>
    <contour>
      <point x="274" y="87" type="qcurve"/>
      <point x="342" y="87"/>
      <point x="414" y="176"/>
      <point x="414" y="245" type="qcurve"/>
      <point x="414" y="347"/>
      <point x="312" y="347" type="qcurve"/>
      <point x="247" y="347"/>
      <point x="173" y="259"/>
      <point x="173" y="189" type="qcurve"/>
      <point x="173" y="87"/>
    </contour>
  </outline>
</glyph>
<glyph name="eight" format="2">
  <advance width="600"/>
  <unicode hex="0038"/>
  <outline>
    <contour>
      <point x="260" y="-12" type="qcurve" smooth="yes"/>
      <point x="150" y="-12"/>
      <point x="40" y="89"/>
      <point x="40" y="167" type="qcurve" smooth="yes"/>
      <point x="40" y="237"/>
      <point x="125" y="345"/>
      <point x="210" y="363" type="qcurve"/>
      <point x="212" y="370" type="line"/>
      <point x="125" y="403"/>
      <point x="125" y="505" type="qcurve" smooth="yes"/>
      <point x="125" y="560"/>
      <point x="184" y="653"/>
      <point x="295" y="710"/>
      <point x="374" y="710" type="qcurve" smooth="yes"/>
      <point x="477" y="710"/>
      <point x="573" y="619"/>
      <point x="573" y="551" type="qcurve" smooth="yes"/>
      <point x="573" y="485"/>
      <point x="493" y="390"/>
      <point x="427" y="368" type="qcurve"/>
      <point x="426" y="360" type="line"/>
      <point x="530" y="330"/>
      <point x="530" y="215" type="qcurve" smooth="yes"/>
      <point x="530" y="122"/>
      <point x="382" y="-12"/>
    </contour>
    <contour>
      <point x="330" y="406" type="qcurve" smooth="yes"/>
      <point x="391" y="406"/>
      <point x="455" y="477"/>
      <point x="455" y="535" type="qcurve" smooth="yes"/>
      <point x="455" y="613"/>
      <point x="359" y="613" type="qcurve" smooth="yes"/>
      <point x="299" y="613"/>
      <point x="234" y="544"/>
      <point x="234" y="485" type="qcurve" smooth="yes"/>
      <point x="234" y="451"/>
      <point x="280" y="406"/>
    </contour>
    <contour>
      <point x="268" y="85" type="qcurve" smooth="yes"/>
      <point x="378" y="85"/>
      <point x="402" y="187" type="qcurve" smooth="yes"/>
      <point x="404" y="197"/>
      <point x="406" y="216"/>
      <point x="406" y="226" type="qcurve"/>
      <point x="404" y="314"/>
      <point x="301" y="314" type="qcurve" smooth="yes"/>
      <point x="243" y="314"/>
      <point x="163" y="246"/>
      <point x="163" y="172" type="qcurve"/>
      <point x="164" y="85"/>
    </contour>
  </outline>
</glyph>
<glyph name="nine" format="2">
  <advance width="600"/>
  <unicode hex="0039"/>
  <outline>
    <contour>
      <point x="250" y="0" type="qcurve"/>
      <point x="79" y="0" type="line"/>
      <point x="215" y="79"/>
      <point x="393" y="252"/>
      <point x="432" y="355" type="qcurve"/>
      <point x="425" y="357" type="line"/>
      <point x="396" y="309"/>
      <point x="321" y="254"/>
      <point x="266" y="254" type="qcurve" smooth="yes"/>
      <point x="181" y="254"/>
      <point x="94" y="361"/>
      <point x="94" y="445" type="qcurve" smooth="yes"/>
      <point x="94" y="514"/>
      <point x="158" y="635"/>
      <point x="280" y="710"/>
      <point x="366" y="710" type="qcurve" smooth="yes"/>
      <point x="473" y="710"/>
      <point x="577" y="583"/>
      <point x="577" y="483" type="qcurve" smooth="yes"/>
      <point x="577" y="388"/>
      <point x="485" y="202"/>
      <point x="337" y="49"/>
    </contour>
    <contour>
      <point x="319" y="351" type="qcurve" smooth="yes"/>
      <point x="388" y="351"/>
      <point x="458" y="441"/>
      <point x="458" y="509" type="qcurve" smooth="yes"/>
      <point x="458" y="611"/>
      <point x="357" y="611" type="qcurve" smooth="yes"/>
      <point x="287" y="611"/>
      <point x="217" y="519"/>
      <point x="217" y="453" type="qcurve" smooth="yes"/>
      <point x="217" y="351"/>
    </contour>
  </outline>
</glyph>
<glyph name="semicolon" format="2">
  <advance width="314"/>
  <unicode hex="003B"/>
  <outline>
    <contour>
      <point x="182" y="371" type="qcurve" smooth="yes"/>
      <point x="146" y="371"/>
      <point x="116" y="403"/>
      <point x="116" y="424" type="qcurve" smooth="yes"/>
      <point x="116" y="532"/>
      <point x="206" y="532" type="qcurve" smooth="yes"/>
      <point x="243" y="532"/>
      <point x="273" y="500"/>
      <point x="273" y="479" type="qcurve" smooth="yes"/>
      <point x="273" y="371"/>
    </contour>
    <contour>
      <point x="62" y="-141" type="qcurve"/>
      <point x="-29" y="-141" type="line"/>
      <point x="50" y="-78"/>
      <point x="86" y="-7" type="qcurve"/>
      <point x="42" y="3"/>
      <point x="42" y="42" type="qcurve" smooth="yes"/>
      <point x="42" y="88"/>
      <point x="83" y="149"/>
      <point x="131" y="149" type="qcurve" smooth="yes"/>
      <point x="167" y="149"/>
      <point x="198" y="115"/>
      <point x="198" y="93" type="qcurve" smooth="yes"/>
      <point x="198" y="42"/>
      <point x="125" y="-93"/>
    </contour>
  </outline>
</glyph>
<glyph name="less" format="2">
  <advance width="600"/>
  <unicode hex="003C"/>
  <outline>
    <contour>
      <point x="444" y="-6" type="line"/>
      <point x="97" y="252" type="line"/>
      <point x="114" y="335" type="line"/>
      <point x="563" y="589" type="line"/>
      <point x="537" y="458" type="line"/>
      <point x="229" y="290" type="line"/>
      <point x="227" y="282" type="line"/>
      <point x="468" y="111" type="line"/>
    </contour>
  </outline>
</glyph>
<glyph name="equal" format="2">
  <advance width="600"/>
  <unicode hex="003D"/>
  <outline>
    <contour>
      <point x="551" y="368" type="line"/>
      <point x="93" y="368" type="line"/>
      <point x="112" y="464" type="line"/>
      <point x="570" y="464" type="line"/>
    </contour>
    <contour>
      <point x="507" y="147" type="line"/>
      <point x="49" y="147" type="line"/>
      <point x="69" y="244" type="line"/>
      <point x="526" y="244" type="line"/>
    </contour>
  </outline>
</glyph>
<glyph name="greater" format="2">
  <advance width="600"/>
  <unicode hex="003E"/>
  <outline>
    <contour>
      <point x="51" y="-6" type="line"/>
      <point x="77" y="125" type="line"/>
      <point x="386" y="296" type="line"/>
      <point x="388" y="304" type="line"/>
      <point x="147" y="473" type="line"/>
      <point x="170" y="589" type="line"/>
      <point x="518" y="334" type="line"/>
      <point x="501" y="251" type="line"/>
    </contour>
  </outline>
</glyph>
<glyph name="question" format="2">
  <advance width="482"/>
  <unicode hex="003F"/>
  <outline>
    <contour>
      <point x="270" y="224" type="line"/>
      <point x="156" y="224" type="line"/>
      <point x="189" y="381" type="line"/>
      <point x="378" y="399"/>
      <point x="378" y="531" type="qcurve"/>
      <point x="378" y="570"/>
      <point x="328" y="607"/>
      <point x="293" y="607" type="qcurve"/>
      <point x="243" y="607"/>
      <point x="184" y="552"/>
      <point x="168" y="506" type="qcurve"/>
      <point x="72" y="549" type="line"/>
      <point x="139" y="710"/>
      <point x="308" y="710" type="qcurve"/>
      <point x="402" y="710"/>
      <point x="502" y="619"/>
      <point x="502" y="545" type="qcurve"/>
      <point x="502" y="464"/>
      <point x="385" y="332"/>
      <point x="288" y="312" type="qcurve"/>
    </contour>
    <contour>
      <point x="173" y="-12" type="qcurve"/>
      <point x="106" y="-12"/>
      <point x="106" y="40" type="qcurve"/>
      <point x="106" y="147"/>
      <point x="198" y="147" type="qcurve"/>
      <point x="232" y="147"/>
      <point x="265" y="118"/>
      <point x="265" y="95" type="qcurve"/>
      <point x="265" y="-12"/>
    </contour>
  </outline>
</glyph>
<glyph name="at" format="2">
  <advance width="880"/>
  <unicode hex="0040"/>
  <outline>
    <contour>
      <point x="576" y="-121" type="line"/>
      <point x="375" y="-121" type="line"/>
      <point x="302" y="-121"/>
      <point x="185" y="-74"/>
      <point x="103" y="11"/>
      <point x="61" y="131"/>
      <point x="61" y="204" type="qcurve"/>
      <point x="61" y="311"/>
      <point x="132" y="496"/>
      <point x="255" y="631"/>
      <point x="423" y="708"/>
      <point x="520" y="708" type="qcurve"/>
      <point x="588" y="708"/>
      <point x="705" y="664"/>
      <point x="790" y="584"/>
      <point x="838" y="470"/>
      <point x="838" y="399" type="qcurve"/>
      <point x="838" y="354"/>
      <point x="829" y="313" type="qcurve"/>
      <point x="817" y="259"/>
      <point x="797" y="216" type="qcurve"/>
      <point x="754" y="126"/>
      <point x="686" y="94" type="qcurve"/>
      <point x="651" y="77"/>
      <point x="612" y="77" type="qcurve"/>
      <point x="509" y="80"/>
      <point x="509" y="162" type="qcurve"/>
      <point x="509" y="174" type="line"/>
      <point x="504" y="174" type="line"/>
      <point x="490" y="132"/>
      <point x="424" y="77"/>
      <point x="379" y="77" type="qcurve"/>
      <point x="319" y="77"/>
      <point x="249" y="153"/>
      <point x="249" y="231" type="qcurve"/>
      <point x="249" y="267"/>
      <point x="256" y="301" type="qcurve"/>
      <point x="258" y="308" type="line"/>
      <point x="281" y="400"/>
      <point x="374" y="502"/>
      <point x="444" y="502" type="qcurve"/>
      <point x="528" y="502"/>
      <point x="546" y="427" type="qcurve"/>
      <point x="550" y="427" type="line"/>
      <point x="563" y="493" type="line"/>
      <point x="658" y="493" type="line"/>
      <point x="602" y="216" type="line"/>
      <point x="599" y="200"/>
      <point x="599" y="186" type="qcurve"/>
      <point x="599" y="152"/>
      <point x="632" y="152" type="qcurve"/>
      <point x="670" y="152"/>
      <point x="727" y="230"/>
      <point x="744" y="312" type="qcurve"/>
      <point x="748" y="328"/>
      <point x="754" y="364"/>
      <point x="756" y="383" type="qcurve"/>
      <point x="756" y="402"/>
      <point x="757" y="408" type="qcurve"/>
      <point x="757" y="512"/>
      <point x="684" y="577" type="qcurve"/>
      <point x="618" y="633"/>
      <point x="510" y="633" type="qcurve"/>
      <point x="380" y="633"/>
      <point x="190" y="466"/>
      <point x="162" y="328" type="qcurve"/>
      <point x="153" y="281" type="line"/>
      <point x="144" y="244"/>
      <point x="144" y="213" type="qcurve"/>
      <point x="144" y="204" type="line"/>
      <point x="144" y="147"/>
      <point x="178" y="54"/>
      <point x="240" y="-10"/>
      <point x="329" y="-45"/>
      <point x="386" y="-45" type="qcurve"/>
      <point x="591" y="-45" type="line"/>
    </contour>
    <contour>
      <point x="414" y="157" type="qcurve"/>
      <point x="453" y="157"/>
      <point x="505" y="209"/>
      <point x="513" y="244" type="qcurve"/>
      <point x="536" y="343"/>
      <point x="536" y="362" type="qcurve"/>
      <point x="536" y="387"/>
      <point x="493" y="421"/>
      <point x="461" y="421" type="qcurve"/>
      <point x="418" y="421"/>
      <point x="371" y="370"/>
      <point x="356" y="292"/>
      <point x="348" y="254" type="qcurve"/>
      <point x="345" y="242"/>
      <point x="345" y="227" type="qcurve"/>
      <point x="348" y="157"/>
    </contour>
  </outline>
</glyph>
<glyph name="A" format="2">
  <advance width="645"/>
  <unicode hex="0041"/>
  <outline>
    <contour>
      <point x="573" y="0" type="line"/>
      <point x="450" y="0" type="line"/>
      <point x="430" y="183" type="line"/>
      <point x="189" y="183" type="line"/>
      <point x="97" y="0" type="line"/>
      <point x="-32" y="0" type="line"/>
      <point x="333" y="698" type="line"/>
      <point x="488" y="698" type="line"/>
    </contour>
    <contour>
      <point x="421" y="286" type="line"/>
      <point x="392" y="588" type="line"/>
      <point x="385" y="588" type="line"/>
      <point x="238" y="286" type="line"/>
    </contour>
  </outline>
</glyph>
<glyph name="C" format="2">
  <advance width="622"/>
  <unicode hex="0043"/>
  <outline>
    <contour>
      <point x="300" y="-12" type="qcurve"/>
      <point x="192" y="-12"/>
      <point x="56" y="130"/>
      <point x="56" y="270" type="qcurve"/>
      <point x="56" y="387"/>
      <point x="144" y="588"/>
      <point x="301" y="710"/>
      <point x="406" y="710" type="qcurve"/>
      <point x="585" y="710"/>
      <point x="637" y="544" type="qcurve"/>
      <point x="529" y="498" type="line"/>
      <point x="515" y="548"/>
      <point x="454" y="602"/>
      <point x="396" y="602" type="qcurve"/>
      <point x="317" y="602"/>
      <point x="222" y="498"/>
      <point x="206" y="414" type="qcurve"/>
      <point x="183" y="302" type="line"/>
      <point x="177" y="270"/>
      <point x="177" y="246" type="qcurve"/>
      <point x="177" y="176"/>
      <point x="242" y="96"/>
      <point x="310" y="96" type="qcurve"/>
      <point x="370" y="96"/>
      <point x="450" y="154"/>
      <point x="478" y="210" type="qcurve"/>
      <point x="578" y="163" type="line"/>
      <point x="489" y="-12"/>
    </contour>
  </outline>
</glyph>
<glyph name="F" format="2">
  <advance width="551"/>
  <unicode hex="0046"/>
  <outline>
    <contour>
      <point x="149" y="0" type="line"/>
      <point x="29" y="0" type="line"/>
      <point x="169" y="698" type="line"/>
      <point x="592" y="698" type="line"/>
      <point x="570" y="591" type="line"/>
      <point x="268" y="591" type="line"/>
      <point x="231" y="406" type="line"/>
      <point x="501" y="406" type="line"/>
      <point x="480" y="299" type="line"/>
      <point x="209" y="299" type="line"/>
    </contour>
  </outline>
</glyph>
<glyph name="J" format="2">
  <advance width="521"/>
  <unicode hex="004A"/>
  <outline>
    <contour>
      <point x="198" y="-12" type="qcurve" smooth="yes"/>
      <point x="134" y="-12"/>
      <point x="51" y="36"/>
      <point x="8" y="118"/>
      <point x="4" y="170" type="qcurve"/>
      <point x="118" y="193" type="line"/>
      <point x="123" y="95"/>
      <point x="200" y="95" type="qcurve" smooth="yes"/>
      <point x="286" y="95"/>
      <point x="308" y="201" type="qcurve"/>
      <point x="406" y="698" type="line"/>
      <point x="528" y="698" type="line"/>
      <point x="426" y="187" type="line" smooth="yes"/>
      <point x="407" y="95"/>
      <point x="296" y="-12"/>
    </contour>
  </outline>
</glyph>
<glyph name="K" format="2">
  <advance width="641"/>
  <unicode hex="004B"/>
  <outline>
    <contour>
      <point x="578" y="0" type="line"/>
      <point x="445" y="0" type="line"/>
      <point x="308" y="316" type="line"/>
      <point x="189" y="198" type="line"/>
      <point x="149" y="0" type="line"/>
      <point x="29" y="0" type="line"/>
      <point x="169" y="698" type="line"/>
      <point x="290" y="698" type="line"/>
      <point x="221" y="355" type="line"/>
      <point x="227" y="355" type="line"/>
      <point x="340" y="480" type="line"/>
      <point x="552" y="698" type="line"/>
      <point x="700" y="698" type="line"/>
      <point x="402" y="397" type="line"/>
    </contour>
  </outline>
</glyph>
<glyph name="L" format="2">
  <advance width="502"/>
  <unicode hex="004C"/>
  <outline>
    <contour>
      <point x="418" y="0" type="line"/>
      <point x="29" y="0" type="line"/>
      <point x="169" y="698" type="line"/>
      <point x="290" y="698" type="line"/>
      <point x="171" y="107" type="line"/>
      <point x="439" y="107" type="line"/>
    </contour>
  </outline>
</glyph>
<glyph name="N" format="2">
  <advance width="694"/>
  <unicode hex="004E"/>
  <outline>
    <contour>
      <point x="560" y="0" type="line"/>
      <point x="428" y="0" type="line"/>
      <point x="299" y="369" type="line"/>
      <point x="253" y="518" type="line"/>
      <point x="247" y="518" type="line"/>
      <point x="143" y="0" type="line"/>
      <point x="29" y="0" type="line"/>
      <point x="169" y="698" type="line"/>
      <point x="301" y="698" type="line"/>
      <point x="429" y="329" type="line"/>
      <point x="476" y="180" type="line"/>
      <point x="482" y="180" type="line"/>
      <point x="586" y="698" type="line"/>
      <point x="700" y="698" type="line"/>
    </contour>
  </outline>
</glyph>
<glyph name="Q" format="2">
  <advance width="687"/>
  <unicode hex="0051"/>
  <outline>
    <contour>
      <point x="303" y="-12" type="qcurve" smooth="yes"/>
      <point x="249" y="-12"/>
      <point x="159" y="25"/>
      <point x="93" y="95"/>
      <point x="56" y="199"/>
      <point x="56" y="266" type="qcurve" smooth="yes"/>
      <point x="56" y="346"/>
      <point x="103" y="505"/>
      <point x="193" y="631"/>
      <point x="326" y="710"/>
      <point x="413" y="710" type="qcurve" smooth="yes"/>
      <point x="469" y="710"/>
      <point x="560" y="672"/>
      <point x="625" y="600"/>
      <point x="660" y="497"/>
      <point x="660" y="432" type="qcurve" smooth="yes"/>
      <point x="660" y="350"/>
      <point x="612" y="191"/>
      <point x="520" y="65"/>
      <point x="387" y="-12"/>
    </contour>
    <contour>
      <point x="313" y="91" type="qcurve" smooth="yes"/>
      <point x="397" y="91"/>
      <point x="500" y="203"/>
      <point x="520" y="306" type="qcurve" smooth="yes"/>
      <point x="536" y="385" type="line"/>
      <point x="539" y="405"/>
      <point x="544" y="443"/>
      <point x="544" y="457" type="qcurve" smooth="yes"/>
      <point x="544" y="528"/>
      <point x="473" y="607"/>
      <point x="404" y="607" type="qcurve" smooth="yes"/>
      <point x="363" y="607"/>
      <point x="293" y="577"/>
      <point x="239" y="521"/>
      <point x="204" y="441"/>
      <point x="197" y="392" type="qcurve"/>
      <point x="189" y="354"/>
      <point x="172" y="275"/>
      <point x="172" y="241" type="qcurve" smooth="yes"/>
      <point x="172" y="169"/>
      <point x="243" y="91"/>
    </contour>
    <contour>
      <point x="596" y="-90" type="line"/>
      <point x="495" y="-90"/>
      <point x="398" y="6"/>
      <point x="392" y="89" type="qcurve"/>
      <point x="501" y="111" type="line"/>
      <point x="502" y="89"/>
      <point x="510" y="53"/>
      <point x="534" y="27"/>
      <point x="578" y="12"/>
      <point x="616" y="12" type="qcurve"/>
    </contour>
  </outline>
</glyph>
<glyph name="S" format="2">
  <advance width="607"/>
  <unicode hex="0053"/>
  <outline>
    <contour>
      <point x="267" y="-12" type="qcurve"/>
      <point x="102" y="-12"/>
      <point x="8" y="104" type="qcurve"/>
      <point x="94" y="187" type="line"/>
      <point x="166" y="99"/>
      <point x="274" y="99" type="qcurve"/>
      <point x="339" y="99"/>
      <point x="401" y="154"/>
      <point x="401" y="200" type="qcurve"/>
      <point x="401" y="224"/>
      <point x="370" y="271"/>
      <point x="319" y="291" type="qcurve"/>
      <point x="258" y="313" type="line"/>
      <point x="89" y="376"/>
      <point x="89" y="506" type="qcurve"/>
      <point x="89" y="591"/>
      <point x="218" y="710"/>
      <point x="340" y="710" type="qcurve"/>
      <point x="494" y="710"/>
      <point x="578" y="606" type="qcurve"/>
      <point x="492" y="525" type="line"/>
      <point x="436" y="599"/>
      <point x="333" y="599" type="qcurve"/>
      <point x="217" y="599"/>
      <point x="217" y="513" type="qcurve"/>
      <point x="217" y="488"/>
      <point x="250" y="444"/>
      <point x="300" y="426" type="qcurve"/>
      <point x="362" y="401" type="line"/>
      <point x="466" y="360"/>
      <point x="503" y="303" type="qcurve"/>
      <point x="528" y="263"/>
      <point x="528" y="211" type="qcurve"/>
      <point x="528" y="110"/>
      <point x="387" y="-12"/>
    </contour>
  </outline>
</glyph>
<glyph name="Z" format="2">
  <advance width="568"/>
  <unicode hex="005A"/>
  <outline>
    <contour>
      <point x="481" y="0" type="line"/>
      <point x="-12" y="0" type="line"/>
      <point x="10" y="109" type="line"/>
      <point x="450" y="591" type="line"/>
      <point x="119" y="591" type="line"/>
      <point x="140" y="698" type="line"/>
      <point x="615" y="698" type="line"/>
      <point x="593" y="589" type="line"/>
      <point x="152" y="107" type="line"/>
      <point x="502" y="107" type="line"/>
    </contour>
  </outline>
</glyph>
<glyph name="bracketleft" format="2">
  <advance width="321"/>
  <unicode hex="005B"/>
  <outline>
    <contour>
      <point x="197" y="-138" type="line"/>
      <point x="2" y="-138" type="line"/>
      <point x="182" y="760" type="line"/>
      <point x="377" y="760" type="line"/>
      <point x="360" y="676" type="line"/>
      <point x="270" y="676" type="line"/>
      <point x="123" y="-54" type="line"/>
      <point x="213" y="-54" type="line"/>
    </contour>
  </outline>
</glyph>
<glyph name="bracketright" format="2">
  <advance width="320"/>
  <unicode hex="005D"/>
  <outline>
    <contour>
      <point x="160" y="-138" type="line"/>
      <point x="-35" y="-138" type="line"/>
      <point x="-18" y="-54" type="line"/>
      <point x="72" y="-54" type="line"/>
      <point x="218" y="676" type="line"/>
      <point x="127" y="676" type="line"/>
      <point x="144" y="760" type="line"/>
      <point x="340" y="760" type="line"/>
    </contour>
  </outline>
</glyph>
<glyph name="underscore" format="2">
  <advance width="548"/>
  <unicode hex="005F"/>
  <outline>
    <contour>
      <point x="432" y="-178" type="line"/>
      <point x="-59" y="-178" type="line"/>
      <point x="-39" y="-79" type="line"/>
      <point x="451" y="-79" type="line"/>
    </contour>
  </outline>
</glyph>
<glyph name="d" format="2">
  <advance width="588"/>
  <unicode hex="0064"/>
  <outline>
    <contour>
      <point x="185" y="-12" type="qcurve" smooth="yes"/>
      <point x="149" y="-12"/>
      <point x="94" y="16"/>
      <point x="57" y="65"/>
      <point x="38" y="134"/>
      <point x="38" y="176" type="qcurve" smooth="yes"/>
      <point x="38" y="244"/>
      <point x="72" y="374"/>
      <point x="136" y="473"/>
      <point x="228" y="534"/>
      <point x="286" y="534" type="qcurve" smooth="yes"/>
      <point x="337" y="534"/>
      <point x="410" y="479"/>
      <point x="418" y="433" type="qcurve"/>
      <point x="423" y="433" type="line"/>
      <point x="484" y="740" type="line"/>
      <point x="600" y="740" type="line"/>
      <point x="471" y="95" type="line"/>
      <point x="535" y="95" type="line"/>
      <point x="516" y="0" type="line"/>
      <point x="433" y="0" type="line"/>
      <point x="369" y="1"/>
      <point x="361" y="52" type="qcurve"/>
      <point x="357" y="61"/>
      <point x="354" y="77"/>
      <point x="354" y="84" type="qcurve"/>
      <point x="355" y="101"/>
      <point x="359" y="118" type="qcurve"/>
      <point x="355" y="118" type="line"/>
      <point x="323" y="53"/>
      <point x="247" y="-12"/>
    </contour>
    <contour>
      <point x="236" y="86" type="qcurve" smooth="yes"/>
      <point x="275" y="86"/>
      <point x="336" y="134"/>
      <point x="377" y="207"/>
      <point x="385" y="246" type="qcurve" smooth="yes"/>
      <point x="405" y="348"/>
      <point x="405" y="358" type="qcurve" smooth="yes"/>
      <point x="405" y="393"/>
      <point x="357" y="436"/>
      <point x="309" y="436" type="qcurve" smooth="yes"/>
      <point x="204" y="436"/>
      <point x="177" y="304" type="qcurve" smooth="yes"/>
      <point x="171" y="271" type="line"/>
      <point x="157" y="215"/>
      <point x="157" y="177" type="qcurve"/>
      <point x="161" y="86"/>
    </contour>
  </outline>
</glyph>
<glyph name="f" format="2">
  <advance width="335"/>
  <unicode hex="0066"/>
  <outline>
    <contour>
      <point x="-10" y="-200" type="qcurve" smooth="yes"/>
      <point x="-82" y="-200" type="line"/>
      <point x="-63" y="-105" type="line"/>
      <point x="32" y="-105" type="line"/>
      <point x="138" y="426" type="line"/>
      <point x="63" y="426" type="line"/>
      <point x="82" y="522" type="line"/>
      <point x="158" y="522" type="line"/>
      <point x="174" y="604" type="line"/>
      <point x="198" y="740"/>
      <point x="341" y="740" type="qcurve" smooth="yes"/>
      <point x="417" y="740" type="line"/>
      <point x="398" y="645" type="line"/>
      <point x="298" y="645" type="line"/>
      <point x="274" y="522" type="line"/>
      <point x="375" y="522" type="line"/>
      <point x="357" y="426" type="line"/>
      <point x="254" y="426" type="line"/>
      <point x="156" y="-64" type="line"/>
      <point x="131" y="-200"/>
    </contour>
  </outline>
</glyph>
<glyph name="j" format="2">
  <advance width="267"/>
  <unicode hex="006A"/>
  <outline>
    <contour>
      <point x="-19" y="-200" type="qcurve"/>
      <point x="-93" y="-200" type="line"/>
      <point x="-74" y="-105" type="line"/>
      <point x="4" y="-105" type="line"/>
      <point x="130" y="522" type="line"/>
      <point x="246" y="522" type="line"/>
      <point x="125" y="-76" type="line"/>
      <point x="107" y="-200"/>
    </contour>
    <contour>
      <point x="206" y="603" type="qcurve"/>
      <point x="145" y="603"/>
      <point x="145" y="648" type="qcurve"/>
      <point x="145" y="665"/>
      <point x="157" y="711"/>
      <point x="194" y="745"/>
      <point x="231" y="745" type="qcurve"/>
      <point x="262" y="745"/>
      <point x="291" y="719"/>
      <point x="291" y="700" type="qcurve"/>
      <point x="291" y="663"/>
      <point x="254" y="603"/>
    </contour>
  </outline>
</glyph>
<glyph name="l" format="2">
  <advance width="274"/>
  <unicode hex="006C"/>
  <outline>
    <contour>
      <point x="207" y="0" type="line"/>
      <point x="121" y="0" type="line" smooth="yes"/>
      <point x="78" y="0"/>
      <point x="39" y="42"/>
      <point x="39" y="73" type="qcurve" smooth="yes"/>
      <point x="39" y="83"/>
      <point x="170" y="740" type="qcurve"/>
      <point x="286" y="740" type="line"/>
      <point x="157" y="95" type="line"/>
      <point x="225" y="95" type="line"/>
    </contour>
  </outline>
</glyph>
<glyph name="m" format="2">
  <advance width="865"/>
  <unicode hex="006D"/>
  <outline>
    <contour>
      <point x="796" y="0" type="line"/>
      <point x="713" y="0" type="line"/>
      <point x="637" y="0"/>
      <point x="637" y="69" type="qcurve"/>
      <point x="637" y="77"/>
      <point x="663" y="209" type="qcurve"/>
      <point x="675" y="267" type="line"/>
      <point x="691" y="330"/>
      <point x="691" y="370" type="qcurve"/>
      <point x="691" y="435"/>
      <point x="633" y="435" type="qcurve"/>
      <point x="585" y="435"/>
      <point x="506" y="338"/>
      <point x="495" y="277" type="qcurve"/>
      <point x="439" y="0" type="line"/>
      <point x="323" y="0" type="line"/>
      <point x="386" y="314" type="line"/>
      <point x="393" y="344"/>
      <point x="393" y="370" type="qcurve"/>
      <point x="393" y="435"/>
      <point x="337" y="435" type="qcurve"/>
      <point x="300" y="435"/>
      <point x="240" y="384"/>
      <point x="201" y="312"/>
      <point x="194" y="277" type="qcurve"/>
      <point x="139" y="0" type="line"/>
      <point x="23" y="0" type="line"/>
      <point x="127" y="522" type="line"/>
      <point x="243" y="522" type="line"/>
      <point x="220" y="407" type="line"/>
      <point x="226" y="407" type="line"/>
      <point x="254" y="469"/>
      <point x="332" y="534"/>
      <point x="390" y="534" type="qcurve"/>
      <point x="506" y="534"/>
      <point x="511" y="407" type="qcurve"/>
      <point x="516" y="407" type="line"/>
      <point x="543" y="467"/>
      <point x="624" y="534"/>
      <point x="686" y="534" type="qcurve"/>
      <point x="750" y="534"/>
      <point x="809" y="457"/>
      <point x="809" y="397" type="qcurve"/>
      <point x="809" y="356"/>
      <point x="799" y="315" type="qcurve"/>
      <point x="755" y="95" type="line"/>
      <point x="815" y="95" type="line"/>
    </contour>
  </outline>
</glyph>
<glyph name="q" format="2">
  <advance width="578"/>
  <unicode hex="0071"/>
  <outline>
    <contour>
      <point x="412" y="-200" type="line"/>
      <point x="296" y="-200" type="line"/>
      <point x="359" y="118" type="line"/>
      <point x="355" y="118" type="line"/>
      <point x="323" y="51"/>
      <point x="243" y="-12"/>
      <point x="185" y="-12" type="qcurve"/>
      <point x="108" y="-12"/>
      <point x="38" y="96"/>
      <point x="38" y="176" type="qcurve"/>
      <point x="38" y="262"/>
      <point x="95" y="427"/>
      <point x="206" y="534"/>
      <point x="286" y="534" type="qcurve"/>
      <point x="335" y="534"/>
      <point x="409" y="480"/>
      <point x="418" y="433" type="qcurve"/>
      <point x="423" y="433" type="line"/>
      <point x="440" y="522" type="line"/>
      <point x="556" y="522" type="line"/>
    </contour>
    <contour>
      <point x="236" y="86" type="qcurve"/>
      <point x="287" y="86"/>
      <point x="370" y="178"/>
      <point x="385" y="246" type="qcurve"/>
      <point x="403" y="335" type="line"/>
      <point x="405" y="351"/>
      <point x="405" y="358" type="qcurve"/>
      <point x="405" y="393"/>
      <point x="357" y="436"/>
      <point x="309" y="436" type="qcurve"/>
      <point x="204" y="436"/>
      <point x="177" y="304" type="qcurve"/>
      <point x="170" y="270" type="line"/>
      <point x="157" y="216"/>
      <point x="157" y="177" type="qcurve"/>
      <point x="158" y="136"/>
      <point x="195" y="86"/>
    </contour>
  </outline>
</glyph>
<glyph name="s" format="2">
  <advance width="497"/>
  <unicode hex="0073"/>
  <outline>
    <contour>
      <point x="223" y="-12" type="qcurve"/>
      <point x="86" y="-12"/>
      <point x="9" y="85" type="qcurve"/>
      <point x="85" y="157" type="line"/>
      <point x="141" y="85"/>
      <point x="229" y="85" type="qcurve"/>
      <point x="307" y="85"/>
      <point x="315" y="133" type="qcurve"/>
      <point x="316" y="144" type="line"/>
      <point x="316" y="183"/>
      <point x="260" y="203" type="qcurve"/>
      <point x="187" y="229"/>
      <point x="156" y="243" type="qcurve"/>
      <point x="118" y="261"/>
      <point x="69" y="326"/>
      <point x="69" y="371" type="qcurve"/>
      <point x="69" y="446"/>
      <point x="178" y="534"/>
      <point x="267" y="534" type="qcurve"/>
      <point x="342" y="534"/>
      <point x="434" y="489"/>
      <point x="468" y="451" type="qcurve"/>
      <point x="395" y="379" type="line"/>
      <point x="343" y="437"/>
      <point x="270" y="437" type="qcurve"/>
      <point x="227" y="437"/>
      <point x="188" y="404"/>
      <point x="188" y="380" type="qcurve"/>
      <point x="188" y="336"/>
      <point x="248" y="320" type="qcurve"/>
      <point x="298" y="303" type="line"/>
      <point x="433" y="256"/>
      <point x="436" y="158" type="qcurve"/>
      <point x="436" y="80"/>
      <point x="317" y="-12"/>
    </contour>
  </outline>
</glyph>
<glyph name="v" format="2">
  <advance width="501"/>
  <unicode hex="0076"/>
  <outline>
    <contour>
      <point x="264" y="0" type="line"/>
      <point x="124" y="0" type="line"/>
      <point x="54" y="522" type="line"/>
      <point x="168" y="522" type="line"/>
      <point x="189" y="335" type="line"/>
      <point x="194" y="291"/>
      <point x="211" y="105" type="qcurve"/>
      <point x="217" y="105" type="line"/>
      <point x="307" y="302" type="line"/>
      <point x="327" y="340"/>
      <point x="417" y="522" type="qcurve"/>
      <point x="541" y="522" type="line"/>
    </contour>
  </outline>
</glyph>
<glyph name="w" format="2">
  <advance width="772"/>
  <unicode hex="0077"/>
  <outline>
    <contour>
      <point x="561" y="0" type="line"/>
      <point x="435" y="0" type="line"/>
      <point x="421" y="153" type="line"/>
      <point x="416" y="200"/>
      <point x="414" y="236" type="qcurve"/>
      <point x="405" y="373" type="line"/>
      <point x="399" y="373" type="line"/>
      <point x="300" y="155" type="line"/>
      <point x="228" y="0" type="line"/>
      <point x="98" y="0" type="line"/>
      <point x="63" y="522" type="line"/>
      <point x="177" y="522" type="line"/>
      <point x="189" y="125" type="line"/>
      <point x="194" y="125" type="line"/>
      <point x="374" y="522" type="line"/>
      <point x="483" y="522" type="line"/>
      <point x="512" y="123" type="line"/>
      <point x="517" y="123" type="line"/>
      <point x="685" y="522" type="line"/>
      <point x="799" y="522" type="line"/>
    </contour>
  </outline>
</glyph>
<glyph name="z" format="2">
  <advance width="475"/>
  <unicode hex="007A"/>
  <outline>
    <contour>
      <point x="396" y="0" type="line"/>
      <point x="-9" y="0" type="line"/>
      <point x="10" y="95" type="line"/>
      <point x="329" y="427" type="line"/>
      <point x="78" y="427" type="line"/>
      <point x="97" y="522" type="line"/>
      <point x="487" y="522" type="line"/>
      <point x="468" y="427" type="line"/>
      <point x="148" y="95" type="line"/>
      <point x="415" y="95" type="line"/>
    </contour>
  </outline>
</glyph>
<glyph name="bar" format="2">
  <advance width="361"/>
  <unicode hex="007C"/>
  <outline>
    <contour>
      <point x="153" y="-138" type="line"/>
      <point x="49" y="-138" type="line"/>
      <point x="229" y="760" type="line"/>
      <point x="332" y="760" type="line"/>
    </contour>
  </outline>
</glyph>
<glyph name="braceright" format="2">
  <advance width="350"/>
  <unicode hex="007D"/>
  <outline>
    <contour>
      <point x="69" y="-138" type="qcurve" smooth="yes"/>
      <point x="-37" y="-138" type="line"/>
      <point x="-19" y="-49" type="line"/>
      <point x="62" y="-49" type="line"/>
      <point x="108" y="182" type="line"/>
      <point x="125" y="292"/>
      <point x="233" y="307" type="qcurve"/>
      <point x="234" y="315" type="line"/>
      <point x="157" y="331"/>
      <point x="157" y="410" type="qcurve" smooth="yes"/>
      <point x="157" y="422"/>
      <point x="162" y="450" type="qcurve" smooth="yes"/>
      <point x="206" y="671" type="line"/>
      <point x="124" y="671" type="line"/>
      <point x="142" y="760" type="line"/>
      <point x="239" y="760" type="line"/>
      <point x="273" y="759"/>
      <point x="314" y="725"/>
      <point x="314" y="690" type="qcurve" smooth="yes"/>
      <point x="314" y="674"/>
      <point x="312" y="664" type="qcurve" smooth="yes"/>
      <point x="268" y="445"/>
      <point x="268" y="440" type="qcurve"/>
      <point x="269" y="422" type="line" smooth="yes"/>
      <point x="273" y="361"/>
      <point x="344" y="361" type="qcurve"/>
      <point x="324" y="261" type="line"/>
      <point x="231" y="261"/>
      <point x="213" y="172" type="qcurve" smooth="yes"/>
      <point x="170" y="-45" type="line"/>
      <point x="150" y="-138"/>
    </contour>
  </outline>
</glyph>
<glyph name="asciitilde" format="2">
  <advance width="600"/>
  <unicode hex="007E"/>
  <outline>
    <contour>
      <point x="404" y="220" type="qcurve"/>
      <point x="368" y="220"/>
      <point x="316" y="241"/>
      <point x="280" y="261" type="qcurve"/>
      <point x="256" y="275"/>
      <point x="213" y="293"/>
      <point x="185" y="293" type="qcurve"/>
      <point x="160" y="293"/>
      <point x="123" y="278"/>
      <point x="100" y="262" type="qcurve"/>
      <point x="68" y="333" type="line"/>
      <point x="117" y="390"/>
      <point x="203" y="390" type="qcurve"/>
      <point x="232" y="390"/>
      <point x="272" y="379"/>
      <point x="326" y="345"/>
      <point x="390" y="318"/>
      <point x="423" y="318" type="qcurve"/>
      <point x="446" y="318"/>
      <point x="484" y="332"/>
      <point x="507" y="349" type="qcurve"/>
      <point x="540" y="277" type="line"/>
      <point x="513" y="249"/>
      <point x="448" y="220"/>
    </contour>
  </outline>
</glyph>
<glyph name="exclamdown" format="2">
  <advance width="298"/>
  <unicode hex="00A1"/>
  <outline>
    <contour>
      <point x="124" y="-176" type="line"/>
      <point x="-3" y="-176" type="line"/>
      <point x="37" y="22" type="line"/>
      <point x="132" y="315" type="line"/>
      <point x="185" y="315" type="line"/>
      <point x="163" y="22" type="line"/>
    </contour>
    <contour>
      <point x="171" y="374" type="qcurve"/>
      <point x="136" y="374"/>
      <point x="104" y="402"/>
      <point x="104" y="426" type="qcurve"/>
      <point x="104" y="534"/>
      <point x="196" y="534" type="qcurve"/>
      <point x="230" y="534"/>
      <point x="263" y="505"/>
      <point x="263" y="482" type="qcurve"/>
      <point x="263" y="376"/>
    </contour>
  </outline>
</glyph>
<glyph name="sterling" format="2">
  <advance width="586"/>
  <unicode hex="00A3"/>
  <outline>
    <contour>
      <point x="484" y="0" type="line"/>
      <point x="29" y="0" type="line"/>
      <point x="53" y="122" type="line"/>
      <point x="155" y="166"/>
      <point x="155" y="290" type="qcurve"/>
      <point x="59" y="290" type="line"/>
      <point x="79" y="389" type="line"/>
      <point x="145" y="389" type="line"/>
      <point x="140" y="420"/>
      <point x="140" y="453" type="qcurve" smooth="yes"/>
      <point x="140" y="524"/>
      <point x="205" y="641"/>
      <point x="324" y="710"/>
      <point x="404" y="710" type="qcurve" smooth="yes"/>
      <point x="553" y="710"/>
      <point x="613" y="591" type="qcurve"/>
      <point x="516" y="529" type="line"/>
      <point x="494" y="568"/>
      <point x="438" y="603"/>
      <point x="395" y="603" type="qcurve" smooth="yes"/>
      <point x="332" y="603"/>
      <point x="260" y="520"/>
      <point x="260" y="445" type="qcurve" smooth="yes"/>
      <point x="260" y="415"/>
      <point x="265" y="389" type="qcurve"/>
      <point x="462" y="389" type="line"/>
      <point x="442" y="290" type="line"/>
      <point x="276" y="290" type="line"/>
      <point x="270" y="222"/>
      <point x="211" y="133"/>
      <point x="172" y="113" type="qcurve"/>
      <point x="170" y="106" type="line"/>
      <point x="505" y="106" type="line"/>
    </contour>
  </outline>
</glyph>
<glyph name="yen" format="2">
  <advance width="614"/>
  <unicode hex="00A5"/>
  <outline>
    <contour>
      <point x="315" y="0" type="line"/>
      <point x="194" y="0" type="line"/>
      <point x="222" y="139" type="line"/>
      <point x="58" y="139" type="line"/>
      <point x="74" y="219" type="line"/>
      <point x="238" y="219" type="line"/>
      <point x="254" y="298" type="line"/>
      <point x="90" y="298" type="line"/>
      <point x="106" y="378" type="line"/>
      <point x="221" y="378" type="line"/>
      <point x="115" y="698" type="line"/>
      <point x="244" y="698" type="line"/>
      <point x="332" y="410" type="line"/>
      <point x="336" y="410" type="line"/>
      <point x="538" y="698" type="line"/>
      <point x="678" y="698" type="line"/>
      <point x="442" y="378" type="line"/>
      <point x="558" y="378" type="line"/>
      <point x="542" y="298" type="line"/>
      <point x="375" y="298" type="line"/>
      <point x="359" y="219" type="line"/>
      <point x="526" y="219" type="line"/>
      <point x="510" y="139" type="line"/>
      <point x="343" y="139" type="line"/>
    </contour>
  </outline>
</glyph>
<glyph name="section" format="2">
  <advance width="556"/>
  <unicode hex="00A7"/>
  <outline>
    <contour>
      <point x="203" y="-159" type="qcurve" smooth="yes"/>
      <point x="148" y="-159"/>
      <point x="51" y="-125"/>
      <point x="18" y="-90" type="qcurve"/>
      <point x="88" y="-20" type="line"/>
      <point x="129" y="-70"/>
      <point x="214" y="-70" type="qcurve" smooth="yes"/>
      <point x="247" y="-70"/>
      <point x="275" y="-53" type="qcurve" smooth="yes"/>
      <point x="308" y="-33"/>
      <point x="314" y="4" type="qcurve"/>
      <point x="315" y="21" type="line"/>
      <point x="312" y="71"/>
      <point x="245" y="90" type="qcurve"/>
      <point x="198" y="107"/>
      <point x="127" y="134"/>
      <point x="81" y="166"/>
      <point x="58" y="210"/>
      <point x="58" y="243" type="qcurve" smooth="yes"/>
      <point x="58" y="361"/>
      <point x="190" y="399" type="qcurve"/>
      <point x="192" y="409" type="line"/>
      <point x="138" y="451"/>
      <point x="138" y="521" type="qcurve" smooth="yes"/>
      <point x="138" y="605"/>
      <point x="202" y="659" type="qcurve" smooth="yes"/>
      <point x="262" y="710"/>
      <point x="357" y="710" type="qcurve" smooth="yes"/>
      <point x="476" y="710"/>
      <point x="543" y="640" type="qcurve"/>
      <point x="472" y="571" type="line"/>
      <point x="432" y="621"/>
      <point x="346" y="621" type="qcurve" smooth="yes"/>
      <point x="327" y="621"/>
      <point x="308" y="615" type="qcurve" smooth="yes"/>
      <point x="268" y="603"/>
      <point x="253" y="573" type="qcurve" smooth="yes"/>
      <point x="245" y="557"/>
      <point x="245" y="538" type="qcurve" smooth="yes"/>
      <point x="245" y="487"/>
      <point x="315" y="465" type="qcurve" smooth="yes"/>
      <point x="363" y="449"/>
      <point x="433" y="421"/>
      <point x="480" y="388"/>
      <point x="503" y="343"/>
      <point x="503" y="311" type="qcurve" smooth="yes"/>
      <point x="503" y="254"/>
      <point x="434" y="172"/>
      <point x="371" y="155" type="qcurve"/>
      <point x="370" y="154"/>
      <point x="370" y="152" type="qcurve"/>
      <point x="370" y="148" type="line"/>
      <point x="370" y="146"/>
      <point x="369" y="145" type="qcurve"/>
      <point x="423" y="104"/>
      <point x="423" y="33" type="qcurve" smooth="yes"/>
      <point x="423" y="-50"/>
      <point x="298" y="-159"/>
    </contour>
    <contour>
      <point x="332" y="167" type="line"/>
      <point x="397" y="211"/>
      <point x="397" y="271" type="qcurve" smooth="yes"/>
      <point x="397" y="337"/>
      <point x="314" y="359" type="qcurve"/>
      <point x="259" y="376" type="line" smooth="yes"/>
      <point x="238" y="382"/>
      <point x="229" y="388" type="qcurve"/>
      <point x="163" y="348"/>
      <point x="163" y="283" type="qcurve" smooth="yes"/>
      <point x="163" y="247"/>
      <point x="205" y="209"/>
      <point x="248" y="195" type="qcurve" smooth="yes"/>
    </contour>
  </outline>
</glyph>
<glyph name="dieresis" format="2">
  <advance width="588"/>
  <unicode hex="00A8"/>
  <outline>
    <contour>
      <point x="210" y="607" type="qcurve" smooth="yes"/>
      <point x="155" y="607"/>
      <point x="155" y="646" type="qcurve" smooth="yes"/>
      <point x="155" y="685"/>
      <point x="190" y="740"/>
      <point x="235" y="740" type="qcurve" smooth="yes"/>
      <point x="289" y="740"/>
      <point x="289" y="697" type="qcurve" smooth="yes"/>
      <point x="289" y="607"/>
    </contour>
    <contour>
      <point x="403" y="607" type="qcurve" smooth="yes"/>
      <point x="347" y="607"/>
      <point x="347" y="646" type="qcurve" smooth="yes"/>
      <point x="347" y="740"/>
      <point x="428" y="740" type="qcurve" smooth="yes"/>
      <point x="482" y="740"/>
      <point x="482" y="697" type="qcurve" smooth="yes"/>
      <point x="482" y="607"/>
    </contour>
  </outline>
</glyph>
<glyph name="degree" format="2">
  <advance width="457"/>
  <unicode hex="00B0"/>
  <outline>
    <contour>
      <point x="263" y="346" type="qcurve" smooth="yes"/>
      <point x="194" y="346"/>
      <point x="105" y="439"/>
      <point x="105" y="509" type="qcurve" smooth="yes"/>
      <point x="105" y="597"/>
      <point x="219" y="710"/>
      <point x="302" y="710" type="qcurve" smooth="yes"/>
      <point x="371" y="710"/>
      <point x="460" y="615"/>
      <point x="460" y="547" type="qcurve" smooth="yes"/>
      <point x="460" y="459"/>
      <point x="343" y="346"/>
    </contour>
    <contour>
      <point x="272" y="427" type="qcurve" smooth="yes"/>
      <point x="318" y="427"/>
      <point x="372" y="497"/>
      <point x="372" y="546" type="qcurve" smooth="yes"/>
      <point x="372" y="579"/>
      <point x="331" y="629"/>
      <point x="292" y="629" type="qcurve" smooth="yes"/>
      <point x="246" y="629"/>
      <point x="193" y="558"/>
      <point x="193" y="510" type="qcurve" smooth="yes"/>
      <point x="193" y="476"/>
      <point x="232" y="427"/>
    </contour>
  </outline>
</glyph>
<glyph name="plusminus" format="2">
  <advance width="600"/>
  <unicode hex="00B1"/>
  <outline>
    <contour>
      <point x="335" y="172" type="line"/>
      <point x="230" y="172" type="line"/>
      <point x="265" y="352" type="line"/>
      <point x="88" y="352" type="line"/>
      <point x="107" y="448" type="line"/>
      <point x="284" y="448" type="line"/>
      <point x="320" y="628" type="line"/>
      <point x="426" y="628" type="line"/>
      <point x="390" y="448" type="line"/>
      <point x="566" y="448" type="line"/>
      <point x="547" y="352" type="line"/>
      <point x="370" y="352" type="line"/>
    </contour>
    <contour>
      <point x="477" y="0" type="line"/>
      <point x="19" y="0" type="line"/>
      <point x="38" y="97" type="line"/>
      <point x="496" y="97" type="line"/>
    </contour>
  </outline>
</glyph>
<glyph name="twosuperior" format="2">
  <advance width="339"/>
  <unicode hex="00B2"/>
  <outline>
    <contour>
      <point x="314" y="329" type="line"/>
      <point x="40" y="329" type="line"/>
      <point x="55" y="405" type="line"/>
      <point x="195" y="499" type="line"/>
      <point x="236" y="526"/>
      <point x="268" y="566"/>
      <point x="271" y="595" type="qcurve"/>
      <point x="271" y="619"/>
      <point x="248" y="626" type="qcurve"/>
      <point x="237" y="631"/>
      <point x="224" y="631" type="qcurve"/>
      <point x="212" y="630" type="line"/>
      <point x="172" y="626"/>
      <point x="156" y="582" type="qcurve"/>
      <point x="86" y="610" type="line"/>
      <point x="128" y="704"/>
      <point x="231" y="704" type="qcurve"/>
      <point x="285" y="704"/>
      <point x="360" y="651"/>
      <point x="360" y="601" type="qcurve"/>
      <point x="360" y="554"/>
      <point x="321" y="513" type="qcurve"/>
      <point x="286" y="476"/>
      <point x="224" y="443" type="qcurve"/>
      <point x="153" y="397" type="line"/>
      <point x="327" y="397" type="line"/>
    </contour>
  </outline>
</glyph>
<glyph name="acute" format="2">
  <advance width="588"/>
  <unicode hex="00B4"/>
  <outline>
    <contour>
      <point x="319" y="581" type="line"/>
      <point x="249" y="619" type="line"/>
      <point x="362" y="802" type="line"/>
      <point x="457" y="751" type="line"/>
    </contour>
  </outline>
</glyph>
<glyph name="mu" format="2">
  <advance width="580"/>
  <unicode hex="00B5"/>
  <outline>
    <contour>
      <point x="98" y="-200" type="line"/>
      <point x="-17" y="-200" type="line"/>
      <point x="127" y="522" type="line"/>
      <point x="243" y="522" type="line"/>
      <point x="180" y="204" type="line"/>
      <point x="174" y="172"/>
      <point x="174" y="154" type="qcurve"/>
      <point x="174" y="87"/>
      <point x="233" y="87" type="qcurve"/>
      <point x="286" y="87"/>
      <point x="359" y="176"/>
      <point x="375" y="235" type="qcurve"/>
      <point x="433" y="522" type="line"/>
      <point x="548" y="522" type="line"/>
      <point x="463" y="95" type="line"/>
      <point x="527" y="95" type="line"/>
      <point x="509" y="0" type="line"/>
      <point x="423" y="0" type="line"/>
      <point x="348" y="0"/>
      <point x="345" y="75" type="qcurve"/>
      <point x="345" y="85"/>
      <point x="350" y="115" type="qcurve"/>
      <point x="345" y="115" type="line"/>
      <point x="318" y="52"/>
      <point x="251" y="-12"/>
      <point x="201" y="-12" type="qcurve"/>
      <point x="141" y="-12"/>
      <point x="128" y="41" type="qcurve"/>
      <point x="123" y="41" type="line"/>
      <point x="122" y="-81" type="line"/>
    </contour>
  </outline>
</glyph>
<glyph name="paragraph" format="2">
  <advance width="639"/>
  <unicode hex="00B6"/>
  <outline>
    <contour>
      <point x="428" y="-149" type="line"/>
      <point x="337" y="-149" type="line"/>
      <point x="489" y="609" type="line"/>
      <point x="390" y="609" type="line"/>
      <point x="238" y="-149" type="line"/>
      <point x="147" y="-149" type="line"/>
      <point x="233" y="278" type="line"/>
      <point x="166" y="278"/>
      <point x="76" y="390"/>
      <point x="76" y="462" type="qcurve" smooth="yes"/>
      <point x="76" y="561"/>
      <point x="220" y="698"/>
      <point x="326" y="698" type="qcurve" smooth="yes"/>
      <point x="659" y="698" type="line"/>
      <point x="641" y="609" type="line"/>
      <point x="580" y="609" type="line"/>
    </contour>
  </outline>
</glyph>
<glyph name="cedilla" format="2">
  <advance width="588"/>
  <unicode hex="00B8"/>
  <outline>
    <contour>
      <point x="272" y="-210" type="qcurve" smooth="yes"/>
      <point x="231" y="-210"/>
      <point x="177" y="-185"/>
      <point x="165" y="-167" type="qcurve"/>
      <point x="213" y="-120" type="line"/>
      <point x="218" y="-129"/>
      <point x="249" y="-147"/>
      <point x="271" y="-147" type="qcurve"/>
      <point x="320" y="-144"/>
      <point x="320" y="-114" type="qcurve" smooth="yes"/>
      <point x="320" y="-82"/>
      <point x="258" y="-76" type="qcurve" smooth="yes"/>
      <point x="235" y="-74" type="line"/>
      <point x="273" y="26" type="line"/>
      <point x="333" y="26" type="line"/>
      <point x="301" y="-58" type="line"/>
      <point x="303" y="-61" type="line"/>
      <point x="321" y="-55"/>
      <point x="342" y="-55" type="qcurve" smooth="yes"/>
      <point x="366" y="-55"/>
      <point x="403" y="-81"/>
      <point x="403" y="-111" type="qcurve" smooth="yes"/>
      <point x="403" y="-160"/>
      <point x="326" y="-210"/>
    </contour>
  </outline>
</glyph>
<glyph name="guillemetright" format="2">
  <advance width="538"/>
  <unicode hex="00BB"/>
  <outline>
    <contour>
      <point x="278" y="61" type="line"/>
      <point x="248" y="141" type="line"/>
      <point x="403" y="283" type="line"/>
      <point x="305" y="421" type="line"/>
      <point x="353" y="493" type="line"/>
      <point x="508" y="328" type="line"/>
      <point x="486" y="221" type="line"/>
    </contour>
    <contour>
      <point x="47" y="61" type="line"/>
      <point x="16" y="141" type="line"/>
      <point x="172" y="283" type="line"/>
      <point x="74" y="421" type="line"/>
      <point x="122" y="493" type="line"/>
      <point x="277" y="328" type="line"/>
      <point x="255" y="221" type="line"/>
    </contour>
  </outline>
</glyph>
<glyph name="onehalf" format="2">
  <advance width="824"/>
  <unicode hex="00BD"/>
  <outline>
    <contour>
      <point x="142" y="0" type="line"/>
      <point x="43" y="0" type="line"/>
      <point x="682" y="698" type="line"/>
      <point x="780" y="698" type="line"/>
    </contour>
    <contour>
      <point x="238" y="329" type="line"/>
      <point x="157" y="329" type="line"/>
      <point x="215" y="621" type="line"/>
      <point x="126" y="576" type="line"/>
      <point x="142" y="657" type="line"/>
      <point x="226" y="698" type="line"/>
      <point x="312" y="698" type="line"/>
    </contour>
    <contour>
      <point x="733" y="0" type="line"/>
      <point x="460" y="0" type="line"/>
      <point x="475" y="76" type="line"/>
      <point x="638" y="186"/>
      <point x="650" y="195" type="qcurve" smooth="yes"/>
      <point x="673" y="213"/>
      <point x="684" y="238" type="qcurve"/>
      <point x="688" y="250"/>
      <point x="691" y="266" type="qcurve"/>
      <point x="691" y="281"/>
      <point x="682" y="290" type="qcurve" smooth="yes"/>
      <point x="668" y="302"/>
      <point x="651" y="303" type="qcurve"/>
      <point x="595" y="303"/>
      <point x="576" y="253" type="qcurve"/>
      <point x="505" y="281" type="line"/>
      <point x="548" y="375"/>
      <point x="651" y="375" type="qcurve" smooth="yes"/>
      <point x="704" y="375"/>
      <point x="742" y="348" type="qcurve"/>
      <point x="779" y="319"/>
      <point x="779" y="272" type="qcurve" smooth="yes"/>
      <point x="779" y="225"/>
      <point x="740" y="184" type="qcurve" smooth="yes"/>
      <point x="705" y="147"/>
      <point x="643" y="114" type="qcurve"/>
      <point x="572" y="68" type="line"/>
      <point x="747" y="68" type="line"/>
    </contour>
  </outline>
</glyph>
<glyph name="threequarters" format="2">
  <advance width="856"/>
  <unicode hex="00BE"/>
  <outline>
    <contour>
      <point x="173" y="323" type="qcurve"/>
      <point x="66" y="323"/>
      <point x="38" y="395" type="qcurve"/>
      <point x="98" y="437" type="line"/>
      <point x="117" y="389"/>
      <point x="174" y="389" type="qcurve"/>
      <point x="228" y="389"/>
      <point x="241" y="436" type="qcurve"/>
      <point x="243" y="449" type="line"/>
      <point x="243" y="486"/>
      <point x="188" y="486" type="qcurve"/>
      <point x="147" y="486" type="line"/>
      <point x="160" y="552" type="line"/>
      <point x="200" y="552" type="line"/>
      <point x="262" y="552"/>
      <point x="268" y="590" type="qcurve"/>
      <point x="270" y="605" type="line"/>
      <point x="269" y="619"/>
      <point x="245" y="639"/>
      <point x="222" y="639" type="qcurve"/>
      <point x="178" y="639"/>
      <point x="139" y="594" type="qcurve"/>
      <point x="93" y="644" type="line"/>
      <point x="119" y="672"/>
      <point x="185" y="704"/>
      <point x="232" y="704" type="qcurve"/>
      <point x="293" y="704"/>
      <point x="355" y="653"/>
      <point x="355" y="614" type="qcurve"/>
      <point x="355" y="575"/>
      <point x="307" y="529"/>
      <point x="267" y="521" type="qcurve"/>
      <point x="267" y="519" type="line"/>
      <point x="329" y="505"/>
      <point x="329" y="445" type="qcurve"/>
      <point x="329" y="393"/>
      <point x="249" y="323"/>
    </contour>
    <contour>
      <point x="170" y="0" type="line"/>
      <point x="72" y="0" type="line"/>
      <point x="711" y="698" type="line"/>
      <point x="809" y="698" type="line"/>
    </contour>
    <contour>
      <point x="694" y="0" type="line"/>
      <point x="614" y="0" type="line"/>
      <point x="628" y="71" type="line"/>
      <point x="454" y="71" type="line"/>
      <point x="468" y="142" type="line"/>
      <point x="670" y="369" type="line"/>
      <point x="768" y="369" type="line"/>
      <point x="720" y="133" type="line"/>
      <point x="768" y="133" type="line"/>
      <point x="755" y="71" type="line"/>
      <point x="708" y="71" type="line"/>
    </contour>
    <contour>
      <point x="641" y="133" type="line"/>
      <point x="669" y="274" type="line"/>
      <point x="664" y="274" type="line"/>
      <point x="538" y="133" type="line"/>
    </contour>
  </outline>
</glyph>
<glyph name="Eacute" format="2">
  <advance width="573"/>
  <unicode hex="00C9"/>
  <outline>
    <contour>
      <point x="476" y="0" type="line"/>
      <point x="29" y="0" type="line"/>
      <point x="169" y="698" type="line"/>
      <point x="603" y="698" type="line"/>
      <point x="581" y="591" type="line"/>
      <point x="268" y="591" type="line"/>
      <point x="231" y="406" type="line"/>
      <point x="510" y="406" type="line"/>
      <point x="488" y="299" type="line"/>
      <point x="210" y="299" type="line"/>
      <point x="171" y="107" type="line"/>
      <point x="497" y="107" type="line"/>
    </contour>
    <contour>
      <point x="409" y="746" type="line"/>
      <point x="339" y="784" type="line"/>
      <point x="452" y="966" type="line"/>
      <point x="547" y="916" type="line"/>
    </contour>
  </outline>
</glyph>
<glyph name="Eth" format="2">
  <advance width="675"/>
  <unicode hex="00D0"/>
  <outline>
    <contour>
      <point x="287" y="0" type="qcurve"/>
      <point x="33" y="0" type="line"/>
      <point x="96" y="312" type="line"/>
      <point x="20" y="312" type="line"/>
      <point x="39" y="405" type="line"/>
      <point x="114" y="405" type="line"/>
      <point x="173" y="698" type="line"/>
      <point x="390" y="698" type="line"/>
      <point x="466" y="698"/>
      <point x="581" y="642"/>
      <point x="646" y="525"/>
      <point x="646" y="433" type="qcurve"/>
      <point x="646" y="316"/>
      <point x="562" y="119"/>
      <point x="401" y="0"/>
    </contour>
    <contour>
      <point x="296" y="107" type="line"/>
      <point x="367" y="107"/>
      <point x="476" y="195"/>
      <point x="497" y="293" type="qcurve"/>
      <point x="507" y="343" type="line"/>
      <point x="515" y="383"/>
      <point x="523" y="429"/>
      <point x="523" y="453" type="qcurve"/>
      <point x="523" y="591"/>
      <point x="384" y="591" type="qcurve"/>
      <point x="272" y="591" type="line"/>
      <point x="235" y="405" type="line"/>
      <point x="356" y="405" type="line"/>
      <point x="337" y="312" type="line"/>
      <point x="216" y="312" type="line"/>
      <point x="175" y="107" type="line"/>
    </contour>
  </outline>
</glyph>
<glyph name="multiply" format="2">
  <advance width="600"/>
  <unicode hex="00D7"/>
  <outline>
    <contour>
      <point x="128" y="82" type="line"/>
      <point x="66" y="156" type="line"/>
      <point x="242" y="310" type="line"/>
      <point x="127" y="461" type="line"/>
      <point x="207" y="528" type="line"/>
      <point x="321" y="377" type="line"/>
      <point x="495" y="528" type="line"/>
      <point x="557" y="454" type="line"/>
      <point x="381" y="300" type="line"/>
      <point x="495" y="150" type="line"/>
      <point x="415" y="83" type="line"/>
      <point x="302" y="233" type="line"/>
    </contour>
  </outline>
</glyph>
<glyph name="Ucircumflex" format="2">
  <advance width="669"/>
  <unicode hex="00DB"/>
  <outline>
    <contour>
      <point x="312" y="747" type="line"/>
      <point x="253" y="795" type="line"/>
      <point x="403" y="947" type="line"/>
      <point x="514" y="947" type="line"/>
      <point x="607" y="795" type="line"/>
      <point x="544" y="748" type="line"/>
      <point x="448" y="863" type="line"/>
    </contour>
    <contour>
      <point x="297" y="-12" type="qcurve" smooth="yes"/>
      <point x="184" y="-12"/>
      <point x="76" y="103"/>
      <point x="76" y="205" type="qcurve" smooth="yes"/>
      <point x="76" y="247"/>
      <point x="86" y="300" type="qcurve" smooth="yes"/>
      <point x="165" y="698" type="line"/>
      <point x="285" y="698" type="line"/>
      <point x="201" y="278" type="line" smooth="yes"/>
      <point x="193" y="240"/>
      <point x="193" y="211" type="qcurve"/>
      <point x="196" y="99"/>
      <point x="305" y="99" type="qcurve" smooth="yes"/>
      <point x="376" y="99"/>
      <point x="456" y="185"/>
      <point x="473" y="275" type="qcurve"/>
      <point x="526" y="542"/>
      <point x="558" y="698" type="qcurve"/>
      <point x="677" y="698" type="line"/>
      <point x="593" y="276" type="line"/>
      <point x="564" y="124"/>
      <point x="425" y="-12"/>
    </contour>
  </outline>
</glyph>
<glyph name="germandbls" format="2">
  <advance width="658"/>
  <unicode hex="00DF"/>
  <outline>
    <contour>
      <point x="412" y="-12" type="qcurve"/>
      <point x="351" y="-12"/>
      <point x="256" y="30"/>
      <point x="229" y="72" type="qcurve"/>
      <point x="303" y="138" type="line"/>
      <point x="344" y="81"/>
      <point x="414" y="81" type="qcurve"/>
      <point x="496" y="84"/>
      <point x="501" y="152" type="qcurve"/>
      <point x="502" y="163" type="line"/>
      <point x="500" y="182"/>
      <point x="481" y="205"/>
      <point x="461" y="214" type="qcurve"/>
      <point x="409" y="239" type="line"/>
      <point x="316" y="273"/>
      <point x="316" y="363" type="qcurve"/>
      <point x="316" y="425"/>
      <point x="409" y="517"/>
      <point x="504" y="527" type="qcurve"/>
      <point x="510" y="565"/>
      <point x="510" y="574" type="qcurve"/>
      <point x="507" y="659"/>
      <point x="410" y="659" type="qcurve"/>
      <point x="346" y="659"/>
      <point x="277" y="595"/>
      <point x="264" y="530" type="qcurve"/>
      <point x="220" y="325"/>
      <point x="181" y="121" type="qcurve"/>
      <point x="158" y="0" type="line"/>
      <point x="42" y="0" type="line"/>
      <point x="127" y="425" type="line"/>
      <point x="49" y="425" type="line"/>
      <point x="68" y="522" type="line"/>
      <point x="147" y="522" type="line"/>
      <point x="170" y="644"/>
      <point x="248" y="700" type="qcurve"/>
      <point x="320" y="752"/>
      <point x="418" y="752" type="qcurve"/>
      <point x="512" y="752"/>
      <point x="622" y="657"/>
      <point x="622" y="581" type="qcurve"/>
      <point x="622" y="539"/>
      <point x="606" y="467" type="qcurve"/>
      <point x="601" y="444" type="line"/>
      <point x="537" y="444" type="line"/>
      <point x="425" y="444"/>
      <point x="425" y="383" type="qcurve"/>
      <point x="425" y="361"/>
      <point x="452" y="331"/>
      <point x="479" y="320" type="qcurve"/>
      <point x="518" y="303" type="line"/>
      <point x="559" y="287"/>
      <point x="612" y="232"/>
      <point x="612" y="176" type="qcurve"/>
      <point x="612" y="97"/>
      <point x="502" y="-12"/>
    </contour>
  </outline>
</glyph>
<glyph name="atilde" format="2">
  <advance width="588"/>
  <unicode hex="00E3"/>
  <outline>
    <contour>
      <point x="185" y="-12" type="qcurve"/>
      <point x="149" y="-12"/>
      <point x="94" y="16"/>
      <point x="57" y="65"/>
      <point x="38" y="134"/>
      <point x="38" y="176" type="qcurve"/>
      <point x="38" y="244"/>
      <point x="72" y="373"/>
      <point x="135" y="472"/>
      <point x="228" y="534"/>
      <point x="286" y="534" type="qcurve"/>
      <point x="337" y="534"/>
      <point x="410" y="478"/>
      <point x="418" y="433" type="qcurve"/>
      <point x="423" y="433" type="line"/>
      <point x="440" y="522" type="line"/>
      <point x="556" y="522" type="line"/>
      <point x="471" y="95" type="line"/>
      <point x="535" y="95" type="line"/>
      <point x="516" y="0" type="line"/>
      <point x="433" y="0" type="line"/>
      <point x="360" y="2"/>
      <point x="354" y="62" type="qcurve"/>
      <point x="353" y="76" type="line"/>
      <point x="356" y="105"/>
      <point x="359" y="118" type="qcurve"/>
      <point x="355" y="118" type="line"/>
      <point x="324" y="54"/>
      <point x="247" y="-12"/>
    </contour>
    <contour>
      <point x="235" y="86" type="qcurve"/>
      <point x="286" y="86"/>
      <point x="370" y="178"/>
      <point x="385" y="247" type="qcurve"/>
      <point x="396" y="304" type="line"/>
      <point x="406" y="352"/>
      <point x="406" y="359" type="qcurve"/>
      <point x="406" y="390"/>
      <point x="356" y="436"/>
      <point x="310" y="436" type="qcurve"/>
      <point x="204" y="436"/>
      <point x="177" y="304" type="qcurve"/>
      <point x="170" y="270" type="line"/>
      <point x="157" y="216"/>
      <point x="157" y="177" type="qcurve"/>
      <point x="159" y="86"/>
    </contour>
    <contour>
      <point x="425" y="605" type="qcurve"/>
      <point x="403" y="605"/>
      <point x="372" y="616"/>
      <point x="357" y="624" type="qcurve"/>
      <point x="340" y="632" type="line"/>
      <point x="305" y="651"/>
      <point x="280" y="651" type="qcurve"/>
      <point x="264" y="651"/>
      <point x="240" y="638"/>
      <point x="222" y="625" type="qcurve"/>
      <point x="184" y="682" type="line"/>
      <point x="230" y="741"/>
      <point x="293" y="741" type="qcurve"/>
      <point x="329" y="741"/>
      <point x="385" y="711" type="qcurve"/>
      <point x="414" y="696"/>
      <point x="438" y="696" type="qcurve"/>
      <point x="454" y="696"/>
      <point x="478" y="707"/>
      <point x="496" y="721" type="qcurve"/>
      <point x="534" y="664" type="line"/>
      <point x="487" y="605"/>
    </contour>
  </outline>
</glyph>
<glyph name="aring" format="2">
  <advance width="588"/>
  <unicode hex="00E5"/>
  <outline>
    <contour>
      <point x="341" y="565" type="qcurve" smooth="yes"/>
      <point x="288" y="565"/>
      <point x="224" y="628"/>
      <point x="224" y="678" type="qcurve" smooth="yes"/>
      <point x="224" y="746"/>
      <point x="313" y="829"/>
      <point x="376" y="829" type="qcurve" smooth="yes"/>
      <point x="425" y="829"/>
      <point x="493" y="769"/>
      <point x="493" y="716" type="qcurve" smooth="yes"/>
      <point x="493" y="644"/>
      <point x="401" y="565"/>
    </contour>
    <contour>
      <point x="347" y="629" type="qcurve" smooth="yes"/>
      <point x="382" y="629"/>
      <point x="414" y="686"/>
      <point x="414" y="726" type="qcurve" smooth="yes"/>
      <point x="414" y="765"/>
      <point x="370" y="765" type="qcurve" smooth="yes"/>
      <point x="343" y="765"/>
      <point x="314" y="733"/>
      <point x="303" y="689"/>
      <point x="303" y="670" type="qcurve" smooth="yes"/>
      <point x="303" y="629"/>
    </contour>
    <contour>
      <point x="185" y="-12" type="qcurve" smooth="yes"/>
      <point x="149" y="-12"/>
      <point x="94" y="16"/>
      <point x="57" y="65"/>
      <point x="38" y="134"/>
      <point x="38" y="176" type="qcurve" smooth="yes"/>
      <point x="38" y="244"/>
      <point x="72" y="373"/>
      <point x="135" y="472"/>
      <point x="228" y="534"/>
      <point x="286" y="534" type="qcurve" smooth="yes"/>
      <point x="337" y="534"/>
      <point x="410" y="478"/>
      <point x="418" y="433" type="qcurve"/>
      <point x="423" y="433" type="line"/>
      <point x="440" y="522" type="line"/>
      <point x="556" y="522" type="line"/>
      <point x="471" y="95" type="line"/>
      <point x="535" y="95" type="line"/>
      <point x="516" y="0" type="line"/>
      <point x="433" y="0" type="line"/>
      <point x="360" y="2"/>
      <point x="354" y="62" type="qcurve"/>
      <point x="353" y="76" type="line"/>
      <point x="356" y="105"/>
      <point x="359" y="118" type="qcurve"/>
      <point x="355" y="118" type="line"/>
      <point x="324" y="54"/>
      <point x="247" y="-12"/>
    </contour>
    <contour>
      <point x="235" y="86" type="qcurve" smooth="yes"/>
      <point x="286" y="86"/>
      <point x="370" y="178"/>
      <point x="385" y="247" type="qcurve"/>
      <point x="396" y="304" type="line" smooth="yes"/>
      <point x="406" y="352"/>
      <point x="406" y="359" type="qcurve" smooth="yes"/>
      <point x="406" y="390"/>
      <point x="356" y="436"/>
      <point x="310" y="436" type="qcurve" smooth="yes"/>
      <point x="204" y="436"/>
      <point x="177" y="304" type="qcurve" smooth="yes"/>
      <point x="170" y="270" type="line"/>
      <point x="157" y="216"/>
      <point x="157" y="177" type="qcurve"/>
      <point x="159" y="86"/>
    </contour>
  </outline>
</glyph>
<glyph name="edieresis" format="2">
  <advance width="513"/>
  <unicode hex="00EB"/>
  <outline>
    <contour>
      <point x="250" y="-12" type="qcurve"/>
      <point x="139" y="-12"/>
      <point x="38" y="109"/>
      <point x="38" y="210" type="qcurve"/>
      <point x="38" y="285"/>
      <point x="100" y="434"/>
      <point x="224" y="534"/>
      <point x="317" y="534" type="qcurve"/>
      <point x="391" y="534"/>
      <point x="497" y="460"/>
      <point x="497" y="390" type="qcurve"/>
      <point x="497" y="304"/>
      <point x="325" y="218"/>
      <point x="156" y="213" type="qcurve"/>
      <point x="155" y="203" type="line"/>
      <point x="153" y="192"/>
      <point x="153" y="183" type="qcurve"/>
      <point x="153" y="84"/>
      <point x="258" y="84" type="qcurve"/>
      <point x="341" y="84"/>
      <point x="397" y="161" type="qcurve"/>
      <point x="470" y="101" type="line"/>
      <point x="423" y="43"/>
      <point x="317" y="-12"/>
    </contour>
    <contour>
      <point x="169" y="291" type="line"/>
      <point x="292" y="296"/>
      <point x="383" y="338"/>
      <point x="383" y="382" type="qcurve"/>
      <point x="383" y="443"/>
      <point x="309" y="443" type="qcurve"/>
      <point x="199" y="443"/>
      <point x="170" y="299" type="qcurve"/>
    </contour>
    <contour>
      <point x="241" y="607" type="qcurve"/>
      <point x="185" y="607"/>
      <point x="185" y="646" type="qcurve"/>
      <point x="185" y="740"/>
      <point x="266" y="740" type="qcurve"/>
      <point x="320" y="740"/>
      <point x="320" y="697" type="qcurve"/>
      <point x="320" y="607"/>
    </contour>
    <contour>
      <point x="434" y="607" type="qcurve"/>
      <point x="378" y="607"/>
      <point x="378" y="646" type="qcurve"/>
      <point x="378" y="685"/>
      <point x="413" y="740"/>
      <point x="458" y="740" type="qcurve"/>
      <point x="513" y="740"/>
      <point x="513" y="698" type="qcurve"/>
      <point x="513" y="607"/>
    </contour>
  </outline>
</glyph>
<glyph name="icircumflex" format="2">
  <advance width="274"/>
  <unicode hex="00EE"/>
  <outline>
    <contour>
      <point x="203" y="0" type="line"/>
      <point x="121" y="0" type="line"/>
      <point x="79" y="0"/>
      <point x="39" y="41"/>
      <point x="39" y="74" type="qcurve"/>
      <point x="39" y="80"/>
      <point x="127" y="522" type="qcurve"/>
      <point x="243" y="522" type="line"/>
      <point x="157" y="95" type="line"/>
      <point x="222" y="95" type="line"/>
    </contour>
    <contour>
      <point x="315" y="583" type="line"/>
      <point x="219" y="699" type="line"/>
      <point x="83" y="584" type="line"/>
      <point x="25" y="631" type="line"/>
      <point x="174" y="783" type="line"/>
      <point x="285" y="783" type="line"/>
      <point x="378" y="631" type="line"/>
    </contour>
  </outline>
</glyph>
<glyph name="eth" format="2">
  <advance width="569"/>
  <unicode hex="00F0"/>
  <outline>
    <contour>
      <point x="240" y="-12" type="qcurve"/>
      <point x="138" y="-12"/>
      <point x="38" y="108"/>
      <point x="38" y="206" type="qcurve"/>
      <point x="38" y="327"/>
      <point x="173" y="501"/>
      <point x="271" y="501" type="qcurve"/>
      <point x="373" y="501"/>
      <point x="406" y="404" type="qcurve"/>
      <point x="413" y="405" type="line"/>
      <point x="396" y="511"/>
      <point x="338" y="594" type="qcurve"/>
      <point x="238" y="539" type="line"/>
      <point x="208" y="594" type="line"/>
      <point x="297" y="644" type="line"/>
      <point x="237" y="705"/>
      <point x="180" y="740" type="qcurve"/>
      <point x="344" y="740" type="line"/>
      <point x="371" y="720"/>
      <point x="392" y="696" type="qcurve"/>
      <point x="489" y="752" type="line"/>
      <point x="519" y="695" type="line"/>
      <point x="435" y="648" type="line"/>
      <point x="526" y="524"/>
      <point x="526" y="349" type="qcurve"/>
      <point x="526" y="235"/>
      <point x="451" y="73"/>
      <point x="321" y="-12"/>
    </contour>
    <contour>
      <point x="250" y="81" type="qcurve"/>
      <point x="299" y="81"/>
      <point x="359" y="147"/>
      <point x="394" y="267"/>
      <point x="394" y="310" type="qcurve"/>
      <point x="394" y="405"/>
      <point x="298" y="408" type="qcurve"/>
      <point x="247" y="408"/>
      <point x="183" y="335"/>
      <point x="170" y="275" type="qcurve"/>
      <point x="159" y="219" type="line"/>
      <point x="154" y="197"/>
      <point x="154" y="179" type="qcurve"/>
      <point x="154" y="130"/>
      <point x="206" y="81"/>
    </contour>
  </outline>
</glyph>
<glyph name="ntilde" format="2">
  <advance width="578"/>
  <unicode hex="00F1"/>
  <outline>
    <contour>
      <point x="509" y="0" type="line"/>
      <point x="426" y="0" type="line"/>
      <point x="350" y="2"/>
      <point x="350" y="69" type="qcurve"/>
      <point x="350" y="101"/>
      <point x="363" y="151" type="qcurve"/>
      <point x="374" y="203" type="line"/>
      <point x="403" y="326"/>
      <point x="403" y="369" type="qcurve"/>
      <point x="403" y="435"/>
      <point x="340" y="435" type="qcurve"/>
      <point x="304" y="435"/>
      <point x="242" y="387"/>
      <point x="201" y="315"/>
      <point x="194" y="277" type="qcurve"/>
      <point x="139" y="0" type="line"/>
      <point x="23" y="0" type="line"/>
      <point x="127" y="522" type="line"/>
      <point x="243" y="522" type="line"/>
      <point x="220" y="407" type="line"/>
      <point x="226" y="407" type="line"/>
      <point x="254" y="468"/>
      <point x="335" y="534"/>
      <point x="394" y="534" type="qcurve"/>
      <point x="461" y="534"/>
      <point x="522" y="457"/>
      <point x="522" y="395" type="qcurve"/>
      <point x="522" y="355"/>
      <point x="512" y="313" type="qcurve"/>
      <point x="468" y="95" type="line"/>
      <point x="528" y="95" type="line"/>
    </contour>
    <contour>
      <point x="436" y="605" type="qcurve"/>
      <point x="414" y="605"/>
      <point x="383" y="616"/>
      <point x="368" y="624" type="qcurve"/>
      <point x="351" y="632" type="line"/>
      <point x="316" y="651"/>
      <point x="291" y="651" type="qcurve"/>
      <point x="275" y="651"/>
      <point x="251" y="638"/>
      <point x="233" y="625" type="qcurve"/>
      <point x="195" y="682" type="line"/>
      <point x="241" y="741"/>
      <point x="304" y="741" type="qcurve"/>
      <point x="340" y="741"/>
      <point x="396" y="711" type="qcurve"/>
      <point x="425" y="696"/>
      <point x="449" y="696" type="qcurve"/>
      <point x="465" y="696"/>
      <point x="489" y="707"/>
      <point x="507" y="721" type="qcurve"/>
      <point x="545" y="664" type="line"/>
      <point x="498" y="605"/>
    </contour>
  </outline>
</glyph>
<glyph name="yacute" format="2">
  <advance width="500"/>
  <unicode hex="00FD"/>
  <outline>
    <contour>
      <point x="53" y="-200" type="qcurve"/>
      <point x="-26" y="-200" type="line"/>
      <point x="-7" y="-105" type="line"/>
      <point x="89" y="-105" type="line"/>
      <point x="131" y="-25" type="line"/>
      <point x="54" y="522" type="line"/>
      <point x="168" y="522" type="line"/>
      <point x="185" y="381" type="line"/>
      <point x="190" y="345"/>
      <point x="195" y="299"/>
      <point x="213" y="109" type="qcurve"/>
      <point x="219" y="109" type="line"/>
      <point x="301" y="284" type="line"/>
      <point x="316" y="318"/>
      <point x="352" y="388" type="qcurve"/>
      <point x="419" y="522" type="line"/>
      <point x="543" y="522" type="line"/>
      <point x="210" y="-97" type="line"/>
      <point x="182" y="-151"/>
      <point x="113" y="-200"/>
    </contour>
    <contour>
      <point x="317" y="581" type="line"/>
      <point x="247" y="619" type="line"/>
      <point x="360" y="802" type="line"/>
      <point x="455" y="751" type="line"/>
    </contour>
  </outline>
</glyph>
<glyph name="thorn" format="2">
  <advance width="580"/>
  <unicode hex="00FE"/>
  <outline>
    <contour>
      <point x="99" y="-200" type="line"/>
      <point x="-17" y="-200" type="line"/>
      <point x="171" y="740" type="line"/>
      <point x="287" y="740" type="line"/>
      <point x="220" y="404" type="line"/>
      <point x="224" y="404" type="line"/>
      <point x="253" y="467"/>
      <point x="333" y="534"/>
      <point x="394" y="534" type="qcurve"/>
      <point x="468" y="534"/>
      <point x="541" y="428"/>
      <point x="541" y="346" type="qcurve"/>
      <point x="541" y="249"/>
      <point x="477" y="86"/>
      <point x="365" y="-12"/>
      <point x="293" y="-12" type="qcurve"/>
      <point x="242" y="-12"/>
      <point x="170" y="38"/>
      <point x="161" y="88" type="qcurve"/>
      <point x="156" y="88" type="line"/>
    </contour>
    <contour>
      <point x="269" y="86" type="qcurve"/>
      <point x="377" y="86"/>
      <point x="402" y="218" type="qcurve"/>
      <point x="406" y="245"/>
      <point x="411" y="268" type="qcurve"/>
      <point x="422" y="303"/>
      <point x="422" y="345" type="qcurve"/>
      <point x="421" y="384"/>
      <point x="384" y="436"/>
      <point x="344" y="436" type="qcurve"/>
      <point x="291" y="436"/>
      <point x="209" y="343"/>
      <point x="194" y="275" type="qcurve"/>
      <point x="174" y="174" type="line"/>
      <point x="174" y="151"/>
      <point x="184" y="119"/>
      <point x="199" y="107" type="qcurve"/>
      <point x="224" y="86"/>
    </contour>
  </outline>
</glyph>
<glyph name="ydieresis" format="2">
  <advance width="500"/>
  <unicode hex="00FF"/>
  <outline>
    <contour>
      <point x="53" y="-200" type="qcurve"/>
      <point x="-26" y="-200" type="line"/>
      <point x="-7" y="-105" type="line"/>
      <point x="89" y="-105" type="line"/>
      <point x="131" y="-25" type="line"/>
      <point x="54" y="522" type="line"/>
      <point x="168" y="522" type="line"/>
      <point x="185" y="381" type="line"/>
      <point x="190" y="345"/>
      <point x="195" y="299"/>
      <point x="213" y="109" type="qcurve"/>
      <point x="219" y="109" type="line"/>
      <point x="301" y="284" type="line"/>
      <point x="316" y="318"/>
      <point x="352" y="388" type="qcurve"/>
      <point x="419" y="522" type="line"/>
      <point x="543" y="522" type="line"/>
      <point x="210" y="-97" type="line"/>
      <point x="182" y="-151"/>
      <point x="113" y="-200"/>
    </contour>
    <contour>
      <point x="208" y="607" type="qcurve"/>
      <point x="153" y="607"/>
      <point x="153" y="646" type="qcurve"/>
      <point x="153" y="685"/>
      <point x="188" y="740"/>
      <point x="233" y="740" type="qcurve"/>
      <point x="287" y="740"/>
      <point x="287" y="697" type="qcurve"/>
      <point x="287" y="607"/>
    </contour>
    <contour>
      <point x="401" y="607" type="qcurve"/>
      <point x="345" y="607"/>
      <point x="345" y="646" type="qcurve"/>
      <point x="345" y="740"/>
      <point x="426" y="740" type="qcurve"/>
      <point x="480" y="740"/>
      <point x="480" y="697" type="qcurve"/>
      <point x="480" y="607"/>
    </contour>
  </outline>
</glyph>
<glyph name="Amacron" format="2">
  <advance width="645"/>
  <unicode hex="0100"/>
  <outline>
    <contour>
      <point x="573" y="0" type="line"/>
      <point x="450" y="0" type="line"/>
      <point x="430" y="183" type="line"/>
      <point x="189" y="183" type="line"/>
      <point x="97" y="0" type="line"/>
      <point x="-32" y="0" type="line"/>
      <point x="333" y="698" type="line"/>
      <point x="488" y="698" type="line"/>
    </contour>
    <contour>
      <point x="421" y="286" type="line"/>
      <point x="392" y="588" type="line"/>
      <point x="385" y="588" type="line"/>
      <point x="238" y="286" type="line"/>
    </contour>
    <contour>
      <point x="562" y="795" type="line"/>
      <point x="286" y="795" type="line"/>
      <point x="304" y="883" type="line"/>
      <point x="579" y="883" type="line"/>
    </contour>
  </outline>
</glyph>
<glyph name="Abreve" format="2">
  <advance width="645"/>
  <unicode hex="0102"/>
  <outline>
    <contour>
      <point x="573" y="0" type="line"/>
      <point x="450" y="0" type="line"/>
      <point x="430" y="183" type="line"/>
      <point x="189" y="183" type="line"/>
      <point x="97" y="0" type="line"/>
      <point x="-32" y="0" type="line"/>
      <point x="333" y="698" type="line"/>
      <point x="488" y="698" type="line"/>
    </contour>
    <contour>
      <point x="421" y="286" type="line"/>
      <point x="392" y="588" type="line"/>
      <point x="385" y="588" type="line"/>
      <point x="238" y="286" type="line"/>
    </contour>
    <contour>
      <point x="420" y="750" type="qcurve"/>
      <point x="371" y="750"/>
      <point x="306" y="796"/>
      <point x="270" y="866"/>
      <point x="265" y="906" type="qcurve"/>
      <point x="332" y="940" type="line"/>
      <point x="341" y="920" type="line"/>
      <point x="359" y="877"/>
      <point x="394" y="835"/>
      <point x="426" y="835" type="qcurve"/>
      <point x="461" y="835"/>
      <point x="509" y="884"/>
      <point x="542" y="932" type="qcurve"/>
      <point x="548" y="940" type="line"/>
      <point x="618" y="904" type="line"/>
      <point x="599" y="863"/>
      <point x="542" y="794"/>
      <point x="467" y="750"/>
    </contour>
  </outline>
</glyph>
<glyph name="Aogonek" format="2">
  <advance width="645"/>
  <unicode hex="0104"/>
  <outline>
    <contour>
      <point x="475" y="-210" type="qcurve" smooth="yes"/>
      <point x="434" y="-210"/>
      <point x="365" y="-173"/>
      <point x="365" y="-130" type="qcurve" smooth="yes"/>
      <point x="365" y="-46"/>
      <point x="497" y="-5" type="qcurve"/>
      <point x="496" y="0" type="line"/>
      <point x="450" y="0" type="line"/>
      <point x="430" y="183" type="line"/>
      <point x="189" y="183" type="line"/>
      <point x="97" y="0" type="line"/>
      <point x="-32" y="0" type="line"/>
      <point x="333" y="698" type="line"/>
      <point x="488" y="698" type="line"/>
      <point x="573" y="0" type="line"/>
      <point x="500" y="-46"/>
      <point x="454" y="-95"/>
      <point x="454" y="-115" type="qcurve" smooth="yes"/>
      <point x="454" y="-145"/>
      <point x="488" y="-145" type="qcurve" smooth="yes"/>
      <point x="522" y="-145"/>
      <point x="542" y="-118" type="qcurve"/>
      <point x="589" y="-165" type="line"/>
      <point x="553" y="-210"/>
    </contour>
    <contour>
      <point x="421" y="286" type="line"/>
      <point x="392" y="588" type="line"/>
      <point x="385" y="588" type="line"/>
      <point x="238" y="286" type="line"/>
    </contour>
  </outline>
</glyph>
<glyph name="aogonek" format="2">
  <advance width="588"/>
  <unicode hex="0105"/>
  <outline>
    <contour>
      <point x="419" y="-210" type="qcurve"/>
      <point x="374" y="-210"/>
      <point x="308" y="-170"/>
      <point x="308" y="-130" type="qcurve"/>
      <point x="308" y="-47"/>
      <point x="441" y="-5" type="qcurve"/>
      <point x="441" y="-2" type="line"/>
      <point x="440" y="-2"/>
      <point x="440" y="0" type="qcurve"/>
      <point x="365" y="0"/>
      <point x="356" y="57" type="qcurve"/>
      <point x="354" y="70"/>
      <point x="354" y="82" type="qcurve"/>
      <point x="355" y="100"/>
      <point x="359" y="118" type="qcurve"/>
      <point x="355" y="118" type="line"/>
      <point x="323" y="53"/>
      <point x="247" y="-12"/>
      <point x="185" y="-12" type="qcurve"/>
      <point x="149" y="-12"/>
      <point x="94" y="16"/>
      <point x="57" y="65"/>
      <point x="38" y="134"/>
      <point x="38" y="176" type="qcurve"/>
      <point x="38" y="244"/>
      <point x="72" y="374"/>
      <point x="136" y="473"/>
      <point x="228" y="534"/>
      <point x="286" y="534" type="qcurve"/>
      <point x="339" y="534"/>
      <point x="410" y="478"/>
      <point x="418" y="433" type="qcurve"/>
      <point x="423" y="433" type="line"/>
      <point x="440" y="522" type="line"/>
      <point x="556" y="522" type="line"/>
      <point x="471" y="95" type="line"/>
      <point x="535" y="95" type="line"/>
      <point x="516" y="0" type="line"/>
      <point x="441" y="-48"/>
      <point x="398" y="-93"/>
      <point x="398" y="-115" type="qcurve"/>
      <point x="398" y="-145"/>
      <point x="432" y="-145" type="qcurve"/>
      <point x="464" y="-145"/>
      <point x="486" y="-118" type="qcurve"/>
      <point x="532" y="-165" type="line"/>
      <point x="496" y="-210"/>
    </contour>
    <contour>
      <point x="235" y="86" type="qcurve"/>
      <point x="289" y="86"/>
      <point x="371" y="181"/>
      <point x="385" y="247" type="qcurve"/>
      <point x="396" y="304" type="line"/>
      <point x="406" y="352"/>
      <point x="406" y="359" type="qcurve"/>
      <point x="406" y="390"/>
      <point x="355" y="436"/>
      <point x="310" y="436" type="qcurve"/>
      <point x="202" y="436"/>
      <point x="177" y="304" type="qcurve"/>
      <point x="162" y="229" type="line"/>
      <point x="157" y="199"/>
      <point x="157" y="177" type="qcurve"/>
      <point x="159" y="86"/>
    </contour>
  </outline>
</glyph>
<glyph name="cacute" format="2">
  <advance width="492"/>
  <unicode hex="0107"/>
  <outline>
    <contour>
      <point x="237" y="-12" type="qcurve"/>
      <point x="151" y="-12"/>
      <point x="38" y="96"/>
      <point x="38" y="209" type="qcurve"/>
      <point x="38" y="300"/>
      <point x="107" y="447"/>
      <point x="229" y="534"/>
      <point x="307" y="534" type="qcurve"/>
      <point x="381" y="534"/>
      <point x="475" y="463"/>
      <point x="489" y="404" type="qcurve"/>
      <point x="391" y="365" type="line"/>
      <point x="380" y="401"/>
      <point x="341" y="437"/>
      <point x="301" y="437" type="qcurve"/>
      <point x="200" y="437"/>
      <point x="176" y="313" type="qcurve"/>
      <point x="158" y="226" type="line"/>
      <point x="153" y="201"/>
      <point x="153" y="183" type="qcurve"/>
      <point x="153" y="84"/>
      <point x="248" y="84" type="qcurve"/>
      <point x="285" y="84"/>
      <point x="337" y="128"/>
      <point x="362" y="174" type="qcurve"/>
      <point x="451" y="132" type="line"/>
      <point x="382" y="-12"/>
    </contour>
    <contour>
      <point x="338" y="581" type="line"/>
      <point x="268" y="619" type="line"/>
      <point x="381" y="802" type="line"/>
      <point x="476" y="751" type="line"/>
    </contour>
  </outline>
</glyph>
<glyph name="Cdotaccent" format="2">
  <advance width="622"/>
  <unicode hex="010A"/>
  <outline>
    <contour>
      <point x="300" y="-12" type="qcurve"/>
      <point x="192" y="-12"/>
      <point x="56" y="130"/>
      <point x="56" y="270" type="qcurve"/>
      <point x="56" y="387"/>
      <point x="144" y="588"/>
      <point x="301" y="710"/>
      <point x="406" y="710" type="qcurve"/>
      <point x="585" y="710"/>
      <point x="637" y="544" type="qcurve"/>
      <point x="529" y="498" type="line"/>
      <point x="515" y="548"/>
      <point x="454" y="602"/>
      <point x="396" y="602" type="qcurve"/>
      <point x="317" y="602"/>
      <point x="222" y="498"/>
      <point x="206" y="414" type="qcurve"/>
      <point x="183" y="302" type="line"/>
      <point x="177" y="270"/>
      <point x="177" y="246" type="qcurve"/>
      <point x="177" y="176"/>
      <point x="242" y="96"/>
      <point x="310" y="96" type="qcurve"/>
      <point x="370" y="96"/>
      <point x="450" y="154"/>
      <point x="478" y="210" type="qcurve"/>
      <point x="578" y="163" type="line"/>
      <point x="489" y="-12"/>
    </contour>
    <contour>
      <point x="425" y="765" type="qcurve"/>
      <point x="363" y="765"/>
      <point x="363" y="815" type="qcurve"/>
      <point x="363" y="853"/>
      <point x="395" y="909"/>
      <point x="448" y="909" type="qcurve"/>
      <point x="483" y="909"/>
      <point x="510" y="883"/>
      <point x="510" y="856" type="qcurve"/>
      <point x="510" y="851"/>
      <point x="508" y="844"/>
      <point x="508" y="840" type="qcurve"/>
      <point x="504" y="765"/>
    </contour>
  </outline>
</glyph>
<glyph name="cdotaccent" format="2">
  <advance width="492"/>
  <unicode hex="010B"/>
  <outline>
    <contour>
      <point x="326" y="600" type="qcurve" smooth="yes"/>
      <point x="264" y="600"/>
      <point x="264" y="650" type="qcurve" smooth="yes"/>
      <point x="264" y="688"/>
      <point x="296" y="744"/>
      <point x="349" y="744" type="qcurve" smooth="yes"/>
      <point x="384" y="744"/>
      <point x="411" y="718"/>
      <point x="411" y="691" type="qcurve" smooth="yes"/>
      <point x="411" y="687"/>
      <point x="409" y="679"/>
      <point x="409" y="676" type="qcurve"/>
      <point x="406" y="600"/>
    </contour>
    <contour>
      <point x="237" y="-12" type="qcurve" smooth="yes"/>
      <point x="151" y="-12"/>
      <point x="38" y="96"/>
      <point x="38" y="209" type="qcurve" smooth="yes"/>
      <point x="38" y="300"/>
      <point x="107" y="447"/>
      <point x="229" y="534"/>
      <point x="307" y="534" type="qcurve" smooth="yes"/>
      <point x="381" y="534"/>
      <point x="475" y="463"/>
      <point x="489" y="404" type="qcurve"/>
      <point x="391" y="365" type="line"/>
      <point x="380" y="401"/>
      <point x="341" y="437"/>
      <point x="301" y="437" type="qcurve" smooth="yes"/>
      <point x="200" y="437"/>
      <point x="176" y="313" type="qcurve"/>
      <point x="158" y="226" type="line" smooth="yes"/>
      <point x="153" y="201"/>
      <point x="153" y="183" type="qcurve" smooth="yes"/>
      <point x="153" y="84"/>
      <point x="248" y="84" type="qcurve" smooth="yes"/>
      <point x="285" y="84"/>
      <point x="337" y="128"/>
      <point x="362" y="174" type="qcurve"/>
      <point x="451" y="132" type="line"/>
      <point x="382" y="-12"/>
    </contour>
  </outline>
</glyph>
<glyph name="Dcaron" format="2">
  <advance width="671"/>
  <unicode hex="010E"/>
  <outline>
    <contour>
      <point x="283" y="0" type="qcurve"/>
      <point x="29" y="0" type="line"/>
      <point x="169" y="698" type="line"/>
      <point x="385" y="698" type="line"/>
      <point x="461" y="698"/>
      <point x="577" y="642"/>
      <point x="642" y="524"/>
      <point x="642" y="433" type="qcurve"/>
      <point x="642" y="351"/>
      <point x="597" y="196"/>
      <point x="508" y="73"/>
      <point x="373" y="0"/>
    </contour>
    <contour>
      <point x="291" y="107" type="line"/>
      <point x="363" y="107"/>
      <point x="471" y="195"/>
      <point x="493" y="293" type="qcurve"/>
      <point x="512" y="389" type="line"/>
      <point x="518" y="425"/>
      <point x="518" y="441" type="qcurve"/>
      <point x="519" y="453" type="line"/>
      <point x="519" y="526"/>
      <point x="448" y="591"/>
      <point x="390" y="591" type="qcurve"/>
      <point x="268" y="591" type="line"/>
      <point x="171" y="107" type="line"/>
    </contour>
    <contour>
      <point x="455" y="756" type="line"/>
      <point x="344" y="756" type="line"/>
      <point x="249" y="909" type="line"/>
      <point x="312" y="956" type="line"/>
      <point x="406" y="841" type="line"/>
      <point x="544" y="956" type="line"/>
      <point x="604" y="909" type="line"/>
    </contour>
  </outline>
</glyph>
<glyph name="Emacron" format="2">
  <advance width="573"/>
  <unicode hex="0112"/>
  <outline>
    <contour>
      <point x="539" y="795" type="line"/>
      <point x="263" y="795" type="line"/>
      <point x="281" y="883" type="line"/>
      <point x="556" y="883" type="line"/>
    </contour>
    <contour>
      <point x="476" y="0" type="line"/>
      <point x="29" y="0" type="line"/>
      <point x="169" y="698" type="line"/>
      <point x="603" y="698" type="line"/>
      <point x="581" y="591" type="line"/>
      <point x="268" y="591" type="line"/>
      <point x="231" y="406" type="line"/>
      <point x="510" y="406" type="line"/>
      <point x="488" y="299" type="line"/>
      <point x="210" y="299" type="line"/>
      <point x="171" y="107" type="line"/>
      <point x="497" y="107" type="line"/>
    </contour>
  </outline>
</glyph>
<glyph name="Ebreve" format="2">
  <advance width="573"/>
  <unicode hex="0114"/>
  <outline>
    <contour>
      <point x="397" y="750" type="qcurve" smooth="yes"/>
      <point x="348" y="750"/>
      <point x="283" y="796"/>
      <point x="247" y="866"/>
      <point x="242" y="906" type="qcurve"/>
      <point x="309" y="940" type="line"/>
      <point x="318" y="920" type="line"/>
      <point x="336" y="877"/>
      <point x="371" y="835"/>
      <point x="403" y="835" type="qcurve" smooth="yes"/>
      <point x="438" y="835"/>
      <point x="486" y="884"/>
      <point x="519" y="932" type="qcurve"/>
      <point x="525" y="940" type="line"/>
      <point x="595" y="904" type="line"/>
      <point x="576" y="863"/>
      <point x="519" y="794"/>
      <point x="444" y="750"/>
    </contour>
    <contour>
      <point x="476" y="0" type="line"/>
      <point x="29" y="0" type="line"/>
      <point x="169" y="698" type="line"/>
      <point x="603" y="698" type="line"/>
      <point x="581" y="591" type="line"/>
      <point x="268" y="591" type="line"/>
      <point x="231" y="406" type="line"/>
      <point x="510" y="406" type="line"/>
      <point x="488" y="299" type="line"/>
      <point x="210" y="299" type="line"/>
      <point x="171" y="107" type="line"/>
      <point x="497" y="107" type="line"/>
    </contour>
  </outline>
</glyph>
<glyph name="Edotaccent" format="2">
  <advance width="573"/>
  <unicode hex="0116"/>
  <outline>
    <contour>
      <point x="476" y="0" type="line"/>
      <point x="29" y="0" type="line"/>
      <point x="169" y="698" type="line"/>
      <point x="603" y="698" type="line"/>
      <point x="581" y="591" type="line"/>
      <point x="268" y="591" type="line"/>
      <point x="231" y="406" type="line"/>
      <point x="510" y="406" type="line"/>
      <point x="488" y="299" type="line"/>
      <point x="210" y="299" type="line"/>
      <point x="171" y="107" type="line"/>
      <point x="497" y="107" type="line"/>
    </contour>
    <contour>
      <point x="398" y="765" type="qcurve"/>
      <point x="336" y="765"/>
      <point x="336" y="815" type="qcurve"/>
      <point x="336" y="853"/>
      <point x="368" y="909"/>
      <point x="421" y="909" type="qcurve"/>
      <point x="456" y="909"/>
      <point x="483" y="883"/>
      <point x="483" y="856" type="qcurve"/>
      <point x="483" y="851"/>
      <point x="481" y="844"/>
      <point x="481" y="840" type="qcurve"/>
      <point x="477" y="765"/>
    </contour>
  </outline>
</glyph>
<glyph name="edotaccent" format="2">
  <advance width="513"/>
  <unicode hex="0117"/>
  <outline>
    <contour>
      <point x="338" y="600" type="qcurve" smooth="yes"/>
      <point x="276" y="600"/>
      <point x="276" y="650" type="qcurve" smooth="yes"/>
      <point x="276" y="688"/>
      <point x="308" y="744"/>
      <point x="361" y="744" type="qcurve" smooth="yes"/>
      <point x="396" y="744"/>
      <point x="423" y="718"/>
      <point x="423" y="691" type="qcurve" smooth="yes"/>
      <point x="423" y="687"/>
      <point x="421" y="679"/>
      <point x="421" y="676" type="qcurve"/>
      <point x="418" y="600"/>
    </contour>
    <contour>
      <point x="250" y="-12" type="qcurve" smooth="yes"/>
      <point x="139" y="-12"/>
      <point x="38" y="109"/>
      <point x="38" y="210" type="qcurve" smooth="yes"/>
      <point x="38" y="285"/>
      <point x="100" y="434"/>
      <point x="224" y="534"/>
      <point x="317" y="534" type="qcurve" smooth="yes"/>
      <point x="391" y="534"/>
      <point x="497" y="460"/>
      <point x="497" y="390" type="qcurve" smooth="yes"/>
      <point x="497" y="304"/>
      <point x="325" y="218"/>
      <point x="156" y="213" type="qcurve"/>
      <point x="155" y="203" type="line"/>
      <point x="153" y="192"/>
      <point x="153" y="183" type="qcurve" smooth="yes"/>
      <point x="153" y="84"/>
      <point x="258" y="84" type="qcurve" smooth="yes"/>
      <point x="341" y="84"/>
      <point x="397" y="161" type="qcurve"/>
      <point x="470" y="101" type="line"/>
      <point x="423" y="43"/>
      <point x="317" y="-12"/>
    </contour>
    <contour>
      <point x="169" y="291" type="line"/>
      <point x="292" y="296"/>
      <point x="383" y="338"/>
      <point x="383" y="382" type="qcurve" smooth="yes"/>
      <point x="383" y="443"/>
      <point x="309" y="443" type="qcurve" smooth="yes"/>
      <point x="199" y="443"/>
      <point x="170" y="299" type="qcurve"/>
    </contour>
  </outline>
</glyph>
<glyph name="Eogonek" format="2">
  <advance width="573"/>
  <unicode hex="0118"/>
  <outline>
    <contour>
      <point x="378" y="-210" type="qcurve"/>
      <point x="337" y="-210"/>
      <point x="268" y="-173"/>
      <point x="268" y="-130" type="qcurve"/>
      <point x="268" y="-46"/>
      <point x="400" y="-5" type="qcurve"/>
      <point x="399" y="0" type="line"/>
      <point x="29" y="0" type="line"/>
      <point x="169" y="698" type="line"/>
      <point x="603" y="698" type="line"/>
      <point x="582" y="591" type="line"/>
      <point x="268" y="591" type="line"/>
      <point x="231" y="406" type="line"/>
      <point x="510" y="406" type="line"/>
      <point x="488" y="299" type="line"/>
      <point x="210" y="299" type="line"/>
      <point x="171" y="107" type="line"/>
      <point x="497" y="107" type="line"/>
      <point x="476" y="0" type="line"/>
      <point x="403" y="-46"/>
      <point x="357" y="-95"/>
      <point x="357" y="-115" type="qcurve"/>
      <point x="357" y="-145"/>
      <point x="392" y="-145" type="qcurve"/>
      <point x="423" y="-145"/>
      <point x="446" y="-118" type="qcurve"/>
      <point x="492" y="-165" type="line"/>
      <point x="455" y="-210"/>
    </contour>
  </outline>
</glyph>
<glyph name="eogonek" format="2">
  <advance width="513"/>
  <unicode hex="0119"/>
  <outline>
    <contour>
      <point x="233" y="-210" type="qcurve" smooth="yes"/>
      <point x="191" y="-210"/>
      <point x="123" y="-173"/>
      <point x="123" y="-130" type="qcurve" smooth="yes"/>
      <point x="123" y="-55"/>
      <point x="239" y="-15" type="qcurve"/>
      <point x="238" y="-12" type="line"/>
      <point x="134" y="-6"/>
      <point x="38" y="112"/>
      <point x="38" y="210" type="qcurve" smooth="yes"/>
      <point x="38" y="289"/>
      <point x="103" y="438"/>
      <point x="228" y="534"/>
      <point x="317" y="534" type="qcurve" smooth="yes"/>
      <point x="394" y="534"/>
      <point x="497" y="458"/>
      <point x="497" y="390" type="qcurve" smooth="yes"/>
      <point x="497" y="222"/>
      <point x="156" y="213" type="qcurve"/>
      <point x="155" y="203" type="line"/>
      <point x="153" y="192"/>
      <point x="153" y="183" type="qcurve" smooth="yes"/>
      <point x="153" y="84"/>
      <point x="258" y="84" type="qcurve" smooth="yes"/>
      <point x="341" y="84"/>
      <point x="397" y="161" type="qcurve"/>
      <point x="470" y="101" type="line"/>
      <point x="417" y="36"/>
      <point x="363" y="13" type="qcurve"/>
      <point x="273" y="-30"/>
      <point x="239" y="-64" type="qcurve"/>
      <point x="213" y="-92"/>
      <point x="213" y="-115" type="qcurve" smooth="yes"/>
      <point x="213" y="-145"/>
      <point x="247" y="-145" type="qcurve" smooth="yes"/>
      <point x="278" y="-145"/>
      <point x="301" y="-118" type="qcurve"/>
      <point x="348" y="-165" type="line"/>
      <point x="313" y="-210"/>
    </contour>
    <contour>
      <point x="169" y="291" type="line"/>
      <point x="292" y="296"/>
      <point x="383" y="338"/>
      <point x="383" y="382" type="qcurve" smooth="yes"/>
      <point x="383" y="443"/>
      <point x="309" y="443" type="qcurve" smooth="yes"/>
      <point x="199" y="443"/>
      <point x="170" y="299" type="qcurve"/>
    </contour>
  </outline>
</glyph>
<glyph name="Ecaron" format="2">
  <advance width="573"/>
  <unicode hex="011A"/>
  <outline>
    <contour>
      <point x="476" y="0" type="line"/>
      <point x="29" y="0" type="line"/>
      <point x="169" y="698" type="line"/>
      <point x="603" y="698" type="line"/>
      <point x="581" y="591" type="line"/>
      <point x="268" y="591" type="line"/>
      <point x="231" y="406" type="line"/>
      <point x="510" y="406" type="line"/>
      <point x="488" y="299" type="line"/>
      <point x="210" y="299" type="line"/>
      <point x="171" y="107" type="line"/>
      <point x="497" y="107" type="line"/>
    </contour>
    <contour>
      <point x="450" y="756" type="line"/>
      <point x="339" y="756" type="line"/>
      <point x="244" y="909" type="line"/>
      <point x="307" y="956" type="line"/>
      <point x="401" y="841" type="line"/>
      <point x="539" y="956" type="line"/>
      <point x="599" y="909" type="line"/>
    </contour>
  </outline>
</glyph>
<glyph name="Gcircumflex" format="2">
  <advance width="563"/>
  <unicode hex="011C"/>
  <outline>
    <contour>
      <point x="409" y="945" type="line"/>
      <point x="517" y="945" type="line"/>
      <point x="608" y="794" type="line"/>
      <point x="549" y="751" type="line"/>
      <point x="453" y="866" type="line"/>
      <point x="316" y="750" type="line"/>
      <point x="261" y="795" type="line"/>
    </contour>
    <contour>
      <point x="43" y="275" type="qcurve"/>
      <point x="43" y="305"/>
      <point x="49" y="361"/>
      <point x="54" y="388" type="qcurve"/>
      <point x="68" y="459"/>
      <point x="129" y="577"/>
      <point x="218" y="663"/>
      <point x="332" y="710"/>
      <point x="398" y="710" type="qcurve"/>
      <point x="472" y="710"/>
      <point x="569" y="660"/>
      <point x="625" y="585"/>
      <point x="636" y="545" type="qcurve"/>
      <point x="529" y="493" type="line"/>
      <point x="523" y="527"/>
      <point x="491" y="574"/>
      <point x="434" y="604"/>
      <point x="387" y="604" type="qcurve"/>
      <point x="334" y="604"/>
      <point x="256" y="557"/>
      <point x="204" y="471"/>
      <point x="192" y="413" type="qcurve"/>
      <point x="170" y="302" type="line"/>
      <point x="166" y="289"/>
      <point x="163" y="258"/>
      <point x="163" y="245" type="qcurve"/>
      <point x="163" y="215"/>
      <point x="181" y="159"/>
      <point x="214" y="117"/>
      <point x="263" y="94"/>
      <point x="297" y="94" type="qcurve"/>
      <point x="360" y="94"/>
      <point x="456" y="162"/>
      <point x="470" y="232" type="qcurve"/>
      <point x="478" y="272" type="line"/>
      <point x="320" y="272" type="line"/>
      <point x="320" y="379" type="line"/>
      <point x="619" y="379" type="line"/>
      <point x="592" y="244" type="line"/>
      <point x="577" y="170"/>
      <point x="511" y="70"/>
      <point x="423" y="12"/>
      <point x="327" y="-12"/>
      <point x="282" y="-12" type="qcurve"/>
      <point x="229" y="-12"/>
      <point x="142" y="28"/>
      <point x="78" y="104"/>
      <point x="43" y="209"/>
    </contour>
  </outline>
</glyph>
<glyph name="Gbreve" format="2">
  <advance width="563"/>
  <unicode hex="011E"/>
  <outline>
    <contour>
      <point x="436" y="753" type="qcurve"/>
      <point x="383" y="753"/>
      <point x="322" y="801"/>
      <point x="292" y="871"/>
      <point x="285" y="905" type="qcurve"/>
      <point x="348" y="936" type="line"/>
      <point x="362" y="905" type="line"/>
      <point x="378" y="871"/>
      <point x="411" y="834"/>
      <point x="441" y="834" type="qcurve"/>
      <point x="468" y="834"/>
      <point x="511" y="869"/>
      <point x="540" y="906" type="qcurve"/>
      <point x="562" y="936" type="line"/>
      <point x="628" y="903" type="line"/>
      <point x="609" y="868"/>
      <point x="559" y="799"/>
      <point x="488" y="753"/>
    </contour>
    <contour>
      <point x="43" y="275" type="qcurve"/>
      <point x="43" y="305"/>
      <point x="49" y="361"/>
      <point x="54" y="388" type="qcurve"/>
      <point x="68" y="459"/>
      <point x="129" y="577"/>
      <point x="218" y="663"/>
      <point x="332" y="710"/>
      <point x="398" y="710" type="qcurve"/>
      <point x="472" y="710"/>
      <point x="569" y="660"/>
      <point x="625" y="585"/>
      <point x="636" y="545" type="qcurve"/>
      <point x="529" y="493" type="line"/>
      <point x="523" y="527"/>
      <point x="491" y="574"/>
      <point x="434" y="604"/>
      <point x="387" y="604" type="qcurve"/>
      <point x="334" y="604"/>
      <point x="256" y="557"/>
      <point x="204" y="471"/>
      <point x="192" y="413" type="qcurve"/>
      <point x="170" y="302" type="line"/>
      <point x="166" y="289"/>
      <point x="163" y="258"/>
      <point x="163" y="245" type="qcurve"/>
      <point x="163" y="215"/>
      <point x="181" y="159"/>
      <point x="214" y="117"/>
      <point x="263" y="94"/>
      <point x="297" y="94" type="qcurve"/>
      <point x="360" y="94"/>
      <point x="456" y="162"/>
      <point x="470" y="232" type="qcurve"/>
      <point x="478" y="272" type="line"/>
      <point x="320" y="272" type="line"/>
      <point x="320" y="379" type="line"/>
      <point x="619" y="379" type="line"/>
      <point x="592" y="244" type="line"/>
      <point x="577" y="170"/>
      <point x="511" y="70"/>
      <point x="423" y="12"/>
      <point x="327" y="-12"/>
      <point x="282" y="-12" type="qcurve"/>
      <point x="229" y="-12"/>
      <point x="142" y="28"/>
      <point x="78" y="104"/>
      <point x="43" y="209"/>
    </contour>
  </outline>
</glyph>
<glyph name="gbreve" format="2">
  <advance width="568"/>
  <unicode hex="011F"/>
  <outline>
    <contour>
      <point x="342" y="586" type="qcurve"/>
      <point x="269" y="586"/>
      <point x="230" y="637" type="qcurve"/>
      <point x="197" y="678"/>
      <point x="188" y="742" type="qcurve"/>
      <point x="254" y="776" type="line"/>
      <point x="268" y="748" type="line"/>
      <point x="282" y="713"/>
      <point x="314" y="672"/>
      <point x="348" y="672" type="qcurve"/>
      <point x="352" y="672" type="line"/>
      <point x="378" y="672"/>
      <point x="418" y="707"/>
      <point x="447" y="745" type="qcurve"/>
      <point x="471" y="776" type="line"/>
      <point x="541" y="740" type="line"/>
      <point x="505" y="672"/>
      <point x="465" y="635" type="qcurve"/>
      <point x="412" y="586"/>
    </contour>
    <contour>
      <point x="204" y="-212" type="qcurve"/>
      <point x="67" y="-212"/>
      <point x="1" y="-120" type="qcurve"/>
      <point x="77" y="-52" type="line"/>
      <point x="118" y="-117"/>
      <point x="202" y="-117" type="qcurve"/>
      <point x="312" y="-117"/>
      <point x="339" y="17" type="qcurve"/>
      <point x="361" y="127" type="line"/>
      <point x="356" y="127" type="line"/>
      <point x="326" y="61"/>
      <point x="244" y="-3"/>
      <point x="186" y="-3" type="qcurve"/>
      <point x="115" y="-3"/>
      <point x="40" y="101"/>
      <point x="40" y="185" type="qcurve"/>
      <point x="40" y="281"/>
      <point x="100" y="439"/>
      <point x="210" y="534"/>
      <point x="285" y="534" type="qcurve"/>
      <point x="333" y="534"/>
      <point x="408" y="481"/>
      <point x="418" y="433" type="qcurve"/>
      <point x="423" y="433" type="line"/>
      <point x="440" y="522" type="line"/>
      <point x="556" y="522" type="line"/>
      <point x="454" y="9" type="line"/>
      <point x="434" y="-96"/>
      <point x="316" y="-212"/>
    </contour>
    <contour>
      <point x="237" y="94" type="qcurve"/>
      <point x="286" y="94"/>
      <point x="371" y="183"/>
      <point x="386" y="255" type="qcurve"/>
      <point x="398" y="318" type="line"/>
      <point x="404" y="349"/>
      <point x="404" y="355" type="qcurve"/>
      <point x="404" y="372"/>
      <point x="389" y="410"/>
      <point x="348" y="436"/>
      <point x="309" y="436" type="qcurve"/>
      <point x="203" y="436"/>
      <point x="178" y="304" type="qcurve"/>
      <point x="172" y="272"/>
      <point x="159" y="210"/>
      <point x="159" y="185" type="qcurve"/>
      <point x="159" y="99"/>
    </contour>
  </outline>
</glyph>
<glyph name="gcedilla" format="2">
  <advance width="568"/>
  <unicode hex="0123"/>
  <outline>
    <contour>
      <point x="340" y="583" type="qcurve"/>
      <point x="285" y="583"/>
      <point x="285" y="628" type="qcurve"/>
      <point x="285" y="674"/>
      <point x="338" y="766"/>
      <point x="374" y="796" type="qcurve"/>
      <point x="447" y="796" type="line"/>
      <point x="396" y="753"/>
      <point x="376" y="705" type="qcurve"/>
      <point x="410" y="702"/>
      <point x="410" y="662" type="qcurve"/>
      <point x="410" y="619"/>
      <point x="368" y="583"/>
    </contour>
    <contour>
      <point x="204" y="-212" type="qcurve"/>
      <point x="67" y="-212"/>
      <point x="1" y="-120" type="qcurve"/>
      <point x="77" y="-52" type="line"/>
      <point x="118" y="-117"/>
      <point x="202" y="-117" type="qcurve"/>
      <point x="312" y="-117"/>
      <point x="339" y="17" type="qcurve"/>
      <point x="361" y="127" type="line"/>
      <point x="356" y="127" type="line"/>
      <point x="326" y="61"/>
      <point x="244" y="-3"/>
      <point x="186" y="-3" type="qcurve"/>
      <point x="115" y="-3"/>
      <point x="40" y="101"/>
      <point x="40" y="185" type="qcurve"/>
      <point x="40" y="281"/>
      <point x="100" y="439"/>
      <point x="210" y="534"/>
      <point x="285" y="534" type="qcurve"/>
      <point x="333" y="534"/>
      <point x="408" y="481"/>
      <point x="418" y="433" type="qcurve"/>
      <point x="423" y="433" type="line"/>
      <point x="440" y="522" type="line"/>
      <point x="556" y="522" type="line"/>
      <point x="454" y="9" type="line"/>
      <point x="434" y="-96"/>
      <point x="316" y="-212"/>
    </contour>
    <contour>
      <point x="237" y="94" type="qcurve"/>
      <point x="286" y="94"/>
      <point x="371" y="183"/>
      <point x="386" y="255" type="qcurve"/>
      <point x="398" y="318" type="line"/>
      <point x="404" y="349"/>
      <point x="404" y="355" type="qcurve"/>
      <point x="404" y="372"/>
      <point x="389" y="410"/>
      <point x="348" y="436"/>
      <point x="309" y="436" type="qcurve"/>
      <point x="203" y="436"/>
      <point x="178" y="304" type="qcurve"/>
      <point x="172" y="272"/>
      <point x="159" y="210"/>
      <point x="159" y="185" type="qcurve"/>
      <point x="159" y="99"/>
    </contour>
  </outline>
</glyph>
<glyph name="hbar" format="2">
  <advance width="578"/>
  <unicode hex="0127"/>
  <outline>
    <contour>
      <point x="509" y="0" type="line"/>
      <point x="426" y="0" type="line" smooth="yes"/>
      <point x="388" y="0"/>
      <point x="350" y="38"/>
      <point x="350" y="69" type="qcurve" smooth="yes"/>
      <point x="350" y="82"/>
      <point x="354" y="99" type="qcurve"/>
      <point x="393" y="290" type="line" smooth="yes"/>
      <point x="403" y="337"/>
      <point x="403" y="369" type="qcurve" smooth="yes"/>
      <point x="403" y="435"/>
      <point x="340" y="435" type="qcurve" smooth="yes"/>
      <point x="289" y="435"/>
      <point x="207" y="339"/>
      <point x="194" y="277" type="qcurve" smooth="yes"/>
      <point x="139" y="0" type="line"/>
      <point x="23" y="0" type="line"/>
      <point x="142" y="597" type="line"/>
      <point x="76" y="597" type="line"/>
      <point x="92" y="680" type="line"/>
      <point x="158" y="680" type="line"/>
      <point x="171" y="740" type="line"/>
      <point x="287" y="740" type="line"/>
      <point x="274" y="680" type="line"/>
      <point x="417" y="680" type="line"/>
      <point x="400" y="597" type="line"/>
      <point x="258" y="597" type="line"/>
      <point x="220" y="407" type="line"/>
      <point x="226" y="407" type="line"/>
      <point x="254" y="468"/>
      <point x="335" y="534"/>
      <point x="394" y="534" type="qcurve" smooth="yes"/>
      <point x="461" y="534"/>
      <point x="522" y="457"/>
      <point x="522" y="395" type="qcurve" smooth="yes"/>
      <point x="522" y="359"/>
      <point x="514" y="324" type="qcurve"/>
      <point x="468" y="95" type="line"/>
      <point x="528" y="95" type="line"/>
    </contour>
  </outline>
</glyph>
<glyph name="Iogonek" format="2">
  <advance width="282"/>
  <unicode hex="012E"/>
  <outline>
    <contour>
      <point x="51" y="-210" type="qcurve" smooth="yes"/>
      <point x="9" y="-210"/>
      <point x="-59" y="-171"/>
      <point x="-59" y="-130" type="qcurve" smooth="yes"/>
      <point x="-59" y="-48"/>
      <point x="74" y="-5" type="qcurve"/>
      <point x="73" y="0" type="line"/>
      <point x="29" y="0" type="line"/>
      <point x="169" y="698" type="line"/>
      <point x="289" y="698" type="line"/>
      <point x="149" y="0" type="line"/>
      <point x="78" y="-45"/>
      <point x="31" y="-94"/>
      <point x="31" y="-115" type="qcurve" smooth="yes"/>
      <point x="31" y="-145"/>
      <point x="65" y="-145" type="qcurve" smooth="yes"/>
      <point x="96" y="-145"/>
      <point x="119" y="-118" type="qcurve"/>
      <point x="165" y="-165" type="line"/>
      <point x="131" y="-210"/>
    </contour>
  </outline>
</glyph>
<glyph name="iogonek" format="2">
  <advance width="274"/>
  <unicode hex="012F"/>
  <outline>
    <contour>
      <point x="203" y="603" type="qcurve" smooth="yes"/>
      <point x="143" y="603"/>
      <point x="143" y="648" type="qcurve" smooth="yes"/>
      <point x="143" y="666"/>
      <point x="155" y="711"/>
      <point x="192" y="745"/>
      <point x="228" y="745" type="qcurve" smooth="yes"/>
      <point x="260" y="745"/>
      <point x="289" y="719"/>
      <point x="289" y="700" type="qcurve" smooth="yes"/>
      <point x="289" y="663"/>
      <point x="251" y="603"/>
    </contour>
    <contour>
      <point x="105" y="-210" type="qcurve" smooth="yes"/>
      <point x="63" y="-210"/>
      <point x="-5" y="-171"/>
      <point x="-5" y="-130" type="qcurve" smooth="yes"/>
      <point x="-5" y="-48"/>
      <point x="130" y="-5" type="qcurve"/>
      <point x="129" y="0" type="line"/>
      <point x="81" y="0"/>
      <point x="39" y="41"/>
      <point x="39" y="73" type="qcurve" smooth="yes"/>
      <point x="39" y="83"/>
      <point x="127" y="522" type="qcurve"/>
      <point x="243" y="522" type="line"/>
      <point x="157" y="95" type="line"/>
      <point x="222" y="95" type="line"/>
      <point x="203" y="0" type="line"/>
      <point x="132" y="-45"/>
      <point x="85" y="-94"/>
      <point x="85" y="-115" type="qcurve" smooth="yes"/>
      <point x="85" y="-145"/>
      <point x="119" y="-145" type="qcurve" smooth="yes"/>
      <point x="150" y="-145"/>
      <point x="173" y="-118" type="qcurve"/>
      <point x="219" y="-165" type="line"/>
      <point x="185" y="-210"/>
    </contour>
  </outline>
</glyph>
<glyph name="idotless" format="2">
  <advance width="274"/>
  <unicode hex="0131"/>
  <outline>
    <contour>
      <point x="203" y="0" type="line"/>
      <point x="121" y="0" type="line"/>
      <point x="79" y="0"/>
      <point x="39" y="41"/>
      <point x="39" y="74" type="qcurve"/>
      <point x="39" y="80"/>
      <point x="127" y="522" type="qcurve"/>
      <point x="243" y="522" type="line"/>
      <point x="157" y="95" type="line"/>
      <point x="222" y="95" type="line"/>
    </contour>
  </outline>
</glyph>
<glyph name="Jcircumflex" format="2">
  <advance width="521"/>
  <unicode hex="0134"/>
  <outline>
    <contour>
      <point x="256" y="747" type="line"/>
      <point x="198" y="795" type="line"/>
      <point x="347" y="947" type="line"/>
      <point x="458" y="947" type="line"/>
      <point x="552" y="795" type="line"/>
      <point x="489" y="748" type="line"/>
      <point x="392" y="863" type="line"/>
    </contour>
    <contour>
      <point x="198" y="-12" type="qcurve" smooth="yes"/>
      <point x="134" y="-12"/>
      <point x="51" y="36"/>
      <point x="8" y="118"/>
      <point x="4" y="170" type="qcurve"/>
      <point x="118" y="193" type="line"/>
      <point x="123" y="95"/>
      <point x="200" y="95" type="qcurve" smooth="yes"/>
      <point x="286" y="95"/>
      <point x="308" y="201" type="qcurve"/>
      <point x="407" y="698" type="line"/>
      <point x="528" y="698" type="line"/>
      <point x="426" y="187" type="line" smooth="yes"/>
      <point x="407" y="95"/>
      <point x="296" y="-12"/>
    </contour>
  </outline>
</glyph>
<glyph name="kgreenlandic" format="2">
  <advance width="547"/>
  <unicode hex="0138"/>
  <outline>
    <contour>
      <point x="472" y="0" type="line"/>
      <point x="409" y="0" type="line" smooth="yes"/>
      <point x="337" y="0"/>
      <point x="316" y="70" type="qcurve"/>
      <point x="257" y="228" type="line"/>
      <point x="167" y="147" type="line"/>
      <point x="138" y="0" type="line"/>
      <point x="23" y="0" type="line"/>
      <point x="127" y="522" type="line"/>
      <point x="243" y="522" type="line"/>
      <point x="195" y="283" type="line"/>
      <point x="201" y="283" type="line"/>
      <point x="289" y="376" type="line"/>
      <point x="443" y="522" type="line"/>
      <point x="580" y="522" type="line"/>
      <point x="351" y="304" type="line"/>
      <point x="429" y="95" type="line"/>
      <point x="492" y="95" type="line"/>
    </contour>
  </outline>
</glyph>
<glyph name="Lacute" format="2">
  <advance width="502"/>
  <unicode hex="0139"/>
  <outline>
    <contour>
      <point x="418" y="0" type="line"/>
      <point x="29" y="0" type="line"/>
      <point x="169" y="698" type="line"/>
      <point x="290" y="698" type="line"/>
      <point x="171" y="107" type="line"/>
      <point x="439" y="107" type="line"/>
    </contour>
    <contour>
      <point x="257" y="746" type="line"/>
      <point x="186" y="784" type="line"/>
      <point x="299" y="966" type="line"/>
      <point x="395" y="916" type="line"/>
    </contour>
  </outline>
</glyph>
<glyph name="lacute" format="2">
  <advance width="274"/>
  <unicode hex="013A"/>
  <outline>
    <contour>
      <point x="207" y="0" type="line"/>
      <point x="121" y="0" type="line"/>
      <point x="78" y="0"/>
      <point x="39" y="42"/>
      <point x="39" y="73" type="qcurve"/>
      <point x="39" y="83"/>
      <point x="170" y="740" type="qcurve"/>
      <point x="286" y="740" type="line"/>
      <point x="157" y="95" type="line"/>
      <point x="225" y="95" type="line"/>
    </contour>
    <contour>
      <point x="256" y="781" type="line"/>
      <point x="186" y="819" type="line"/>
      <point x="299" y="1002" type="line"/>
      <point x="394" y="951" type="line"/>
    </contour>
  </outline>
</glyph>
<glyph name="Lcedilla" format="2">
  <advance width="502"/>
  <unicode hex="013B"/>
  <outline>
    <contour>
      <point x="418" y="0" type="line"/>
      <point x="29" y="0" type="line"/>
      <point x="169" y="698" type="line"/>
      <point x="290" y="698" type="line"/>
      <point x="171" y="107" type="line"/>
      <point x="439" y="107" type="line"/>
    </contour>
    <contour>
      <point x="176" y="-264" type="qcurve"/>
      <point x="103" y="-264" type="line"/>
      <point x="150" y="-224"/>
      <point x="174" y="-173" type="qcurve"/>
      <point x="140" y="-167"/>
      <point x="140" y="-133" type="qcurve"/>
      <point x="140" y="-121"/>
      <point x="145" y="-103" type="qcurve"/>
      <point x="158" y="-51"/>
      <point x="212" y="-51" type="qcurve"/>
      <point x="243" y="-51"/>
      <point x="265" y="-76"/>
      <point x="265" y="-102" type="qcurve"/>
      <point x="265" y="-111"/>
      <point x="262" y="-122"/>
      <point x="261" y="-127" type="qcurve"/>
      <point x="238" y="-212"/>
    </contour>
  </outline>
</glyph>
<glyph name="uni013C" format="2">
  <advance width="274"/>
  <unicode hex="013C"/>
  <outline>
    <contour>
      <point x="207" y="0" type="line"/>
      <point x="121" y="0" type="line" smooth="yes"/>
      <point x="78" y="0"/>
      <point x="39" y="42"/>
      <point x="39" y="73" type="qcurve" smooth="yes"/>
      <point x="39" y="83"/>
      <point x="170" y="740" type="qcurve"/>
      <point x="286" y="740" type="line"/>
      <point x="157" y="95" type="line"/>
      <point x="225" y="95" type="line"/>
    </contour>
    <contour>
      <point x="77" y="-264" type="qcurve"/>
      <point x="4" y="-264" type="line"/>
      <point x="51" y="-224"/>
      <point x="75" y="-173" type="qcurve"/>
      <point x="41" y="-167"/>
      <point x="41" y="-133" type="qcurve" smooth="yes"/>
      <point x="41" y="-121"/>
      <point x="46" y="-103" type="qcurve" smooth="yes"/>
      <point x="59" y="-51"/>
      <point x="113" y="-51" type="qcurve" smooth="yes"/>
      <point x="144" y="-51"/>
      <point x="166" y="-76"/>
      <point x="166" y="-102" type="qcurve" smooth="yes"/>
      <point x="166" y="-111"/>
      <point x="163" y="-122"/>
      <point x="162" y="-127" type="qcurve" smooth="yes"/>
      <point x="139" y="-212"/>
    </contour>
  </outline>
</glyph>
<glyph name="Lcaron" format="2">
  <advance width="502"/>
  <unicode hex="013D"/>
  <outline>
    <contour>
      <point x="409" y="536" type="line"/>
      <point x="328" y="536" type="line"/>
      <point x="373" y="740" type="line"/>
      <point x="505" y="740" type="line"/>
    </contour>
    <contour>
      <point x="418" y="0" type="line"/>
      <point x="29" y="0" type="line"/>
      <point x="169" y="698" type="line"/>
      <point x="290" y="698" type="line"/>
      <point x="171" y="107" type="line"/>
      <point x="439" y="107" type="line"/>
    </contour>
  </outline>
</glyph>
<glyph name="Lmiddledot" format="2">
  <advance width="502"/>
  <unicode hex="013F"/>
  <outline>
    <contour>
      <point x="418" y="0" type="line"/>
      <point x="29" y="0" type="line"/>
      <point x="169" y="698" type="line"/>
      <point x="290" y="698" type="line"/>
      <point x="171" y="107" type="line"/>
      <point x="439" y="107" type="line"/>
    </contour>
    <contour>
      <point x="401" y="302" type="qcurve"/>
      <point x="339" y="302"/>
      <point x="339" y="352" type="qcurve"/>
      <point x="339" y="376"/>
      <point x="352" y="419"/>
      <point x="389" y="446"/>
      <point x="424" y="446" type="qcurve"/>
      <point x="486" y="446"/>
      <point x="486" y="396" type="qcurve"/>
      <point x="486" y="392"/>
      <point x="484" y="382"/>
      <point x="484" y="377" type="qcurve"/>
      <point x="480" y="302"/>
    </contour>
  </outline>
</glyph>
<glyph name="lmiddledot" format="2">
  <advance width="388"/>
  <unicode hex="0140"/>
  <outline>
    <contour>
      <point x="207" y="0" type="line"/>
      <point x="121" y="0" type="line"/>
      <point x="78" y="0"/>
      <point x="39" y="42"/>
      <point x="39" y="73" type="qcurve"/>
      <point x="39" y="83"/>
      <point x="170" y="740" type="qcurve"/>
      <point x="286" y="740" type="line"/>
      <point x="157" y="95" type="line"/>
      <point x="225" y="95" type="line"/>
    </contour>
    <contour>
      <point x="331" y="266" type="qcurve"/>
      <point x="268" y="266"/>
      <point x="268" y="315" type="qcurve"/>
      <point x="268" y="340"/>
      <point x="282" y="383"/>
      <point x="319" y="410"/>
      <point x="353" y="410" type="qcurve"/>
      <point x="416" y="410"/>
      <point x="416" y="360" type="qcurve"/>
      <point x="416" y="350"/>
      <point x="413" y="341" type="qcurve"/>
      <point x="409" y="266"/>
    </contour>
  </outline>
</glyph>
<glyph name="Lslash" format="2">
  <advance width="512"/>
  <unicode hex="0141"/>
  <outline>
    <contour>
      <point x="422" y="0" type="line"/>
      <point x="34" y="0" type="line"/>
      <point x="86" y="256" type="line"/>
      <point x="-4" y="229" type="line"/>
      <point x="15" y="324" type="line"/>
      <point x="104" y="352" type="line"/>
      <point x="174" y="698" type="line"/>
      <point x="294" y="698" type="line"/>
      <point x="233" y="390" type="line"/>
      <point x="409" y="445" type="line"/>
      <point x="390" y="347" type="line"/>
      <point x="214" y="294" type="line"/>
      <point x="176" y="107" type="line"/>
      <point x="444" y="107" type="line"/>
    </contour>
  </outline>
</glyph>
<glyph name="lslash" format="2">
  <advance width="286"/>
  <unicode hex="0142"/>
  <outline>
    <contour>
      <point x="209" y="0" type="line"/>
      <point x="122" y="0" type="line" smooth="yes"/>
      <point x="79" y="0"/>
      <point x="40" y="42"/>
      <point x="40" y="73" type="qcurve" smooth="yes"/>
      <point x="40" y="83"/>
      <point x="84" y="306" type="qcurve"/>
      <point x="10" y="282" type="line"/>
      <point x="29" y="374" type="line"/>
      <point x="103" y="398" type="line"/>
      <point x="171" y="740" type="line"/>
      <point x="288" y="740" type="line"/>
      <point x="228" y="440" type="line"/>
      <point x="331" y="474" type="line"/>
      <point x="313" y="382" type="line"/>
      <point x="209" y="348" type="line"/>
      <point x="159" y="95" type="line"/>
      <point x="228" y="95" type="line"/>
    </contour>
  </outline>
</glyph>
<glyph name="Nacute" format="2">
  <advance width="694"/>
  <unicode hex="0143"/>
  <outline>
    <contour>
      <point x="560" y="0" type="line"/>
      <point x="428" y="0" type="line"/>
      <point x="299" y="369" type="line"/>
      <point x="253" y="518" type="line"/>
      <point x="247" y="518" type="line"/>
      <point x="143" y="0" type="line"/>
      <point x="29" y="0" type="line"/>
      <point x="169" y="698" type="line"/>
      <point x="301" y="698" type="line"/>
      <point x="429" y="329" type="line"/>
      <point x="476" y="180" type="line"/>
      <point x="482" y="180" type="line"/>
      <point x="586" y="698" type="line"/>
      <point x="700" y="698" type="line"/>
    </contour>
    <contour>
      <point x="461" y="746" type="line"/>
      <point x="390" y="784" type="line"/>
      <point x="503" y="966" type="line"/>
      <point x="598" y="916" type="line"/>
    </contour>
  </outline>
</glyph>
<glyph name="ncedilla" format="2">
  <advance width="578"/>
  <unicode hex="0146"/>
  <outline>
    <contour>
      <point x="509" y="0" type="line"/>
      <point x="426" y="0" type="line"/>
      <point x="350" y="2"/>
      <point x="350" y="69" type="qcurve"/>
      <point x="350" y="101"/>
      <point x="363" y="151" type="qcurve"/>
      <point x="374" y="203" type="line"/>
      <point x="403" y="326"/>
      <point x="403" y="369" type="qcurve"/>
      <point x="403" y="435"/>
      <point x="340" y="435" type="qcurve"/>
      <point x="304" y="435"/>
      <point x="242" y="387"/>
      <point x="201" y="315"/>
      <point x="194" y="277" type="qcurve"/>
      <point x="139" y="0" type="line"/>
      <point x="23" y="0" type="line"/>
      <point x="127" y="522" type="line"/>
      <point x="243" y="522" type="line"/>
      <point x="220" y="407" type="line"/>
      <point x="226" y="407" type="line"/>
      <point x="254" y="468"/>
      <point x="335" y="534"/>
      <point x="394" y="534" type="qcurve"/>
      <point x="461" y="534"/>
      <point x="522" y="457"/>
      <point x="522" y="395" type="qcurve"/>
      <point x="522" y="355"/>
      <point x="512" y="313" type="qcurve"/>
      <point x="468" y="95" type="line"/>
      <point x="528" y="95" type="line"/>
    </contour>
    <contour>
      <point x="212" y="-264" type="qcurve"/>
      <point x="139" y="-264" type="line"/>
      <point x="165" y="-241"/>
      <point x="196" y="-200"/>
      <point x="210" y="-173" type="qcurve"/>
      <point x="180" y="-167"/>
      <point x="177" y="-141" type="qcurve"/>
      <point x="176" y="-130" type="line"/>
      <point x="177" y="-119" type="line"/>
      <point x="177" y="-86"/>
      <point x="222" y="-51"/>
      <point x="247" y="-51" type="qcurve"/>
      <point x="301" y="-51"/>
      <point x="301" y="-97" type="qcurve"/>
      <point x="300" y="-99"/>
      <point x="300" y="-107"/>
      <point x="297" y="-127" type="qcurve"/>
      <point x="274" y="-212"/>
    </contour>
  </outline>
</glyph>
<glyph name="Ncaron" format="2">
  <advance width="694"/>
  <unicode hex="0147"/>
  <outline>
    <contour>
      <point x="502" y="756" type="line"/>
      <point x="390" y="756" type="line"/>
      <point x="296" y="909" type="line"/>
      <point x="358" y="956" type="line"/>
      <point x="452" y="841" type="line"/>
      <point x="591" y="956" type="line"/>
      <point x="651" y="909" type="line"/>
    </contour>
    <contour>
      <point x="560" y="0" type="line"/>
      <point x="428" y="0" type="line"/>
      <point x="299" y="369" type="line"/>
      <point x="253" y="518" type="line"/>
      <point x="247" y="518" type="line"/>
      <point x="143" y="0" type="line"/>
      <point x="29" y="0" type="line"/>
      <point x="169" y="698" type="line"/>
      <point x="301" y="698" type="line"/>
      <point x="429" y="329" type="line"/>
      <point x="476" y="180" type="line"/>
      <point x="482" y="180" type="line"/>
      <point x="586" y="698" type="line"/>
      <point x="700" y="698" type="line"/>
    </contour>
  </outline>
</glyph>
<glyph name="Eng" format="2">
  <advance width="694"/>
  <unicode hex="014A"/>
  <outline>
    <contour>
      <point x="399" y="-200" type="qcurve" smooth="yes"/>
      <point x="321" y="-200" type="line"/>
      <point x="341" y="-104" type="line"/>
      <point x="426" y="-104" type="line"/>
      <point x="447" y="0" type="line"/>
      <point x="428" y="0" type="line"/>
      <point x="315" y="326" type="line"/>
      <point x="289" y="398"/>
      <point x="277" y="440" type="qcurve" smooth="yes"/>
      <point x="253" y="518" type="line"/>
      <point x="247" y="518" type="line"/>
      <point x="143" y="0" type="line"/>
      <point x="29" y="0" type="line"/>
      <point x="169" y="698" type="line"/>
      <point x="301" y="698" type="line"/>
      <point x="434" y="314" type="line"/>
      <point x="476" y="180" type="line"/>
      <point x="482" y="180" type="line"/>
      <point x="586" y="698" type="line"/>
      <point x="700" y="698" type="line"/>
      <point x="546" y="-72" type="line"/>
      <point x="524" y="-200"/>
    </contour>
  </outline>
</glyph>
<glyph name="eng" format="2">
  <advance width="577"/>
  <unicode hex="014B"/>
  <outline>
    <contour>
      <point x="291" y="-200" type="qcurve"/>
      <point x="216" y="-200" type="line"/>
      <point x="235" y="-106" type="line"/>
      <point x="313" y="-106" type="line"/>
      <point x="398" y="322" type="line"/>
      <point x="403" y="350"/>
      <point x="403" y="367" type="qcurve"/>
      <point x="403" y="435"/>
      <point x="341" y="435" type="qcurve"/>
      <point x="301" y="435"/>
      <point x="241" y="386"/>
      <point x="203" y="317"/>
      <point x="196" y="286" type="qcurve"/>
      <point x="139" y="0" type="line"/>
      <point x="23" y="0" type="line"/>
      <point x="127" y="522" type="line"/>
      <point x="243" y="522" type="line"/>
      <point x="220" y="407" type="line"/>
      <point x="226" y="407" type="line"/>
      <point x="283" y="534"/>
      <point x="393" y="534" type="qcurve"/>
      <point x="461" y="534"/>
      <point x="522" y="458"/>
      <point x="522" y="394" type="qcurve"/>
      <point x="522" y="362"/>
      <point x="515" y="324" type="qcurve"/>
      <point x="435" y="-75" type="line"/>
      <point x="415" y="-200"/>
    </contour>
  </outline>
</glyph>
<glyph name="obreve" format="2">
  <advance width="546"/>
  <unicode hex="014F"/>
  <outline>
    <contour>
      <point x="331" y="586" type="qcurve" smooth="yes"/>
      <point x="282" y="586"/>
      <point x="217" y="633"/>
      <point x="181" y="704"/>
      <point x="176" y="742" type="qcurve"/>
      <point x="243" y="776" type="line"/>
      <point x="255" y="748" type="line" smooth="yes"/>
      <point x="272" y="710"/>
      <point x="305" y="672"/>
      <point x="337" y="672" type="qcurve" smooth="yes"/>
      <point x="369" y="672"/>
      <point x="415" y="716"/>
      <point x="449" y="761" type="qcurve" smooth="yes"/>
      <point x="460" y="776" type="line"/>
      <point x="529" y="740" type="line"/>
      <point x="456" y="586"/>
    </contour>
    <contour>
      <point x="239" y="-12" type="qcurve" smooth="yes"/>
      <point x="151" y="-12"/>
      <point x="38" y="94"/>
      <point x="38" y="204" type="qcurve" smooth="yes"/>
      <point x="38" y="288"/>
      <point x="102" y="439"/>
      <point x="222" y="534"/>
      <point x="307" y="534" type="qcurve" smooth="yes"/>
      <point x="394" y="534"/>
      <point x="508" y="427"/>
      <point x="508" y="317" type="qcurve" smooth="yes"/>
      <point x="508" y="178"/>
      <point x="353" y="-12"/>
    </contour>
    <contour>
      <point x="246" y="84" type="qcurve" smooth="yes"/>
      <point x="344" y="84"/>
      <point x="373" y="225" type="qcurve" smooth="yes"/>
      <point x="389" y="301" type="line"/>
      <point x="393" y="313"/>
      <point x="393" y="340" type="qcurve"/>
      <point x="392" y="384"/>
      <point x="347" y="437"/>
      <point x="300" y="437" type="qcurve" smooth="yes"/>
      <point x="203" y="437"/>
      <point x="173" y="297" type="qcurve" smooth="yes"/>
      <point x="157" y="220" type="line"/>
      <point x="153" y="204"/>
      <point x="153" y="182" type="qcurve" smooth="yes"/>
      <point x="153" y="138"/>
      <point x="196" y="84"/>
    </contour>
  </outline>
</glyph>
<glyph name="odoubleacute" format="2">
  <advance width="546"/>
  <unicode hex="0151"/>
  <outline>
    <contour>
      <point x="239" y="-12" type="qcurve"/>
      <point x="151" y="-12"/>
      <point x="38" y="94"/>
      <point x="38" y="204" type="qcurve"/>
      <point x="38" y="288"/>
      <point x="102" y="439"/>
      <point x="222" y="534"/>
      <point x="307" y="534" type="qcurve"/>
      <point x="394" y="534"/>
      <point x="508" y="427"/>
      <point x="508" y="317" type="qcurve"/>
      <point x="508" y="178"/>
      <point x="353" y="-12"/>
    </contour>
    <contour>
      <point x="246" y="84" type="qcurve"/>
      <point x="344" y="84"/>
      <point x="373" y="225" type="qcurve"/>
      <point x="389" y="301" type="line"/>
      <point x="393" y="313"/>
      <point x="393" y="340" type="qcurve"/>
      <point x="392" y="384"/>
      <point x="347" y="437"/>
      <point x="300" y="437" type="qcurve"/>
      <point x="203" y="437"/>
      <point x="173" y="297" type="qcurve"/>
      <point x="157" y="220" type="line"/>
      <point x="153" y="204"/>
      <point x="153" y="182" type="qcurve"/>
      <point x="153" y="138"/>
      <point x="196" y="84"/>
    </contour>
    <contour>
      <point x="252" y="582" type="line"/>
      <point x="187" y="614" type="line"/>
      <point x="297" y="799" type="line"/>
      <point x="386" y="751" type="line"/>
    </contour>
    <contour>
      <point x="432" y="582" type="line"/>
      <point x="368" y="614" type="line"/>
      <point x="478" y="799" type="line"/>
      <point x="567" y="751" type="line"/>
    </contour>
  </outline>
</glyph>
<glyph name="OE" format="2">
  <advance width="950"/>
  <unicode hex="0152"/>
  <outline>
    <contour>
      <point x="301" y="-12" type="line"/>
      <point x="247" y="-12"/>
      <point x="156" y="25"/>
      <point x="92" y="98"/>
      <point x="56" y="206"/>
      <point x="56" y="276" type="qcurve"/>
      <point x="56" y="365"/>
      <point x="107" y="521"/>
      <point x="202" y="640"/>
      <point x="338" y="710"/>
      <point x="420" y="710" type="qcurve"/>
      <point x="485" y="710"/>
      <point x="549" y="698" type="qcurve"/>
      <point x="980" y="698" type="line"/>
      <point x="958" y="591" type="line"/>
      <point x="645" y="591" type="line"/>
      <point x="608" y="406" type="line"/>
      <point x="887" y="406" type="line"/>
      <point x="865" y="299" type="line"/>
      <point x="587" y="299" type="line"/>
      <point x="548" y="107" type="line"/>
      <point x="874" y="107" type="line"/>
      <point x="853" y="0" type="line"/>
      <point x="408" y="0" type="line"/>
      <point x="387" y="-4"/>
      <point x="369" y="-6" type="qcurve"/>
      <point x="286" y="-12" type="line"/>
    </contour>
    <contour>
      <point x="327" y="96" type="qcurve"/>
      <point x="373" y="96"/>
      <point x="428" y="109" type="qcurve"/>
      <point x="524" y="590" type="line"/>
      <point x="476" y="602"/>
      <point x="415" y="602" type="qcurve"/>
      <point x="243" y="602"/>
      <point x="204" y="403" type="qcurve"/>
      <point x="185" y="305" type="line"/>
      <point x="178" y="270"/>
      <point x="178" y="243" type="qcurve"/>
      <point x="178" y="96"/>
    </contour>
  </outline>
</glyph>
<glyph name="oe" format="2">
  <advance width="852"/>
  <unicode hex="0153"/>
  <outline>
    <contour>
      <point x="246" y="84" type="qcurve"/>
      <point x="344" y="84"/>
      <point x="373" y="225" type="qcurve"/>
      <point x="389" y="301" type="line"/>
      <point x="393" y="313"/>
      <point x="393" y="340" type="qcurve"/>
      <point x="392" y="384"/>
      <point x="347" y="437"/>
      <point x="300" y="437" type="qcurve"/>
      <point x="203" y="437"/>
      <point x="173" y="297" type="qcurve"/>
      <point x="157" y="220" type="line"/>
      <point x="153" y="204"/>
      <point x="153" y="182" type="qcurve"/>
      <point x="153" y="138"/>
      <point x="196" y="84"/>
    </contour>
    <contour>
      <point x="507" y="291" type="line"/>
      <point x="631" y="296"/>
      <point x="722" y="338"/>
      <point x="722" y="382" type="qcurve"/>
      <point x="722" y="441"/>
      <point x="657" y="442" type="qcurve"/>
      <point x="652" y="442"/>
      <point x="648" y="443" type="qcurve"/>
      <point x="639" y="442" type="line"/>
      <point x="588" y="439"/>
      <point x="523" y="371"/>
      <point x="512" y="316" type="qcurve"/>
    </contour>
    <contour>
      <point x="590" y="-12" type="qcurve"/>
      <point x="466" y="-12"/>
      <point x="420" y="82" type="qcurve"/>
      <point x="414" y="82" type="line"/>
      <point x="348" y="-12"/>
      <point x="234" y="-12" type="qcurve"/>
      <point x="147" y="-12"/>
      <point x="38" y="102"/>
      <point x="38" y="204" type="qcurve"/>
      <point x="38" y="293"/>
      <point x="105" y="443"/>
      <point x="227" y="534"/>
      <point x="309" y="534" type="qcurve"/>
      <point x="423" y="534"/>
      <point x="465" y="438" type="qcurve"/>
      <point x="471" y="438" type="line"/>
      <point x="543" y="534"/>
      <point x="657" y="534" type="qcurve"/>
      <point x="728" y="534"/>
      <point x="836" y="460"/>
      <point x="836" y="394" type="qcurve"/>
      <point x="836" y="304"/>
      <point x="664" y="216"/>
      <point x="494" y="213" type="qcurve"/>
      <point x="492" y="198"/>
      <point x="492" y="182" type="qcurve"/>
      <point x="492" y="84"/>
      <point x="598" y="84" type="qcurve"/>
      <point x="678" y="84"/>
      <point x="736" y="161" type="qcurve"/>
      <point x="808" y="101" type="line"/>
      <point x="720" y="-12"/>
    </contour>
  </outline>
</glyph>
<glyph name="racute" format="2">
  <advance width="383"/>
  <unicode hex="0155"/>
  <outline>
    <contour>
      <point x="139" y="0" type="line"/>
      <point x="23" y="0" type="line"/>
      <point x="127" y="522" type="line"/>
      <point x="243" y="522" type="line"/>
      <point x="220" y="404" type="line"/>
      <point x="226" y="404" type="line"/>
      <point x="245" y="452"/>
      <point x="329" y="522"/>
      <point x="381" y="522" type="qcurve"/>
      <point x="409" y="522" type="line"/>
      <point x="385" y="408" type="line"/>
      <point x="350" y="408" type="line"/>
      <point x="281" y="408"/>
      <point x="207" y="349"/>
      <point x="196" y="288" type="qcurve"/>
    </contour>
    <contour>
      <point x="286" y="581" type="line"/>
      <point x="216" y="619" type="line"/>
      <point x="329" y="802" type="line"/>
      <point x="424" y="751" type="line"/>
    </contour>
  </outline>
</glyph>
<glyph name="uni0156" format="2">
  <advance width="644"/>
  <unicode hex="0156"/>
  <outline>
    <contour>
      <point x="543" y="0" type="line"/>
      <point x="414" y="0" type="line"/>
      <point x="335" y="275" type="line"/>
      <point x="204" y="275" type="line"/>
      <point x="149" y="0" type="line"/>
      <point x="29" y="0" type="line"/>
      <point x="169" y="698" type="line"/>
      <point x="432" y="698" type="line" smooth="yes"/>
      <point x="534" y="698"/>
      <point x="628" y="599"/>
      <point x="628" y="523" type="qcurve" smooth="yes"/>
      <point x="628" y="443"/>
      <point x="536" y="315"/>
      <point x="453" y="289" type="qcurve"/>
    </contour>
    <contour>
      <point x="388" y="378" type="line" smooth="yes"/>
      <point x="427" y="378"/>
      <point x="479" y="423"/>
      <point x="504" y="492"/>
      <point x="504" y="527" type="qcurve" smooth="yes"/>
      <point x="504" y="591"/>
      <point x="428" y="591" type="qcurve" smooth="yes"/>
      <point x="268" y="591" type="line"/>
      <point x="225" y="378" type="line"/>
    </contour>
    <contour>
      <point x="233" y="-264" type="qcurve"/>
      <point x="160" y="-264" type="line"/>
      <point x="186" y="-241"/>
      <point x="217" y="-200"/>
      <point x="231" y="-173" type="qcurve"/>
      <point x="201" y="-167"/>
      <point x="198" y="-141" type="qcurve" smooth="yes"/>
      <point x="197" y="-130" type="line"/>
      <point x="198" y="-119" type="line"/>
      <point x="198" y="-86"/>
      <point x="243" y="-51"/>
      <point x="268" y="-51" type="qcurve" smooth="yes"/>
      <point x="322" y="-51"/>
      <point x="322" y="-97" type="qcurve"/>
      <point x="321" y="-99"/>
      <point x="321" y="-107"/>
      <point x="318" y="-127" type="qcurve"/>
      <point x="295" y="-212"/>
    </contour>
  </outline>
</glyph>
<glyph name="rcedilla" format="2">
  <advance width="383"/>
  <unicode hex="0157"/>
  <outline>
    <contour>
      <point x="139" y="0" type="line"/>
      <point x="23" y="0" type="line"/>
      <point x="127" y="522" type="line"/>
      <point x="243" y="522" type="line"/>
      <point x="220" y="404" type="line"/>
      <point x="226" y="404" type="line"/>
      <point x="245" y="452"/>
      <point x="329" y="522"/>
      <point x="381" y="522" type="qcurve"/>
      <point x="409" y="522" type="line"/>
      <point x="385" y="408" type="line"/>
      <point x="350" y="408" type="line"/>
      <point x="281" y="408"/>
      <point x="207" y="349"/>
      <point x="196" y="288" type="qcurve"/>
    </contour>
    <contour>
      <point x="33" y="-264" type="qcurve"/>
      <point x="-40" y="-264" type="line"/>
      <point x="-14" y="-243"/>
      <point x="18" y="-200"/>
      <point x="31" y="-173" type="qcurve"/>
      <point x="-3" y="-167"/>
      <point x="-3" y="-133" type="qcurve"/>
      <point x="-3" y="-121"/>
      <point x="2" y="-103" type="qcurve"/>
      <point x="15" y="-51"/>
      <point x="69" y="-51" type="qcurve"/>
      <point x="100" y="-51"/>
      <point x="122" y="-76"/>
      <point x="122" y="-102" type="qcurve"/>
      <point x="122" y="-111"/>
      <point x="119" y="-122"/>
      <point x="118" y="-127" type="qcurve"/>
      <point x="95" y="-212"/>
    </contour>
  </outline>
</glyph>
<glyph name="rcaron" format="2">
  <advance width="383"/>
  <unicode hex="0159"/>
  <outline>
    <contour>
      <point x="327" y="592" type="line"/>
      <point x="214" y="592" type="line"/>
      <point x="121" y="745" type="line"/>
      <point x="183" y="792" type="line"/>
      <point x="277" y="676" type="line"/>
      <point x="415" y="792" type="line"/>
      <point x="475" y="745" type="line"/>
    </contour>
    <contour>
      <point x="139" y="0" type="line"/>
      <point x="23" y="0" type="line"/>
      <point x="127" y="522" type="line"/>
      <point x="243" y="522" type="line"/>
      <point x="220" y="404" type="line"/>
      <point x="226" y="404" type="line"/>
      <point x="245" y="452"/>
      <point x="329" y="522"/>
      <point x="381" y="522" type="qcurve" smooth="yes"/>
      <point x="409" y="522" type="line"/>
      <point x="385" y="408" type="line"/>
      <point x="350" y="408" type="line" smooth="yes"/>
      <point x="281" y="408"/>
      <point x="207" y="349"/>
      <point x="196" y="288" type="qcurve"/>
    </contour>
  </outline>
</glyph>
<glyph name="tcaron" format="2">
  <advance width="349"/>
  <unicode hex="0165"/>
  <outline>
    <contour>
      <point x="258" y="0" type="line"/>
      <point x="167" y="0" type="line"/>
      <point x="71" y="0"/>
      <point x="65" y="76" type="qcurve"/>
      <point x="64" y="87" type="line"/>
      <point x="65" y="107" type="line"/>
      <point x="128" y="426" type="line"/>
      <point x="52" y="426" type="line"/>
      <point x="71" y="522" type="line"/>
      <point x="109" y="522" type="line"/>
      <point x="138" y="522"/>
      <point x="161" y="545"/>
      <point x="165" y="573" type="qcurve"/>
      <point x="183" y="664" type="line"/>
      <point x="291" y="664" type="line"/>
      <point x="263" y="522" type="line"/>
      <point x="368" y="522" type="line"/>
      <point x="349" y="426" type="line"/>
      <point x="243" y="426" type="line"/>
      <point x="178" y="95" type="line"/>
      <point x="277" y="95" type="line"/>
    </contour>
    <contour>
      <point x="406" y="573" type="line"/>
      <point x="326" y="573" type="line"/>
      <point x="371" y="777" type="line"/>
      <point x="503" y="777" type="line"/>
    </contour>
  </outline>
</glyph>
<glyph name="Tbar" format="2">
  <advance width="564"/>
  <unicode hex="0166"/>
  <outline>
    <contour>
      <point x="290" y="0" type="line"/>
      <point x="170" y="0" type="line"/>
      <point x="230" y="300" type="line"/>
      <point x="82" y="300" type="line"/>
      <point x="100" y="391" type="line"/>
      <point x="248" y="391" type="line"/>
      <point x="288" y="591" type="line"/>
      <point x="93" y="591" type="line"/>
      <point x="115" y="698" type="line"/>
      <point x="625" y="698" type="line"/>
      <point x="604" y="591" type="line"/>
      <point x="409" y="591" type="line"/>
      <point x="369" y="391" type="line"/>
      <point x="517" y="391" type="line"/>
      <point x="499" y="300" type="line"/>
      <point x="350" y="300" type="line"/>
    </contour>
  </outline>
</glyph>
<glyph name="tbar" format="2">
  <advance width="347"/>
  <unicode hex="0167"/>
  <outline>
    <contour>
      <point x="260" y="0" type="line"/>
      <point x="189" y="0" type="line"/>
      <point x="127" y="0"/>
      <point x="68" y="35"/>
      <point x="67" y="77" type="qcurve"/>
      <point x="66" y="98" type="line"/>
      <point x="68" y="107"/>
      <point x="70" y="128"/>
      <point x="92" y="235" type="qcurve"/>
      <point x="33" y="235" type="line"/>
      <point x="48" y="315" type="line"/>
      <point x="107" y="315" type="line"/>
      <point x="130" y="426" type="line"/>
      <point x="54" y="426" type="line"/>
      <point x="73" y="522" type="line"/>
      <point x="111" y="522" type="line"/>
      <point x="139" y="522"/>
      <point x="162" y="545"/>
      <point x="167" y="573" type="qcurve"/>
      <point x="185" y="664" type="line"/>
      <point x="293" y="664" type="line"/>
      <point x="265" y="522" type="line"/>
      <point x="370" y="522" type="line"/>
      <point x="351" y="426" type="line"/>
      <point x="245" y="426" type="line"/>
      <point x="223" y="315" type="line"/>
      <point x="314" y="315" type="line"/>
      <point x="298" y="235" type="line"/>
      <point x="207" y="235" type="line"/>
      <point x="179" y="95" type="line"/>
      <point x="279" y="95" type="line"/>
    </contour>
  </outline>
</glyph>
<glyph name="Umacron" format="2">
  <advance width="669"/>
  <unicode hex="016A"/>
  <outline>
    <contour>
      <point x="297" y="-12" type="qcurve"/>
      <point x="184" y="-12"/>
      <point x="76" y="103"/>
      <point x="76" y="205" type="qcurve"/>
      <point x="76" y="247"/>
      <point x="86" y="300" type="qcurve"/>
      <point x="165" y="698" type="line"/>
      <point x="285" y="698" type="line"/>
      <point x="201" y="278" type="line"/>
      <point x="193" y="240"/>
      <point x="193" y="211" type="qcurve"/>
      <point x="196" y="99"/>
      <point x="305" y="99" type="qcurve"/>
      <point x="376" y="99"/>
      <point x="456" y="185"/>
      <point x="473" y="275" type="qcurve"/>
      <point x="526" y="542"/>
      <point x="558" y="698" type="qcurve"/>
      <point x="677" y="698" type="line"/>
      <point x="593" y="276" type="line"/>
      <point x="564" y="124"/>
      <point x="425" y="-12"/>
    </contour>
    <contour>
      <point x="572" y="795" type="line"/>
      <point x="296" y="795" type="line"/>
      <point x="314" y="883" type="line"/>
      <point x="590" y="883" type="line"/>
    </contour>
  </outline>
</glyph>
<glyph name="Ubreve" format="2">
  <advance width="669"/>
  <unicode hex="016C"/>
  <outline>
    <contour>
      <point x="431" y="750" type="qcurve" smooth="yes"/>
      <point x="384" y="750"/>
      <point x="317" y="795"/>
      <point x="280" y="866"/>
      <point x="276" y="906" type="qcurve"/>
      <point x="342" y="940" type="line"/>
      <point x="355" y="912" type="line"/>
      <point x="371" y="875"/>
      <point x="404" y="835"/>
      <point x="436" y="835" type="qcurve" smooth="yes"/>
      <point x="471" y="835"/>
      <point x="519" y="883"/>
      <point x="552" y="931" type="qcurve"/>
      <point x="559" y="940" type="line"/>
      <point x="629" y="904" type="line"/>
      <point x="610" y="863"/>
      <point x="553" y="794"/>
      <point x="478" y="750"/>
    </contour>
    <contour>
      <point x="297" y="-12" type="qcurve" smooth="yes"/>
      <point x="184" y="-12"/>
      <point x="76" y="103"/>
      <point x="76" y="205" type="qcurve" smooth="yes"/>
      <point x="76" y="247"/>
      <point x="86" y="300" type="qcurve" smooth="yes"/>
      <point x="165" y="698" type="line"/>
      <point x="285" y="698" type="line"/>
      <point x="201" y="278" type="line" smooth="yes"/>
      <point x="193" y="240"/>
      <point x="193" y="211" type="qcurve"/>
      <point x="196" y="99"/>
      <point x="305" y="99" type="qcurve" smooth="yes"/>
      <point x="376" y="99"/>
      <point x="456" y="185"/>
      <point x="473" y="275" type="qcurve"/>
      <point x="526" y="542"/>
      <point x="558" y="698" type="qcurve"/>
      <point x="677" y="698" type="line"/>
      <point x="593" y="276" type="line"/>
      <point x="564" y="124"/>
      <point x="425" y="-12"/>
    </contour>
  </outline>
</glyph>
<glyph name="ubreve" format="2">
  <advance width="574"/>
  <unicode hex="016D"/>
  <outline>
    <contour>
      <point x="346" y="586" type="qcurve" smooth="yes"/>
      <point x="297" y="586"/>
      <point x="232" y="633"/>
      <point x="196" y="704"/>
      <point x="191" y="742" type="qcurve"/>
      <point x="258" y="776" type="line"/>
      <point x="270" y="748" type="line" smooth="yes"/>
      <point x="287" y="710"/>
      <point x="320" y="672"/>
      <point x="352" y="672" type="qcurve" smooth="yes"/>
      <point x="384" y="672"/>
      <point x="430" y="716"/>
      <point x="464" y="761" type="qcurve" smooth="yes"/>
      <point x="475" y="776" type="line"/>
      <point x="544" y="740" type="line"/>
      <point x="471" y="586"/>
    </contour>
    <contour>
      <point x="176" y="-12" type="qcurve" smooth="yes"/>
      <point x="110" y="-12"/>
      <point x="49" y="64"/>
      <point x="49" y="127" type="qcurve" smooth="yes"/>
      <point x="49" y="162"/>
      <point x="57" y="199" type="qcurve" smooth="yes"/>
      <point x="121" y="522" type="line"/>
      <point x="237" y="522" type="line"/>
      <point x="175" y="207" type="line"/>
      <point x="168" y="179"/>
      <point x="168" y="154" type="qcurve" smooth="yes"/>
      <point x="168" y="87"/>
      <point x="228" y="87" type="qcurve" smooth="yes"/>
      <point x="279" y="87"/>
      <point x="358" y="186"/>
      <point x="371" y="246" type="qcurve"/>
      <point x="427" y="522" type="line"/>
      <point x="543" y="522" type="line"/>
      <point x="457" y="95" type="line"/>
      <point x="521" y="95" type="line"/>
      <point x="503" y="0" type="line"/>
      <point x="418" y="0" type="line"/>
      <point x="340" y="4"/>
      <point x="340" y="72" type="qcurve" smooth="yes"/>
      <point x="340" y="85"/>
      <point x="344" y="106" type="qcurve"/>
      <point x="345" y="115" type="line"/>
      <point x="340" y="115" type="line"/>
      <point x="309" y="50"/>
      <point x="231" y="-12"/>
    </contour>
  </outline>
</glyph>
<glyph name="Uring" format="2">
  <advance width="669"/>
  <unicode hex="016E"/>
  <outline>
    <contour>
      <point x="425" y="729" type="qcurve" smooth="yes"/>
      <point x="372" y="729"/>
      <point x="308" y="792"/>
      <point x="308" y="842" type="qcurve" smooth="yes"/>
      <point x="308" y="908"/>
      <point x="395" y="994"/>
      <point x="460" y="994" type="qcurve" smooth="yes"/>
      <point x="509" y="994"/>
      <point x="577" y="933"/>
      <point x="577" y="880" type="qcurve" smooth="yes"/>
      <point x="577" y="811"/>
      <point x="487" y="729"/>
    </contour>
    <contour>
      <point x="431" y="793" type="qcurve" smooth="yes"/>
      <point x="466" y="793"/>
      <point x="498" y="855"/>
      <point x="498" y="890" type="qcurve" smooth="yes"/>
      <point x="498" y="930"/>
      <point x="454" y="930" type="qcurve" smooth="yes"/>
      <point x="426" y="930"/>
      <point x="397" y="895"/>
      <point x="387" y="849"/>
      <point x="387" y="834" type="qcurve" smooth="yes"/>
      <point x="387" y="793"/>
    </contour>
    <contour>
      <point x="297" y="-12" type="qcurve" smooth="yes"/>
      <point x="184" y="-12"/>
      <point x="76" y="103"/>
      <point x="76" y="205" type="qcurve" smooth="yes"/>
      <point x="76" y="247"/>
      <point x="86" y="300" type="qcurve" smooth="yes"/>
      <point x="165" y="698" type="line"/>
      <point x="285" y="698" type="line"/>
      <point x="201" y="278" type="line" smooth="yes"/>
      <point x="193" y="240"/>
      <point x="193" y="211" type="qcurve"/>
      <point x="196" y="99"/>
      <point x="305" y="99" type="qcurve" smooth="yes"/>
      <point x="376" y="99"/>
      <point x="456" y="185"/>
      <point x="473" y="275" type="qcurve"/>
      <point x="526" y="542"/>
      <point x="558" y="698" type="qcurve"/>
      <point x="677" y="698" type="line"/>
      <point x="593" y="276" type="line"/>
      <point x="564" y="124"/>
      <point x="425" y="-12"/>
    </contour>
  </outline>
</glyph>
<glyph name="Uhungarumlaut" format="2">
  <advance width="669"/>
  <unicode hex="0170"/>
  <outline>
    <contour>
      <point x="341" y="746" type="line"/>
      <point x="276" y="778" type="line"/>
      <point x="385" y="962" type="line"/>
      <point x="475" y="915" type="line"/>
    </contour>
    <contour>
      <point x="521" y="746" type="line"/>
      <point x="457" y="778" type="line"/>
      <point x="567" y="962" type="line"/>
      <point x="656" y="915" type="line"/>
    </contour>
    <contour>
      <point x="297" y="-12" type="qcurve" smooth="yes"/>
      <point x="184" y="-12"/>
      <point x="76" y="103"/>
      <point x="76" y="205" type="qcurve" smooth="yes"/>
      <point x="76" y="247"/>
      <point x="86" y="300" type="qcurve" smooth="yes"/>
      <point x="165" y="698" type="line"/>
      <point x="285" y="698" type="line"/>
      <point x="201" y="278" type="line" smooth="yes"/>
      <point x="193" y="240"/>
      <point x="193" y="211" type="qcurve"/>
      <point x="196" y="99"/>
      <point x="305" y="99" type="qcurve" smooth="yes"/>
      <point x="376" y="99"/>
      <point x="456" y="185"/>
      <point x="473" y="275" type="qcurve"/>
      <point x="526" y="542"/>
      <point x="558" y="698" type="qcurve"/>
      <point x="677" y="698" type="line"/>
      <point x="593" y="276" type="line"/>
      <point x="564" y="124"/>
      <point x="425" y="-12"/>
    </contour>
  </outline>
</glyph>
<glyph name="Uogonek" format="2">
  <advance width="669"/>
  <unicode hex="0172"/>
  <outline>
    <contour>
      <point x="291" y="-210" type="qcurve"/>
      <point x="249" y="-210"/>
      <point x="181" y="-173"/>
      <point x="181" y="-130" type="qcurve"/>
      <point x="181" y="-96"/>
      <point x="234" y="-35"/>
      <point x="293" y="-16" type="qcurve"/>
      <point x="292" y="-12" type="line"/>
      <point x="76" y="-3"/>
      <point x="76" y="205" type="qcurve"/>
      <point x="76" y="247"/>
      <point x="86" y="300" type="qcurve"/>
      <point x="165" y="698" type="line"/>
      <point x="285" y="698" type="line"/>
      <point x="201" y="278" type="line"/>
      <point x="193" y="240"/>
      <point x="193" y="211" type="qcurve"/>
      <point x="196" y="99"/>
      <point x="305" y="99" type="qcurve"/>
      <point x="376" y="99"/>
      <point x="456" y="185"/>
      <point x="473" y="275" type="qcurve"/>
      <point x="514" y="487"/>
      <point x="558" y="698" type="qcurve"/>
      <point x="677" y="698" type="line"/>
      <point x="593" y="276" type="line"/>
      <point x="564" y="137"/>
      <point x="467" y="22"/>
      <point x="394" y="-4" type="qcurve"/>
      <point x="271" y="-64"/>
      <point x="271" y="-115" type="qcurve"/>
      <point x="271" y="-145"/>
      <point x="305" y="-145" type="qcurve"/>
      <point x="339" y="-145"/>
      <point x="359" y="-118" type="qcurve"/>
      <point x="405" y="-165" type="line"/>
      <point x="368" y="-210"/>
    </contour>
  </outline>
</glyph>
<glyph name="uogonek" format="2">
  <advance width="574"/>
  <unicode hex="0173"/>
  <outline>
    <contour>
      <point x="404" y="-210" type="qcurve" smooth="yes"/>
      <point x="382" y="-210"/>
      <point x="342" y="-200"/>
      <point x="312" y="-181"/>
      <point x="295" y="-151"/>
      <point x="295" y="-130" type="qcurve" smooth="yes"/>
      <point x="295" y="-46"/>
      <point x="425" y="-5" type="qcurve"/>
      <point x="425" y="-2" type="line"/>
      <point x="424" y="-2"/>
      <point x="424" y="0" type="qcurve"/>
      <point x="341" y="3"/>
      <point x="341" y="74" type="qcurve" smooth="yes"/>
      <point x="341" y="94"/>
      <point x="345" y="115" type="qcurve"/>
      <point x="340" y="115" type="line"/>
      <point x="310" y="53"/>
      <point x="235" y="-12"/>
      <point x="176" y="-12" type="qcurve" smooth="yes"/>
      <point x="112" y="-12"/>
      <point x="49" y="61"/>
      <point x="49" y="127" type="qcurve" smooth="yes"/>
      <point x="49" y="145"/>
      <point x="51" y="164" type="qcurve" smooth="yes"/>
      <point x="52" y="172"/>
      <point x="121" y="522" type="qcurve"/>
      <point x="237" y="522" type="line"/>
      <point x="170" y="180" type="line"/>
      <point x="168" y="165"/>
      <point x="168" y="154" type="qcurve" smooth="yes"/>
      <point x="168" y="121"/>
      <point x="197" y="87"/>
      <point x="228" y="87" type="qcurve" smooth="yes"/>
      <point x="277" y="87"/>
      <point x="320" y="137" type="qcurve"/>
      <point x="359" y="185"/>
      <point x="371" y="246" type="qcurve" smooth="yes"/>
      <point x="427" y="522" type="line"/>
      <point x="543" y="522" type="line"/>
      <point x="457" y="95" type="line"/>
      <point x="521" y="95" type="line"/>
      <point x="503" y="0" type="line"/>
      <point x="431" y="-46"/>
      <point x="406" y="-71" type="qcurve" smooth="yes"/>
      <point x="384" y="-93"/>
      <point x="384" y="-115" type="qcurve" smooth="yes"/>
      <point x="384" y="-145"/>
      <point x="418" y="-145" type="qcurve" smooth="yes"/>
      <point x="453" y="-145"/>
      <point x="472" y="-118" type="qcurve"/>
      <point x="519" y="-165" type="line"/>
      <point x="481" y="-210"/>
    </contour>
  </outline>
</glyph>
<glyph name="Ydieresis" format="2">
  <advance width="606"/>
  <unicode hex="0178"/>
  <outline>
    <contour>
      <point x="309" y="0" type="line"/>
      <point x="189" y="0" type="line"/>
      <point x="244" y="272" type="line"/>
      <point x="96" y="698" type="line"/>
      <point x="219" y="698" type="line"/>
      <point x="322" y="386" type="line"/>
      <point x="327" y="386" type="line"/>
      <point x="547" y="698" type="line"/>
      <point x="682" y="698" type="line"/>
      <point x="363" y="264" type="line"/>
    </contour>
    <contour>
      <point x="293" y="771" type="qcurve"/>
      <point x="237" y="771"/>
      <point x="237" y="814" type="qcurve"/>
      <point x="237" y="850"/>
      <point x="272" y="905"/>
      <point x="317" y="905" type="qcurve"/>
      <point x="372" y="905"/>
      <point x="372" y="863" type="qcurve"/>
      <point x="372" y="825"/>
      <point x="337" y="771"/>
    </contour>
    <contour>
      <point x="485" y="771" type="qcurve"/>
      <point x="430" y="771"/>
      <point x="430" y="814" type="qcurve"/>
      <point x="430" y="850"/>
      <point x="465" y="905"/>
      <point x="510" y="905" type="qcurve"/>
      <point x="564" y="905"/>
      <point x="564" y="862" type="qcurve"/>
      <point x="564" y="771"/>
    </contour>
  </outline>
</glyph>
<glyph name="Zdotaccent" format="2">
  <advance width="568"/>
  <unicode hex="017B"/>
  <outline>
    <contour>
      <point x="386" y="765" type="qcurve" smooth="yes"/>
      <point x="323" y="765"/>
      <point x="323" y="815" type="qcurve" smooth="yes"/>
      <point x="323" y="839"/>
      <point x="336" y="882"/>
      <point x="373" y="909"/>
      <point x="408" y="909" type="qcurve" smooth="yes"/>
      <point x="467" y="909"/>
      <point x="470" y="866" type="qcurve"/>
      <point x="471" y="861" type="line"/>
      <point x="469" y="853"/>
      <point x="469" y="844"/>
      <point x="468" y="840" type="qcurve"/>
      <point x="464" y="765"/>
    </contour>
    <contour>
      <point x="481" y="0" type="line"/>
      <point x="-12" y="0" type="line"/>
      <point x="10" y="109" type="line"/>
      <point x="450" y="591" type="line"/>
      <point x="119" y="591" type="line"/>
      <point x="140" y="698" type="line"/>
      <point x="615" y="698" type="line"/>
      <point x="593" y="589" type="line"/>
      <point x="152" y="107" type="line"/>
      <point x="502" y="107" type="line"/>
    </contour>
  </outline>
</glyph>
<glyph name="zdotaccent" format="2">
  <advance width="475"/>
  <unicode hex="017C"/>
  <outline>
    <contour>
      <point x="308" y="600" type="qcurve" smooth="yes"/>
      <point x="246" y="600"/>
      <point x="246" y="650" type="qcurve" smooth="yes"/>
      <point x="246" y="688"/>
      <point x="278" y="744"/>
      <point x="331" y="744" type="qcurve" smooth="yes"/>
      <point x="366" y="744"/>
      <point x="393" y="718"/>
      <point x="393" y="691" type="qcurve" smooth="yes"/>
      <point x="393" y="687"/>
      <point x="391" y="679"/>
      <point x="391" y="676" type="qcurve"/>
      <point x="388" y="600"/>
    </contour>
    <contour>
      <point x="396" y="0" type="line"/>
      <point x="-9" y="0" type="line"/>
      <point x="10" y="95" type="line"/>
      <point x="329" y="427" type="line"/>
      <point x="78" y="427" type="line"/>
      <point x="97" y="522" type="line"/>
      <point x="487" y="522" type="line"/>
      <point x="468" y="427" type="line"/>
      <point x="148" y="95" type="line"/>
      <point x="415" y="95" type="line"/>
    </contour>
  </outline>
</glyph>
<glyph name="Zcaron" format="2">
  <advance width="568"/>
  <unicode hex="017D"/>
  <outline>
    <contour>
      <point x="438" y="756" type="line"/>
      <point x="326" y="756" type="line"/>
      <point x="232" y="909" type="line"/>
      <point x="295" y="956" type="line"/>
      <point x="389" y="841" type="line"/>
      <point x="527" y="956" type="line"/>
      <point x="587" y="909" type="line"/>
    </contour>
    <contour>
      <point x="481" y="0" type="line"/>
      <point x="-12" y="0" type="line"/>
      <point x="10" y="109" type="line"/>
      <point x="450" y="591" type="line"/>
      <point x="119" y="591" type="line"/>
      <point x="140" y="698" type="line"/>
      <point x="615" y="698" type="line"/>
      <point x="593" y="589" type="line"/>
      <point x="152" y="107" type="line"/>
      <point x="502" y="107" type="line"/>
    </contour>
  </outline>
</glyph>
<glyph name="zcaron" format="2">
  <advance width="475"/>
  <unicode hex="017E"/>
  <outline>
    <contour>
      <point x="396" y="0" type="line"/>
      <point x="-9" y="0" type="line"/>
      <point x="10" y="95" type="line"/>
      <point x="329" y="427" type="line"/>
      <point x="78" y="427" type="line"/>
      <point x="97" y="522" type="line"/>
      <point x="487" y="522" type="line"/>
      <point x="468" y="427" type="line"/>
      <point x="148" y="95" type="line"/>
      <point x="415" y="95" type="line"/>
    </contour>
    <contour>
      <point x="361" y="592" type="line"/>
      <point x="248" y="592" type="line"/>
      <point x="155" y="745" type="line"/>
      <point x="217" y="792" type="line"/>
      <point x="311" y="676" type="line"/>
      <point x="449" y="792" type="line"/>
      <point x="509" y="745" type="line"/>
    </contour>
  </outline>
</glyph>
<glyph name="Aringacute" format="2">
  <advance width="645"/>
  <unicode hex="01FA"/>
  <outline>
    <contour>
      <point x="573" y="0" type="line"/>
      <point x="450" y="0" type="line"/>
      <point x="430" y="183" type="line"/>
      <point x="189" y="183" type="line"/>
      <point x="97" y="0" type="line"/>
      <point x="-32" y="0" type="line"/>
      <point x="333" y="698" type="line"/>
      <point x="488" y="698" type="line"/>
    </contour>
    <contour>
      <point x="421" y="286" type="line"/>
      <point x="392" y="588" type="line"/>
      <point x="385" y="588" type="line"/>
      <point x="238" y="286" type="line"/>
    </contour>
    <contour>
      <point x="461" y="979" type="line"/>
      <point x="418" y="1024" type="line"/>
      <point x="542" y="1141" type="line"/>
      <point x="600" y="1078" type="line"/>
    </contour>
    <contour>
      <point x="416" y="729" type="qcurve"/>
      <point x="367" y="729"/>
      <point x="299" y="780"/>
      <point x="299" y="830" type="qcurve"/>
      <point x="299" y="894"/>
      <point x="388" y="965"/>
      <point x="453" y="965" type="qcurve"/>
      <point x="502" y="965"/>
      <point x="570" y="914"/>
      <point x="570" y="864" type="qcurve"/>
      <point x="570" y="799"/>
      <point x="478" y="729"/>
    </contour>
    <contour>
      <point x="425" y="790" type="qcurve"/>
      <point x="489" y="790"/>
      <point x="490" y="866" type="qcurve"/>
      <point x="490" y="904"/>
      <point x="444" y="904" type="qcurve"/>
      <point x="385" y="904"/>
      <point x="380" y="828" type="qcurve"/>
      <point x="380" y="790"/>
    </contour>
  </outline>
</glyph>
<glyph name="uni021B" format="2">
  <advance width="340"/>
  <unicode hex="021B"/>
  <outline>
    <contour>
      <point x="257" y="0" type="line"/>
      <point x="166" y="0" type="line" smooth="yes"/>
      <point x="70" y="0"/>
      <point x="64" y="76" type="qcurve" smooth="yes"/>
      <point x="63" y="86" type="line"/>
      <point x="65" y="115"/>
      <point x="67" y="125" type="qcurve" smooth="yes"/>
      <point x="128" y="426" type="line"/>
      <point x="52" y="426" type="line"/>
      <point x="70" y="522" type="line"/>
      <point x="108" y="522" type="line" smooth="yes"/>
      <point x="138" y="522"/>
      <point x="160" y="546"/>
      <point x="164" y="573" type="qcurve"/>
      <point x="182" y="664" type="line"/>
      <point x="290" y="664" type="line"/>
      <point x="262" y="522" type="line"/>
      <point x="367" y="522" type="line"/>
      <point x="348" y="426" type="line"/>
      <point x="243" y="426" type="line"/>
      <point x="177" y="95" type="line"/>
      <point x="276" y="95" type="line"/>
    </contour>
    <contour>
      <point x="102" y="-264" type="qcurve"/>
      <point x="29" y="-264" type="line"/>
      <point x="76" y="-224"/>
      <point x="100" y="-173" type="qcurve"/>
      <point x="66" y="-167"/>
      <point x="66" y="-133" type="qcurve" smooth="yes"/>
      <point x="66" y="-121"/>
      <point x="71" y="-103" type="qcurve" smooth="yes"/>
      <point x="84" y="-51"/>
      <point x="138" y="-51" type="qcurve" smooth="yes"/>
      <point x="169" y="-51"/>
      <point x="191" y="-76"/>
      <point x="191" y="-102" type="qcurve" smooth="yes"/>
      <point x="191" y="-111"/>
      <point x="188" y="-122"/>
      <point x="187" y="-127" type="qcurve" smooth="yes"/>
      <point x="164" y="-212"/>
    </contour>
  </outline>
</glyph>
<glyph name="uni02BB" format="2">
  <advance width="600"/>
  <unicode hex="02BB"/>
  <outline>
    <contour>
      <point x="311" y="583" type="qcurve"/>
      <point x="256" y="584"/>
      <point x="256" y="628" type="qcurve" smooth="yes"/>
      <point x="256" y="674"/>
      <point x="311" y="768"/>
      <point x="345" y="796" type="qcurve"/>
      <point x="418" y="796" type="line"/>
      <point x="368" y="755"/>
      <point x="347" y="705" type="qcurve"/>
      <point x="366" y="702"/>
      <point x="381" y="679"/>
      <point x="381" y="660" type="qcurve"/>
      <point x="374" y="621"/>
      <point x="344" y="583"/>
    </contour>
  </outline>
</glyph>
<glyph name="circumflex" format="2">
  <advance width="588"/>
  <unicode hex="02C6"/>
  <outline>
    <contour>
      <point x="419" y="583" type="line"/>
      <point x="323" y="699" type="line"/>
      <point x="187" y="584" type="line"/>
      <point x="129" y="631" type="line"/>
      <point x="277" y="783" type="line"/>
      <point x="389" y="783" type="line"/>
      <point x="482" y="631" type="line"/>
    </contour>
  </outline>
</glyph>
<glyph name="caronmod" format="2">
  <advance width="588"/>
  <unicode hex="02C7"/>
  <outline>
    <contour>
      <point x="360" y="592" type="line"/>
      <point x="248" y="592" type="line"/>
      <point x="154" y="745" type="line"/>
      <point x="217" y="792" type="line"/>
      <point x="310" y="676" type="line"/>
      <point x="448" y="792" type="line"/>
      <point x="508" y="745" type="line"/>
    </contour>
  </outline>
</glyph>
<glyph name="brevemod" format="2">
  <advance width="588"/>
  <unicode hex="02D8"/>
  <outline>
    <contour>
      <point x="305" y="586" type="qcurve"/>
      <point x="256" y="586"/>
      <point x="191" y="633"/>
      <point x="155" y="704"/>
      <point x="150" y="742" type="qcurve"/>
      <point x="217" y="776" type="line"/>
      <point x="229" y="748" type="line"/>
      <point x="246" y="710"/>
      <point x="279" y="672"/>
      <point x="311" y="672" type="qcurve"/>
      <point x="343" y="672"/>
      <point x="389" y="716"/>
      <point x="423" y="761" type="qcurve"/>
      <point x="434" y="776" type="line"/>
      <point x="503" y="740" type="line"/>
      <point x="430" y="586"/>
    </contour>
  </outline>
</glyph>
<glyph name="dotaccentmod" format="2">
  <advance width="588"/>
  <unicode hex="02D9"/>
  <outline>
    <contour>
      <point x="308" y="600" type="qcurve"/>
      <point x="245" y="600"/>
      <point x="245" y="650" type="qcurve"/>
      <point x="245" y="688"/>
      <point x="277" y="744"/>
      <point x="330" y="744" type="qcurve"/>
      <point x="388" y="744"/>
      <point x="392" y="701" type="qcurve"/>
      <point x="393" y="696" type="line"/>
      <point x="390" y="676" type="line"/>
      <point x="386" y="600"/>
    </contour>
  </outline>
</glyph>
<glyph name="ring" format="2">
  <advance width="589"/>
  <unicode hex="02DA"/>
  <outline>
    <contour>
      <point x="301" y="565" type="qcurve" smooth="yes"/>
      <point x="248" y="565"/>
      <point x="184" y="628"/>
      <point x="184" y="678" type="qcurve" smooth="yes"/>
      <point x="184" y="746"/>
      <point x="273" y="829"/>
      <point x="336" y="829" type="qcurve" smooth="yes"/>
      <point x="385" y="829"/>
      <point x="453" y="769"/>
      <point x="453" y="716" type="qcurve" smooth="yes"/>
      <point x="453" y="644"/>
      <point x="361" y="565"/>
    </contour>
    <contour>
      <point x="307" y="629" type="qcurve" smooth="yes"/>
      <point x="342" y="629"/>
      <point x="374" y="686"/>
      <point x="374" y="726" type="qcurve" smooth="yes"/>
      <point x="374" y="765"/>
      <point x="330" y="765" type="qcurve" smooth="yes"/>
      <point x="303" y="765"/>
      <point x="274" y="733"/>
      <point x="263" y="689"/>
      <point x="263" y="670" type="qcurve" smooth="yes"/>
      <point x="263" y="629"/>
    </contour>
  </outline>
</glyph>
<glyph name="ogonek" format="2">
  <advance width="588"/>
  <unicode hex="02DB"/>
  <outline>
    <contour>
      <point x="194" y="-210" type="qcurve" smooth="yes"/>
      <point x="152" y="-210"/>
      <point x="84" y="-173"/>
      <point x="84" y="-130" type="qcurve" smooth="yes"/>
      <point x="84" y="-48"/>
      <point x="217" y="-5" type="qcurve"/>
      <point x="214" y="12" type="line"/>
      <point x="276" y="18" type="line"/>
      <point x="292" y="0" type="line"/>
      <point x="243" y="-32"/>
      <point x="191" y="-72"/>
      <point x="174" y="-100"/>
      <point x="174" y="-115" type="qcurve" smooth="yes"/>
      <point x="174" y="-145"/>
      <point x="208" y="-145" type="qcurve" smooth="yes"/>
      <point x="239" y="-145"/>
      <point x="262" y="-118" type="qcurve"/>
      <point x="308" y="-165" type="line"/>
      <point x="274" y="-210"/>
    </contour>
  </outline>
</glyph>
<glyph name="tilde" format="2">
  <advance width="589"/>
  <unicode hex="02DC"/>
  <outline>
    <contour>
      <point x="385" y="605" type="qcurve" smooth="yes"/>
      <point x="363" y="605"/>
      <point x="332" y="616"/>
      <point x="317" y="624" type="qcurve"/>
      <point x="300" y="632" type="line"/>
      <point x="265" y="651"/>
      <point x="240" y="651" type="qcurve" smooth="yes"/>
      <point x="224" y="651"/>
      <point x="200" y="638"/>
      <point x="182" y="625" type="qcurve"/>
      <point x="144" y="682" type="line"/>
      <point x="190" y="741"/>
      <point x="253" y="741" type="qcurve" smooth="yes"/>
      <point x="289" y="741"/>
      <point x="345" y="711" type="qcurve" smooth="yes"/>
      <point x="374" y="696"/>
      <point x="398" y="696" type="qcurve" smooth="yes"/>
      <point x="414" y="696"/>
      <point x="438" y="707"/>
      <point x="456" y="721" type="qcurve"/>
      <point x="494" y="664" type="line"/>
      <point x="447" y="605"/>
    </contour>
  </outline>
</glyph>
<glyph name="macroncomb" format="2">
  <advance width="0"/>
  <unicode hex="0304"/>
  <outline>
    <contour>
      <point x="157" y="630" type="line"/>
      <point x="-119" y="630" type="line"/>
      <point x="-101" y="718" type="line"/>
      <point x="175" y="718" type="line"/>
    </contour>
  </outline>
</glyph>
<glyph name="brevecomb" format="2">
  <advance width="0"/>
  <unicode hex="0306"/>
  <outline>
    <contour>
      <point x="14" y="586" type="qcurve"/>
      <point x="-20" y="586"/>
      <point x="-75" y="612"/>
      <point x="-113" y="655"/>
      <point x="-136" y="712"/>
      <point x="-140" y="742" type="qcurve"/>
      <point x="-74" y="776" type="line"/>
      <point x="-63" y="753" type="line"/>
      <point x="-44" y="711"/>
      <point x="-26" y="690" type="qcurve"/>
      <point x="-12" y="672"/>
      <point x="16" y="672" type="qcurve"/>
      <point x="20" y="672" type="line"/>
      <point x="46" y="672"/>
      <point x="70" y="690" type="qcurve"/>
      <point x="89" y="707"/>
      <point x="114" y="739" type="qcurve"/>
      <point x="143" y="776" type="line"/>
      <point x="213" y="740" type="line"/>
      <point x="138" y="586"/>
    </contour>
  </outline>
</glyph>
<glyph name="hookcomb" format="2">
  <advance width="0"/>
  <unicode hex="0309"/>
  <outline>
    <contour>
      <point x="44" y="573" type="line"/>
      <point x="-14" y="603" type="line"/>
      <point x="43" y="701" type="line"/>
      <point x="-74" y="701" type="line"/>
      <point x="-58" y="788" type="line"/>
      <point x="73" y="788" type="line"/>
      <point x="112" y="788"/>
      <point x="145" y="753"/>
      <point x="145" y="734" type="qcurve"/>
      <point x="145" y="703"/>
      <point x="109" y="646"/>
      <point x="85" y="620" type="qcurve"/>
    </contour>
  </outline>
</glyph>
<glyph name="doubleacutecomb" format="2">
  <advance width="0"/>
  <unicode hex="030B"/>
  <outline>
    <contour>
      <point x="-65" y="582" type="line"/>
      <point x="-130" y="614" type="line"/>
      <point x="-19" y="799" type="line"/>
      <point x="70" y="751" type="line"/>
    </contour>
    <contour>
      <point x="116" y="582" type="line"/>
      <point x="52" y="614" type="line"/>
      <point x="161" y="799" type="line"/>
      <point x="250" y="751" type="line"/>
    </contour>
  </outline>
</glyph>
<glyph name="commaaccentcomb" format="2">
  <advance width="0"/>
  <unicode hex="0326"/>
  <outline>
    <contour>
      <point x="-46" y="-264" type="qcurve"/>
      <point x="-119" y="-264" type="line"/>
      <point x="-70" y="-225"/>
      <point x="-49" y="-173" type="qcurve"/>
      <point x="-83" y="-167"/>
      <point x="-83" y="-133" type="qcurve"/>
      <point x="-82" y="-123" type="line"/>
      <point x="-74" y="-51"/>
      <point x="-11" y="-51" type="qcurve"/>
      <point x="41" y="-51"/>
      <point x="42" y="-92" type="qcurve"/>
      <point x="43" y="-97" type="line"/>
      <point x="41" y="-114" type="line"/>
      <point x="22" y="-206"/>
    </contour>
  </outline>
</glyph>
<glyph name="uni0327" format="2">
  <unicode hex="0327"/>
  <outline>
    <contour>
      <point x="-18" y="-210" type="qcurve" smooth="yes"/>
      <point x="-59" y="-210"/>
      <point x="-113" y="-185"/>
      <point x="-125" y="-167" type="qcurve"/>
      <point x="-78" y="-120" type="line"/>
      <point x="-71" y="-130"/>
      <point x="-41" y="-147"/>
      <point x="-19" y="-147" type="qcurve"/>
      <point x="29" y="-144"/>
      <point x="29" y="-114" type="qcurve" smooth="yes"/>
      <point x="29" y="-82"/>
      <point x="-33" y="-76" type="qcurve" smooth="yes"/>
      <point x="-56" y="-74" type="line"/>
      <point x="-18" y="26" type="line"/>
      <point x="42" y="26" type="line"/>
      <point x="11" y="-58" type="line"/>
      <point x="13" y="-61" type="line"/>
      <point x="29" y="-55"/>
      <point x="52" y="-55" type="qcurve" smooth="yes"/>
      <point x="75" y="-55"/>
      <point x="112" y="-81"/>
      <point x="112" y="-111" type="qcurve" smooth="yes"/>
      <point x="112" y="-161"/>
      <point x="34" y="-210"/>
    </contour>
  </outline>
</glyph>
<glyph name="greekquestionmark" format="2">
  <advance width="309"/>
  <unicode hex="037E"/>
  <outline>
    <contour>
      <point x="127" y="143" type="qcurve"/>
      <point x="155" y="143"/>
      <point x="187" y="121"/>
      <point x="190" y="101" type="qcurve"/>
      <point x="191" y="96"/>
      <point x="191" y="87"/>
      <point x="191" y="82" type="qcurve"/>
      <point x="189" y="55"/>
      <point x="169" y="-6"/>
      <point x="135" y="-65"/>
      <point x="87" y="-119"/>
      <point x="58" y="-140" type="qcurve"/>
      <point x="-28" y="-140" type="line"/>
      <point x="12" y="-108"/>
      <point x="64" y="-45"/>
      <point x="84" y="-7" type="qcurve"/>
      <point x="61" y="-2"/>
      <point x="42" y="23"/>
      <point x="42" y="40" type="qcurve"/>
      <point x="42" y="55"/>
      <point x="49" y="91"/>
      <point x="68" y="122"/>
      <point x="101" y="143"/>
    </contour>
    <contour>
      <point x="181" y="375" type="line"/>
      <point x="149" y="375"/>
      <point x="117" y="402"/>
      <point x="117" y="425" type="qcurve"/>
      <point x="117" y="443"/>
      <point x="124" y="480"/>
      <point x="144" y="510"/>
      <point x="178" y="530"/>
      <point x="204" y="530" type="qcurve"/>
      <point x="236" y="530"/>
      <point x="267" y="501"/>
      <point x="267" y="480" type="qcurve"/>
      <point x="267" y="435"/>
      <point x="227" y="377"/>
      <point x="187" y="375" type="qcurve"/>
    </contour>
  </outline>
</glyph>
<glyph name="uni037E" format="2">
  <advance width="309"/>
  <unicode hex="037E"/>
  <outline>
    <contour>
      <point x="181" y="375" type="line" smooth="yes"/>
      <point x="149" y="375"/>
      <point x="117" y="402"/>
      <point x="117" y="425" type="qcurve" smooth="yes"/>
      <point x="117" y="443"/>
      <point x="124" y="480"/>
      <point x="144" y="510"/>
      <point x="178" y="530"/>
      <point x="204" y="530" type="qcurve" smooth="yes"/>
      <point x="236" y="530"/>
      <point x="267" y="501"/>
      <point x="267" y="480" type="qcurve" smooth="yes"/>
      <point x="267" y="435"/>
      <point x="227" y="377"/>
      <point x="187" y="375" type="qcurve"/>
    </contour>
    <contour>
      <point x="127" y="143" type="qcurve" smooth="yes"/>
      <point x="155" y="143"/>
      <point x="187" y="121"/>
      <point x="190" y="101" type="qcurve" smooth="yes"/>
      <point x="191" y="96"/>
      <point x="191" y="92" type="qcurve"/>
      <point x="191" y="91" type="line"/>
      <point x="191" y="90"/>
      <point x="191" y="90" type="qcurve"/>
      <point x="191" y="89"/>
      <point x="191" y="89" type="qcurve"/>
      <point x="191" y="88" type="line"/>
      <point x="191" y="88"/>
      <point x="191" y="87" type="qcurve"/>
      <point x="191" y="87"/>
      <point x="191" y="87" type="qcurve"/>
      <point x="191" y="82" type="line"/>
      <point x="189" y="55"/>
      <point x="169" y="-6"/>
      <point x="135" y="-65"/>
      <point x="87" y="-119"/>
      <point x="58" y="-140" type="qcurve"/>
      <point x="-28" y="-140" type="line"/>
      <point x="12" y="-108"/>
      <point x="64" y="-45"/>
      <point x="84" y="-7" type="qcurve"/>
      <point x="61" y="-2"/>
      <point x="42" y="23"/>
      <point x="42" y="40" type="qcurve" smooth="yes"/>
      <point x="42" y="55"/>
      <point x="49" y="91"/>
      <point x="68" y="122"/>
      <point x="101" y="143"/>
    </contour>
  </outline>
</glyph>
<glyph name="tonosmod-grek" format="2">
  <advance width="590"/>
  <unicode hex="0384"/>
  <outline>
    <contour>
      <point x="374" y="582" type="line"/>
      <point x="304" y="602" type="line"/>
      <point x="372" y="797" type="line"/>
      <point x="471" y="773" type="line"/>
    </contour>
  </outline>
</glyph>
<glyph name="greekanoteleia" format="2">
  <advance width="309"/>
  <unicode hex="0387"/>
  <outline>
    <contour>
      <point x="181" y="375" type="line"/>
      <point x="149" y="375"/>
      <point x="117" y="402"/>
      <point x="117" y="425" type="qcurve"/>
      <point x="117" y="443"/>
      <point x="124" y="480"/>
      <point x="144" y="510"/>
      <point x="178" y="530"/>
      <point x="204" y="530" type="qcurve"/>
      <point x="236" y="530"/>
      <point x="267" y="501"/>
      <point x="267" y="480" type="qcurve"/>
      <point x="267" y="435"/>
      <point x="227" y="377"/>
      <point x="187" y="375" type="qcurve"/>
    </contour>
  </outline>
</glyph>
<glyph name="Etatonos" format="2">
  <advance width="756"/>
  <unicode hex="0389"/>
  <outline>
    <contour>
      <point x="124" y="582" type="line"/>
      <point x="54" y="602" type="line"/>
      <point x="122" y="797" type="line"/>
      <point x="221" y="773" type="line"/>
    </contour>
    <contour>
      <point x="568" y="303" type="line"/>
      <point x="268" y="303" type="line"/>
      <point x="207" y="0" type="line"/>
      <point x="94" y="0" type="line"/>
      <point x="234" y="698" type="line"/>
      <point x="347" y="698" type="line"/>
      <point x="289" y="403" type="line"/>
      <point x="588" y="403" type="line"/>
      <point x="647" y="698" type="line"/>
      <point x="760" y="698" type="line"/>
      <point x="620" y="0" type="line"/>
      <point x="507" y="0" type="line"/>
    </contour>
  </outline>
</glyph>
<glyph name="Iotatonos-grek" format="2">
  <advance width="482"/>
  <unicode hex="038A"/>
  <outline>
    <contour>
      <point x="292" y="0" type="line"/>
      <point x="172" y="0" type="line"/>
      <point x="312" y="698" type="line"/>
      <point x="432" y="698" type="line"/>
    </contour>
    <contour>
      <point x="174" y="582" type="line"/>
      <point x="104" y="602" type="line"/>
      <point x="172" y="797" type="line"/>
      <point x="271" y="773" type="line"/>
    </contour>
  </outline>
</glyph>
